<?xml version="1.0" encoding="utf-8"?>
<!-- Generator: Adobe Illustrator 24.0.0, SVG Export Plug-In . SVG Version: 6.00 Build 0)  -->
<svg version="1.1" id="Layer_1" xmlns="http://www.w3.org/2000/svg" xmlns:xlink="http://www.w3.org/1999/xlink" x="0px" y="0px"
	 viewBox="0 0 192 192" style="enable-background:new 0 0 192 192;" xml:space="preserve">
<style type="text/css">
	.st0{fill:#F2F2F2;}
</style>
<title>iconArtboard 13 copy 2</title>
<g id="Layer_3">
	<path class="st0" d="M131.5,21h-71C38.7,21,21,38.7,21,60.5v71c0,21.8,17.7,39.5,39.5,39.5h36.7c-0.6,0-1.1-0.5-1.1-1.1V121H81.7
		c-0.6,0-1.1-0.5-1.1-1.1c0,0,0,0,0,0v-19.3c0-0.6,0.5-1.1,1.1-1.1c0,0,0,0,0,0h14.4V84.1c-0.1-6.3,2.4-12.5,6.8-17
		c1.6-1.6,3.4-2.9,5.3-4c3.4-1.9,7.2-2.8,11.1-2.7l15.6,0.4c0.6,0,1,0.5,1,1.1v17.4c0,0.6-0.4,1.1-1,1.1h-11
		c-1.7-0.1-3.4,0.6-4.6,1.9c-2.4,2.7-2,7.4-2,7.4v9.8h17c0.3,0,0.6,0.1,0.8,0.4c0.2,0.2,0.3,0.6,0.3,0.9l-2.4,19.3
		c-0.1,0.6-0.5,1-1.1,1h-14.6v48.9c0,0.6-0.5,1.1-1.1,1.1h15.1c21.8,0,39.5-17.7,39.5-39.5c0,0,0,0,0,0v-71
		C171,38.7,153.3,21,131.5,21z"/>
</g>
</svg>
