<svg xmlns="http://www.w3.org/2000/svg" viewBox="0 0 192 192"><defs><style>.cls-1{fill:#510303;}</style></defs><title>iconArtboard 13 copy 2</title><g id="Layer_3" data-name="Layer 3"><path class="cls-1" d="M131.48,21h-71A39.52,39.52,0,0,0,21,60.52v71A39.52,39.52,0,0,0,60.52,171H97.2a1.1,1.1,0,0,1-1.07-1.12V121H81.68a1.1,1.1,0,0,1-1.08-1.12v-19.3a1.1,1.1,0,0,1,1.08-1.12H96.13V84.12a24,24,0,0,1,6.85-17,22.89,22.89,0,0,1,5.33-4,22.15,22.15,0,0,1,11.11-2.73l15.56.36A1.1,1.1,0,0,1,136,61.87V79.3A1.09,1.09,0,0,1,135,80.41H124a5.74,5.74,0,0,0-4.58,1.86c-2.36,2.7-2,7.41-2,7.45v9.77h17a1,1,0,0,1,.81.38,1.16,1.16,0,0,1,.26.88l-2.41,19.31a1.1,1.1,0,0,1-1.07,1H117.41v48.85a1.1,1.1,0,0,1-1.07,1.12h15.14A39.52,39.52,0,0,0,171,131.48v-71A39.52,39.52,0,0,0,131.48,21Z"/></g></svg>