<?xml version="1.0" encoding="utf-8"?>
<!-- Generator: Adobe Illustrator 24.0.0, SVG Export Plug-In . SVG Version: 6.00 Build 0)  -->
<svg version="1.1" id="Layer_1" xmlns="http://www.w3.org/2000/svg" xmlns:xlink="http://www.w3.org/1999/xlink" x="0px" y="0px"
	 viewBox="0 0 192 192" style="enable-background:new 0 0 192 192;" xml:space="preserve">
<style type="text/css">
	.st0{fill:#F2F2F2;}
</style>
<title>iconArtboard 13 copy 4</title>
<g id="Layer_3">
	<path class="st0" d="M131.6,21H60.4C38.7,21.1,21.1,38.7,21,60.4v71.1c0.1,21.8,17.7,39.4,39.4,39.4h71.1
		c21.8-0.1,39.4-17.7,39.4-39.4V60.4C170.9,38.7,153.3,21.1,131.6,21z M97.6,136.9c-21.7,0-39.3-17.6-39.3-39.3
		c0-21.7,17.6-39.3,39.3-39.3c21.7,0,39.3,17.6,39.3,39.3S119.3,136.9,97.6,136.9C97.6,136.9,97.6,136.9,97.6,136.9L97.6,136.9z
		 M136.9,67.6c-5.1,0-9.3-4.2-9.3-9.3s4.2-9.3,9.3-9.3s9.3,4.2,9.3,9.3c0,0,0,0,0,0C146.1,63.4,142,67.6,136.9,67.6
		C136.9,67.6,136.9,67.6,136.9,67.6L136.9,67.6z"/>
	<circle class="st0" cx="97.5" cy="97.5" r="25.3"/>
</g>
</svg>
