<svg xmlns="http://www.w3.org/2000/svg" viewBox="0 0 192 192"><defs><style>.cls-1{fill:#510303;}</style></defs><title>iconArtboard 13 copy 4</title><g id="Layer_3" data-name="Layer 3"><path class="cls-1" d="M131.56,21H60.44A39.56,39.56,0,0,0,21,60.44v71.12A39.56,39.56,0,0,0,60.44,171h71.12A39.56,39.56,0,0,0,171,131.56V60.44A39.56,39.56,0,0,0,131.56,21Zm-34,115.85a39.3,39.3,0,1,1,39.3-39.3A39.3,39.3,0,0,1,97.55,136.85Zm39.3-69.3a9.3,9.3,0,1,1,9.29-9.29A9.29,9.29,0,0,1,136.85,67.55Z"/><circle class="cls-1" cx="97.55" cy="97.55" r="25.26" transform="translate(-14.37 16.89) rotate(-9.22)"/></g></svg>