<svg xmlns="http://www.w3.org/2000/svg" viewBox="0 0 2100 250"><defs><style>.cls-1{fill:#9a7a69;}.cls-2{fill:#8b0013;}.cls-3{fill:#322b29;}.cls-4{fill:#333;}.cls-5{fill:#510303;}.cls-6{fill:#890000;}</style></defs><title>iconCuadrado copy 8</title><g id="Layer_3" data-name="Layer 3"><polygon class="cls-1" points="1052.8 123.85 1053.51 123.85 1052.84 123.83 1052.8 123.85"/><polygon class="cls-2" points="1052.78 123.85 1053.54 123.85 1052.83 123.83 1052.78 123.85"/><polygon class="cls-3" points="1052.6 123.86 1053.71 123.86 1052.74 123.83 1052.6 123.86"/><polygon class="cls-3" points="1050 123.89 1056.31 123.89 1052.59 123.79 1050 123.89"/><polygon class="cls-3" points="1052.34 123.86 1053.97 123.86 1052.56 123.82 1052.34 123.86"/><polygon class="cls-4" points="1055.07 122.68 1054.84 122.68 1051.83 124.63 1051.24 125 1051.98 124.63 1055.07 122.68"/><polygon class="cls-2" points="1053.91 123.81 1052.1 123.81 1054.21 123.86 1053.91 123.81"/><path class="cls-5" d="M1358.93,109.33a37.37,37.37,0,0,0-5.49-4.1,68.66,68.66,0,0,0-9.71-5.07,83.7,83.7,0,0,0-12.39-4.2,54.13,54.13,0,0,0-13.58-1.72q-12.29,0-18.32,4.52t-6,12.72a13.07,13.07,0,0,0,2.27,7.87,19.44,19.44,0,0,0,6.57,5.5,55.54,55.54,0,0,0,10.89,4.31q6.57,1.93,15.19,4.09,11.21,3,20.37,6.47a55.16,55.16,0,0,1,15.52,8.62,35.58,35.58,0,0,1,9.81,12.4q3.45,7.22,3.45,17.78,0,12.28-4.63,21a39.15,39.15,0,0,1-12.51,14.12,54.39,54.39,0,0,1-18.1,7.86,91,91,0,0,1-21.45,2.48,115.17,115.17,0,0,1-34.06-5.17,105.27,105.27,0,0,1-30.18-14.66l13.15-25.65a41.86,41.86,0,0,0,7,5.07,107.94,107.94,0,0,0,12,6.25,93.84,93.84,0,0,0,15.3,5.28,69.56,69.56,0,0,0,17.25,2.15q24.57,0,24.57-15.73a12.89,12.89,0,0,0-2.8-8.41,23.72,23.72,0,0,0-8-6,75.59,75.59,0,0,0-12.5-4.75q-7.34-2.15-16.38-4.74A139.26,139.26,0,0,1,1287,151a50.39,50.39,0,0,1-13.47-8.41,31.42,31.42,0,0,1-8.08-11.21,38.75,38.75,0,0,1-2.7-15.2,47.6,47.6,0,0,1,4.31-20.69,42,42,0,0,1,12-15.09,54.29,54.29,0,0,1,17.78-9.16,73.58,73.58,0,0,1,21.77-3.13,84.64,84.64,0,0,1,29.75,5.07,111.52,111.52,0,0,1,23.71,12Z"/><path class="cls-5" d="M1513.27,95.31h-48.93v127h-29.53v-127h-48.93V69.23h127.39Z"/><path class="cls-5" d="M1596.9,197.06q10.56,0,17.79-4.31a34.89,34.89,0,0,0,11.64-11.21,46.58,46.58,0,0,0,6.25-15.85,91.65,91.65,0,0,0,1.83-18.43v-78h29.53v78a111.72,111.72,0,0,1-3.77,29.53,67.85,67.85,0,0,1-11.86,24.15,56.84,56.84,0,0,1-20.8,16.38q-12.72,6-30.39,6-18.33,0-31.15-6.36a58,58,0,0,1-20.8-16.82,67,67,0,0,1-11.53-24.25,114.38,114.38,0,0,1-3.56-28.67v-78h29.75v78a92.83,92.83,0,0,0,1.83,18.65,46.12,46.12,0,0,0,6.25,15.84,34,34,0,0,0,11.53,11.1Q1586.57,197.07,1596.9,197.06Z"/><path class="cls-5" d="M1693.9,222.28v-153h55.62q18.75,0,32.87,6a66.1,66.1,0,0,1,37.83,40.63,91.25,91.25,0,0,1,4.74,29.64,89.6,89.6,0,0,1-5.28,31.58,67.4,67.4,0,0,1-15.2,24.14,68.43,68.43,0,0,1-23.81,15.52,84.22,84.22,0,0,1-31.15,5.5ZM1795,145.54a65.17,65.17,0,0,0-3-20.26,45.24,45.24,0,0,0-8.84-16A39.28,39.28,0,0,0,1768.81,99a48.44,48.44,0,0,0-19.29-3.67h-25.87V196.2h25.87a46.62,46.62,0,0,0,19.5-3.88,40,40,0,0,0,14.23-10.68,47.37,47.37,0,0,0,8.73-16A64.46,64.46,0,0,0,1795,145.54Z"/><path class="cls-5" d="M1848.24,222.28v-153H1878V222.28Z"/><path class="cls-5" d="M1975.2,223.36a69.42,69.42,0,0,1-30.5-6.58,74.8,74.8,0,0,1-23.5-17.46,81,81,0,0,1-20.58-53.56,76.88,76.88,0,0,1,5.71-29.32,81.06,81.06,0,0,1,15.74-24.79,75.12,75.12,0,0,1,23.82-17.14,70.8,70.8,0,0,1,30-6.36,67.27,67.27,0,0,1,30.28,6.79,75.58,75.58,0,0,1,23.39,17.79,81.76,81.76,0,0,1,15.09,25,78.8,78.8,0,0,1,5.39,28.46,77.49,77.49,0,0,1-5.6,29.2A79.49,79.49,0,0,1,2028.87,200a74.65,74.65,0,0,1-23.71,17A70.65,70.65,0,0,1,1975.2,223.36Zm-44.4-77.6a61.6,61.6,0,0,0,3,19.18,51.49,51.49,0,0,0,8.73,16.38,43.5,43.5,0,0,0,14,11.43,43.38,43.38,0,0,0,37.93-.11,43.4,43.4,0,0,0,14-11.75,52.44,52.44,0,0,0,8.62-16.49,61.23,61.23,0,0,0,2.91-18.64,59.78,59.78,0,0,0-3.13-19.19,52.74,52.74,0,0,0-8.84-16.38,42.11,42.11,0,0,0-14-11.32,43.67,43.67,0,0,0-37.83.22,42.47,42.47,0,0,0-14,11.64,52.11,52.11,0,0,0-8.51,16.38A61.25,61.25,0,0,0,1930.8,145.76Z"/><path class="cls-6" d="M179.73,94.71H129.9V224H99.83V94.71H50V68.15H179.73Z"/><path class="cls-6" d="M199,224V68.15H268a44.34,44.34,0,0,1,19.86,4.5,51.67,51.67,0,0,1,15.7,11.86,55.71,55.71,0,0,1,10.31,16.68A50.17,50.17,0,0,1,317.58,120,51.79,51.79,0,0,1,310,147.5a43.5,43.5,0,0,1-20.52,17.9L325,224H291l-31.83-52.24H229.34V224Zm30.3-78.8h38a16,16,0,0,0,7.79-2,19.79,19.79,0,0,0,6.26-5.37,27.06,27.06,0,0,0,4.17-8,31.11,31.11,0,0,0,1.54-9.87,28.15,28.15,0,0,0-1.76-10.1,26.29,26.29,0,0,0-4.72-8,21.42,21.42,0,0,0-6.8-5.27,17.77,17.77,0,0,0-7.8-1.87H229.34Z"/><path class="cls-6" d="M345,224V68.15h30.3V224Z"/><path class="cls-4" d="M534.89,224V120.83l-40.18,76.83H478.25l-40.17-76.83V224H407.79V68.15h32.49l46.09,88.68,46.54-88.68h32.27V224Z"/><path class="cls-4" d="M705.88,197.44V224H597.66V68.15H703.9V94.71H628v37.54h65.64v24.58H628v40.61Z"/><path class="cls-4" d="M846.14,94.71H796.31V224H766.24V94.71H716.41V68.15H846.14Z"/><path class="cls-4" d="M865.46,224V68.15h68.92a44.41,44.41,0,0,1,19.87,4.5,51.62,51.62,0,0,1,15.69,11.86,55.94,55.94,0,0,1,10.32,16.68A50.15,50.15,0,0,1,984,120a51.78,51.78,0,0,1-7.57,27.54,43.48,43.48,0,0,1-20.53,17.9L991.45,224h-34L925.6,171.76H895.75V224Zm30.29-78.8h38a16,16,0,0,0,7.8-2,19.76,19.76,0,0,0,6.25-5.37,26.61,26.61,0,0,0,4.17-8,31.11,31.11,0,0,0,1.54-9.87,28.15,28.15,0,0,0-1.76-10.1,26.29,26.29,0,0,0-4.72-8,21.2,21.2,0,0,0-6.8-5.27,17.73,17.73,0,0,0-7.79-1.87H895.75Z"/><path class="cls-4" d="M1011.43,224V68.15h30.29V224Z"/><path class="cls-4" d="M1118.55,68.15h26.77L1204.59,224h-31.17l-14.49-38.85H1104.5L1090.23,224h-31.17Zm34.9,95.71-21.51-61.25-22.39,61.25Z"/><polygon class="cls-4" points="1033.99 59.12 1014.35 53.18 1026.68 26 1055.23 26 1033.99 59.12"/></g></svg>