<svg xmlns="http://www.w3.org/2000/svg" viewBox="0 0 1920 1920"><defs><style>.cls-1{fill:#9a7a69;}.cls-2{fill:#8b0013;}.cls-3{fill:#322b29;}.cls-4{fill:#333;}.cls-5{fill:#890000;}.cls-6{fill:#510303;}</style></defs><title>iconCuadrado</title><g id="Layer_3" data-name="Layer 3"><polygon class="cls-1" points="1139.73 1371.33 1140.44 1371.33 1139.78 1371.31 1139.73 1371.33"/><polygon class="cls-2" points="1118.14 1380.27 1118.9 1380.27 1118.19 1380.25 1118.14 1380.27"/><polygon class="cls-3" points="1051.04 1400.28 1052.14 1400.28 1051.17 1400.25 1051.04 1400.28"/><polygon class="cls-3" points="976.97 1409.42 983.27 1409.42 979.55 1409.32 976.97 1409.42"/><polygon class="cls-3" points="1027.63 1404.56 1029.26 1404.56 1027.85 1404.52 1027.63 1404.56"/><polygon class="cls-4" points="1198.36 1339.84 1198.13 1339.84 1195.12 1341.79 1194.54 1342.16 1195.28 1341.79 1198.36 1339.84"/><polygon class="cls-2" points="892.38 1404.56 890.55 1404.56 892.67 1404.61 892.38 1404.56"/><path class="cls-5" d="M466.45,1429.41H411.51V1572H378.34V1429.41H323.4v-29.29H466.45Z"/><path class="cls-5" d="M487.75,1572V1400.12h76a48.86,48.86,0,0,1,21.9,5A56.75,56.75,0,0,1,603,1418.15a61.9,61.9,0,0,1,11.38,18.4,55.41,55.41,0,0,1,4.11,20.7,57.15,57.15,0,0,1-8.35,30.38,48,48,0,0,1-22.63,19.72L626.69,1572H589.17l-35.09-57.61H521.16V1572Zm33.41-86.9H563a17.55,17.55,0,0,0,8.59-2.18,21.69,21.69,0,0,0,6.9-5.93,29.44,29.44,0,0,0,4.6-8.83,34.22,34.22,0,0,0,1.7-10.89,31.07,31.07,0,0,0-1.94-11.14,29.14,29.14,0,0,0-5.2-8.83,23.62,23.62,0,0,0-7.51-5.81,19.5,19.5,0,0,0-8.59-2.06H521.16Z"/><path class="cls-5" d="M648.72,1572V1400.12h33.4V1572Z"/><path class="cls-4" d="M858.1,1572V1458.22l-44.3,84.72H795.64l-44.29-84.72V1572H718V1400.12h35.82l50.83,97.79,51.32-97.79H891.5V1572Z"/><path class="cls-4" d="M1046.66,1542.69V1572H927.32V1400.12h117.16v29.29H960.73v41.39h72.37v27.11H960.73v44.78Z"/><path class="cls-4" d="M1201.33,1429.41h-54.95V1572h-33.16V1429.41h-55v-29.29h143.06Z"/><path class="cls-4" d="M1222.63,1572V1400.12h76a48.9,48.9,0,0,1,21.91,5,56.87,56.87,0,0,1,17.31,13.07,61.66,61.66,0,0,1,11.37,18.4,55.23,55.23,0,0,1,4.12,20.7,57.24,57.24,0,0,1-8.35,30.38,48,48,0,0,1-22.63,19.72l39.21,64.63h-37.52l-35.1-57.61H1256V1572Zm33.4-86.9h41.88a17.58,17.58,0,0,0,8.59-2.18,21.91,21.91,0,0,0,6.9-5.93,29.67,29.67,0,0,0,4.6-8.83,34.22,34.22,0,0,0,1.69-10.89,31.07,31.07,0,0,0-1.93-11.14,29.16,29.16,0,0,0-5.21-8.83,23.58,23.58,0,0,0-7.5-5.81,19.53,19.53,0,0,0-8.59-2.06H1256Z"/><path class="cls-4" d="M1383.59,1572V1400.12H1417V1572Zm24.94-186.38-20.82-6.29,13.07-28.81H1431Z"/><path class="cls-4" d="M1501.72,1400.12h29.53L1596.6,1572h-34.37l-16-42.84h-60L1470.49,1572h-34.37Zm38.48,105.54-23.72-67.54-24.69,67.54Z"/><polygon class="cls-4" points="1170.73 1201.73 1170.19 1202.05 1167.4 1203.79 1170.73 1201.73"/><polygon class="cls-4" points="1447.14 822.32 1447.14 822.14 1447.08 820.35 1447.07 820.17 1446.81 815.19 1446.66 812.42 1446.66 812.36 1446.34 806.24 1446.34 806.18 1444.99 790.91 1444.98 790.78 1444.79 788.57 1444.54 786.44 1444.52 786.38 1443.11 774.47 1443.1 774.37 1442.58 770.69 1442.55 770.49 1441.98 766.85 1441.98 766.84 1440.96 760.47 1440.96 760.41 1440.36 756.63 1438.96 749.05 1437.77 743.01 1437.77 743 1436.68 737.43 1436.05 734.71 1436.05 734.68 1434.67 728.62 1432.84 721.05 1432.47 719.59 1432.47 719.58 1429.88 709.36 1429.86 709.34 1429.82 709.16 1425.95 696.37 1425.95 696.36 1425.18 693.82 1422.19 684.24 1422.18 684.21 1420.65 679.3 1420.64 679.26 1418.91 674.49 1418.87 674.41 1418.64 673.8 1414.64 663.16 1413.21 659.53 1413.2 659.5 1410.17 651.88 1410.17 651.86 1409.57 650.35 1409.56 650.34 1409.47 650.12 1407.09 644.48 1406.98 644.24 1406.89 644.03 1403.14 635.47 1403.14 635.46 1402.22 633.38 1402.21 633.35 1400.73 630.37 1394.22 616.89 1394.2 616.86 1391.68 612.05 1390.46 609.72 1390.44 609.68 1387.78 604.59 1387.67 604.39 1386.32 601.96 1385.6 600.64 1385.53 600.53 1379.87 590.33 1379.61 589.9 1379.08 589.06 1379.06 589.03 1371.43 576.7 1367.65 570.74 1367.65 570.73 1365.22 566.91 1365.21 566.9 1364.33 565.5 1355.29 552.64 1355.29 552.63 1350.77 546.19 1349.72 544.79 1342.43 535.4 1342.42 535.39 1337.33 528.81 1334.22 524.97 1334.21 524.96 1333.71 524.33 1329.27 519.21 1329.26 519.21 1323.17 512.19 1317.03 505.38 1317.02 505.38 1316.07 504.31 1316.06 504.3 1316.06 504.29 1313.93 501.95 1313.9 501.9 1313.87 501.86 1313.28 501.25 1312.51 500.46 1307.88 495.68 1302.52 490.26 1302.51 490.25 1301.04 488.77 1298.81 486.64 1298.79 486.62 1293.07 481.16 1292.93 481.03 1292.84 480.94 1289.24 477.69 1284.08 472.83 1283.97 472.74 1279.79 468.97 1278.13 467.47 1278.11 467.44 1276.58 466.2 1275.57 465.33 1275.41 465.2 1264.05 455.76 1264.04 455.75 1262.11 454.15 1259.83 452.36 1258.39 451.21 1258.25 451.1 1258.19 451.05 1258.07 450.97 1252.76 447.03 1239.07 436.81 1219.97 424.08 1219.9 424.04 1219.84 423.99 1217.18 422.34 1217.14 422.31 1213.74 420.19 1213.69 420.17 1213.64 420.13 1195.01 409.13 1176.7 399.46 1176.46 399.34 1171.83 396.99 1171.77 396.97 1171.76 396.96 1170.57 396.36 1169.41 395.81 1169.27 395.75 1168.99 395.61 1149.31 386.74 1149.13 386.66 1148.38 386.35 1148.36 386.33 1147.78 386.08 1147.67 386.04 1147.5 385.97 1141.27 383.37 1128.09 378.3 1139.69 382.89 1127.9 378.24 1127.45 378.06 1126.3 377.61 1123.89 376.77 1123.74 376.71 1119.59 375.26 1119.31 375.16 1111.13 372.3 1101.91 369.45 1101.87 369.44 1101.84 369.43 1099.39 368.67 1099.28 368.64 1099.26 368.63 1098.35 368.35 1098.26 368.32 1095.95 367.61 1080.35 363.35 1075.33 362.1 1075.25 362.08 1074.37 361.86 1073.97 361.76 1073.91 361.74 1073.85 361.73 1064.97 359.51 1049.16 356.32 1052.31 361.86 1052.33 361.86 1052.37 361.94 1052.43 362.06 1052.56 362.27 1063.93 382.17 1066.32 386.35 1066.33 386.36 1066.23 386.35 1068.62 390.37 1068.66 390.43 1074.8 401.17 1077.76 406.36 1078.03 406.84 1079.34 409.13 1079.3 409.13 1086.88 422.34 1086.89 422.34 1095.16 436.81 1101.01 447.03 1101.56 447.03 1101.62 447.06 1114.71 452.14 1115.21 452.36 1115.27 452.38 1120.31 454.57 1123.36 455.76 1126.62 457.32 1126.68 457.34 1128.41 458.1 1141.69 464.28 1145.42 466.2 1145.45 466.2 1150.82 468.97 1150.89 469 1154.96 471.09 1166.68 477.69 1166.72 477.71 1166.74 477.71 1167.83 478.33 1180.47 486.21 1181.13 486.64 1181.14 486.65 1182.14 487.3 1187 490.26 1190.44 492.7 1190.5 492.73 1192.91 494.3 1201.03 500.2 1201.3 500.4 1201.32 500.41 1206.82 504.31 1208.16 505.38 1208.17 505.39 1211.02 507.64 1216.73 511.97 1221.12 515.66 1225.58 519.21 1232.11 524.97 1236.6 529.01 1236.63 529.04 1236.81 529.2 1239.28 531.35 1240.26 532.3 1240.39 532.43 1240.45 532.47 1243.7 535.4 1246.51 538.22 1246.55 538.27 1246.55 538.28 1246.58 538.31 1246.64 538.36 1250.02 541.58 1253.95 545.62 1253.96 545.63 1259.46 551.31 1259.85 551.71 1260.15 552.01 1260.78 552.64 1265.14 557.57 1265.9 558.42 1266.02 558.55 1270.26 563.29 1271.48 564.71 1271.5 564.74 1271.53 564.77 1273.43 566.91 1276.8 570.74 1278.49 572.87 1279.96 574.58 1289.24 586.29 1290.06 587.44 1290.07 587.46 1291.34 589.06 1291.64 589.66 1291.64 589.67 1291.66 589.7 1291.81 589.9 1291.81 589.92 1297.87 598.43 1302.21 604.78 1302.25 604.85 1302.35 604.99 1305.67 609.72 1307.15 612.05 1309.66 616.17 1309.93 616.61 1314.11 623.33 1315.81 626.25 1315.89 626.4 1318.32 630.37 1319.55 632.67 1319.57 632.68 1321.19 635.47 1321.21 635.5 1321.69 636.33 1328.65 649.53 1328.68 649.61 1329.91 651.88 1333.04 658.56 1333.1 658.66 1333.52 659.53 1335.18 662.94 1337.15 667.5 1337.24 667.71 1340.03 673.8 1344.25 684.24 1344.75 685.51 1344.87 685.8 1346.77 690.41 1347.3 691.87 1347.31 691.9 1347.38 692.11 1349.09 696.37 1350.72 701.4 1350.75 701.45 1350.84 701.71 1351.83 704.47 1353.38 709.36 1353.38 709.38 1354.19 711.96 1356.68 719.59 1359.16 728.5 1359.27 728.89 1360.48 733 1360.78 734.3 1360.79 734.37 1360.89 734.71 1363.01 743.01 1366.7 760.47 1366.71 760.48 1368.06 766.85 1371.02 786.44 1371.65 790.91 1373.55 812.42 1373.76 815.19 1374.6 838.62 1374.6 839.46 1373.96 863.74 1373.85 865.01 1373.85 865.04 1372.64 878.99 1372.48 881.2 1372.34 882.51 1371.86 888.01 1371.44 890.99 1371.15 893.09 1370.81 896.11 1370.06 900.81 1370.02 901.08 1368.48 912.07 1367.64 916.97 1365.95 925.49 1363.85 936.13 1362.07 942.74 1362.07 942.76 1357.53 959.56 1354.79 968.29 1350.14 982.76 1347.26 990.11 1346.03 993.41 1346.03 993.42 1344.67 997.04 1343.21 1000.46 1341.29 1005.34 1335.61 1018.12 1331.18 1027.49 1327.16 1035.22 1325.91 1037.71 1325.2 1039 1323.43 1042.39 1323.38 1042.39 1324.32 1040.59 1318.74 1050.69 1311.41 1063.03 1320 1048.99 1309.68 1066.02 1307.36 1069.65 1294.29 1089.02 1293.66 1089.65 1287.17 1098.09 1285.65 1100.1 1285.1 1100.79 1278.9 1108.83 1276.87 1111.16 1276.86 1111.17 1268.96 1120.2 1266.47 1123.09 1265.71 1123.9 1265.53 1124.11 1265.43 1124.22 1262.89 1127.13 1259.03 1131.08 1257.55 1132.67 1257.54 1132.69 1256.36 1133.95 1252.24 1138.03 1246.03 1144.38 1251.22 1153.54 1251.24 1153.58 1261.32 1171.35 1261.77 1172.13 1262.46 1173.34 1273.22 1192.07 1279.75 1203.79 1283.33 1210.17 1290.08 1203.79 1290.05 1203.79 1289.41 1204.37 1290.03 1203.79 1290.05 1203.77 1298.61 1195.59 1302.09 1192.07 1302.15 1192.01 1306.52 1187.6 1317.69 1175.89 1319.95 1173.34 1320 1173.27 1328.23 1163.97 1336.95 1153.54 1336.97 1153.51 1338.55 1151.62 1344.16 1144.38 1344.17 1144.37 1346.92 1140.83 1347.45 1140.14 1347.63 1139.9 1348.99 1138.1 1349.17 1137.86 1349.4 1137.56 1352.97 1132.67 1352.97 1132.66 1355.13 1129.71 1355.16 1129.67 1356.89 1127.13 1367.34 1111.92 1367.34 1111.91 1367.8 1111.16 1369.24 1108.83 1369.25 1108.81 1369.3 1108.82 1375.28 1099.15 1381.56 1089.02 1381.13 1089.65 1380.8 1089.65 1381.17 1089.02 1381.23 1088.93 1383.66 1084.77 1387.7 1077.48 1391.88 1069.65 1392.6 1068.41 1393.78 1066.02 1393.81 1065.98 1398.08 1057.33 1399.74 1053.78 1401.95 1048.99 1404.98 1042.39 1405 1042.35 1405.38 1041.53 1408.78 1033.5 1411.24 1027.49 1413 1023.17 1414.9 1018.12 1414.91 1018.1 1417.22 1011.94 1418.02 1009.68 1419.51 1005.34 1419.52 1005.31 1422.65 996.18 1423.53 993.41 1423.54 993.39 1425.96 985.75 1426.84 982.76 1426.84 982.75 1428.8 976.09 1430.9 968.29 1430.92 968.27 1431.71 965.31 1433.11 959.56 1433.11 959.53 1435.52 949.55 1436.95 942.74 1436.95 942.72 1438.34 936.13 1438.36 936.1 1438.63 934.77 1439.59 929.42 1441.62 917.61 1441.71 916.97 1441.71 916.96 1442.35 912.07 1442.35 912.04 1443.73 901.64 1444.86 890.99 1444.86 890.98 1445.17 888.01 1445.18 887.93 1445.42 885.66 1446.68 869.48 1446.86 865.01 1446.91 863.74 1446.91 863.67 1447.32 853.3 1447.49 839.46 1447.5 838.62 1447.5 838.54 1447.53 837.12 1447.14 822.32"/><polygon class="cls-6" points="1247.52 1026.54 1251.5 1020.24 1257.09 1010.45 1257.09 1010.44 1258.55 1007.9 1258.57 1007.85 1258.67 1007.68 1264.52 996.61 1264.52 996.6 1265.42 994.9 1268.38 988.51 1268.39 988.48 1271.24 982.35 1271.24 982.33 1271.53 981.7 1277.13 968.5 1277.22 968.29 1277.61 967.23 1277.61 967.21 1278.48 964.89 1283.12 951.9 1283.46 950.97 1284.46 947.84 1284.47 947.82 1285.61 944.26 1287.97 935.92 1288.47 934.27 1290.44 926.98 1290.7 926.98 1044.52 496.01 960 348.03 960 496.02 1211.2 935.84 1211.25 935.92 1206.53 947.84 1206.53 947.85 1204.93 951.9 1197.33 967.23 1196.7 968.5 1188.9 982.35 1184.9 988.51 1179.63 996.61 1176.68 1000.65 1171.41 1007.9 1169.3 1010.45 1178.58 1026.63 1180.87 1030.64 1188.93 1044.73 1188.95 1044.75 1191.22 1048.72 1198.81 1061.77 1203.24 1069.65 1207.93 1077.89 1208.08 1078.16 1222.41 1061.77 1215.46 1069.65 1215.28 1069.65 1215.34 1069.59 1217.57 1067.08 1222.02 1061.77 1222.14 1061.63 1226.84 1056.02 1235.32 1044.73 1235.4 1044.63 1235.48 1044.51 1243.7 1032.59 1247.47 1026.63 1247.52 1026.54"/><polygon class="cls-4" points="752.38 1203.79 747.22 1200.53 746.34 1200.01 752.38 1203.79"/><polygon class="cls-4" points="937.54 1185.05 929.71 1184.45 929.23 1184.42 926.54 1184.42 932.18 1185.05 939.5 1185.2 937.54 1185.05"/><polygon class="cls-4" points="971.78 812.42 960 791.78 960 791.77 948.62 812.42 948.71 812.42 948.68 812.5 869.88 956.76 777.04 1126.92 774.81 1130.81 775.08 1130.97 775.09 1130.98 786.53 1137.99 786.89 1138.2 786.9 1138.2 793.29 1141.83 793.31 1141.84 798.54 1144.81 805.46 1148.42 810.77 1151.2 811.69 1151.62 811.71 1151.63 823.2 1156.95 824.22 1157.38 831.29 1160.36 831.33 1160.37 835.85 1162.27 843.8 1165.25 848.92 1167.17 850.87 1167.81 850.92 1167.82 861.99 1171.42 864.36 1172.07 864.38 1172.08 871.33 1173.97 871.43 1174 875.27 1175.05 884.99 1177.38 885.03 1177.39 888.55 1178.24 891.9 1178.87 892.05 1178.9 902.03 1180.79 906.18 1181.44 906.29 1181.45 914.33 1182.71 914.78 1182.77 911.3 1182.71 926.52 1184.42 926.27 1184.42 932.18 1185.05 926.54 1184.42 929.23 1184.42 929.71 1184.45 937.54 1185.05 939.5 1185.2 932.18 1185.05 948.62 1185.91 948.96 1185.91 953.05 1186.11 960 1186.05 974.12 1185.91 994.99 1184.42 991.03 1184.42 991.74 1184.35 997.94 1183.77 1005.57 1182.71 1005.75 1182.68 1011.64 1181.86 1014.1 1181.44 1014.28 1181.4 1025.13 1179.52 1028.06 1178.87 1028.08 1178.87 1034.81 1177.38 1034.95 1177.35 1038.62 1176.54 1048.61 1173.97 1048.63 1173.97 1051.9 1173.13 1055.33 1172.07 1055.41 1172.04 1064.97 1169.08 1068.68 1167.81 1068.7 1167.8 1076.14 1165.25 1076.18 1165.24 1078.03 1164.61 1088.73 1160.36 1088.74 1160.36 1090.89 1159.5 1095.74 1157.38 1095.77 1157.36 1101.66 1154.79 1105.29 1153.08 1108.17 1151.62 1108.18 1151.62 1114.5 1148.42 1114.54 1148.4 1115.76 1147.79 1126.81 1141.83 1126.82 1141.83 1127.99 1141.19 1133.01 1138.2 1133.03 1138.19 1139.79 1134.16 1144.75 1130.97 1151.05 1126.92 1151.28 1126.77 1151.3 1126.76 971.78 812.42"/><polygon class="cls-4" points="1224.74 1255.11 1223.88 1253.62 1223.72 1253.32 1197.9 1208.2 1195.37 1203.79 1195.21 1203.49 1188.67 1192.07 1188.69 1192.07 1188.07 1191.01 1186.38 1191.95 1186.19 1192.07 1186.35 1192.07 1186.22 1192.15 1181.73 1194.93 1186.17 1192.09 1186.16 1192.07 1170.19 1202.05 1170.73 1201.73 1167.4 1203.79 1170.19 1202.05 1163.85 1205.76 1162.13 1206.77 1157.05 1209.54 1148.85 1214.01 1135.59 1220.51 1135.12 1220.73 1121.45 1226.79 1107.55 1232.54 1093.42 1237.64 1078.87 1242.33 1064.54 1246.38 1051.07 1249.68 1049.79 1249.99 1039.95 1251.98 1035.04 1252.98 1025.02 1254.69 1024.23 1254.82 1022.58 1255.11 1022.57 1255.11 1020.07 1255.53 1016.6 1255.98 1008.27 1257.23 999.87 1257.98 990.14 1258.94 986.63 1259.14 984.02 1259.37 981.26 1259.45 975.17 1259.79 960 1260.01 960 1260.01 944.82 1259.79 938.89 1259.45 935.76 1259.37 932.86 1259.11 929.85 1258.94 920.73 1258.03 911.73 1257.23 903.4 1255.98 899.93 1255.53 897.42 1255.11 895.77 1254.82 887.91 1253.62 879.88 1251.95 870.21 1249.99 868.98 1249.69 855.45 1246.38 841.12 1242.33 826.58 1237.64 812.45 1232.54 798.54 1226.79 784.77 1220.67 784.5 1220.55 771.14 1214.01 757.86 1206.77 747.22 1200.53 752.38 1203.79 746.34 1200.01 747.22 1200.53 733.83 1192.07 733.81 1192.07 733.62 1191.95 731.93 1191.01 731.33 1192.07 731.32 1192.09 731.3 1192.07 724.56 1203.79 724.63 1203.79 724.62 1203.8 722.1 1208.2 696.28 1253.32 696.12 1253.62 695.26 1255.11 695.82 1255.11 699.1 1257.23 698.64 1257.23 700.52 1258.35 702.22 1259.37 702.4 1259.37 703.37 1260.01 703.38 1260.01 705.83 1261.59 711 1264.8 717.37 1268.52 717.4 1268.53 722.87 1271.72 739.32 1280.66 739.94 1280.66 739.98 1280.68 751.33 1286.41 763.06 1291.73 763.12 1291.76 765.87 1293.01 780.63 1299.18 786.73 1301.53 786.78 1301.55 785.9 1301.53 809.92 1310.04 809.98 1310.04 810.28 1310.15 815.54 1311.77 825.94 1314.94 835.66 1317.49 835.83 1317.54 841.34 1318.98 856.93 1322.82 860.26 1323.45 860.44 1323.49 859.04 1323.45 883.91 1328.14 885.91 1328.14 886.24 1328.2 883.91 1328.14 903.81 1330.65 904.23 1330.71 910.98 1331.33 911.73 1331.4 909.2 1331.33 934.5 1333.47 960 1334.1 960 1334.1 985.5 1333.47 978.59 1333.47 981.42 1333.36 985.5 1333.47 1010.8 1331.33 1009.02 1331.33 1009.4 1331.3 1015.65 1330.72 1016.76 1330.58 1035.88 1328.14 1034.09 1328.14 1034.33 1328.1 1035.88 1328.14 1060.96 1323.45 1059.74 1323.45 1059.9 1323.42 1060.96 1323.45 1085.62 1317.49 1093.64 1315.05 1109.73 1310.15 1110.03 1310.04 1110.08 1310.04 1134.1 1301.53 1133.27 1301.53 1133.33 1301.51 1134.1 1301.53 1157.7 1291.73 1156.93 1291.73 1156.97 1291.71 1157.7 1291.73 1168.34 1286.56 1168.67 1286.41 1169.26 1286.11 1180.06 1280.66 1180.08 1280.65 1183 1279.17 1194.76 1272.97 1197.71 1271.38 1202.62 1268.52 1202.63 1268.51 1207.85 1265.47 1216.52 1260.01 1216.97 1259.78 1217.6 1259.37 1220.9 1257.23 1221.15 1257.23 1217.78 1259.37 1216.97 1259.78 1212.68 1262.55 1224.74 1255.11"/><polygon class="cls-5" points="960 348.02 955.15 356.32 955.25 356.32 955.21 356.4 889.01 472.3 885.94 477.66 875.48 496.01 870.84 504.31 629.28 926.98 629.56 926.98 629.57 927.01 631.97 935.92 631.98 935.94 632.77 938.88 633.83 942.52 635.54 947.84 635.54 947.85 636.83 951.9 636.84 951.93 637.23 953.12 638.36 956.37 642.39 967.23 642.78 968.29 642.87 968.5 642.89 968.55 648.47 981.7 648.76 982.35 648.77 982.36 651.62 988.51 651.65 988.56 654.58 994.9 655.48 996.61 655.49 996.62 661.33 1007.68 661.45 1007.9 661.46 1007.91 662.91 1010.45 662.95 1010.52 668.5 1020.24 672.53 1026.63 672.64 1026.81 676.29 1032.59 684.51 1044.51 684.68 1044.73 684.89 1045.01 693.15 1056.02 697.97 1061.77 698.18 1062.02 697.58 1061.77 711.92 1078.16 712.07 1077.89 716.76 1069.65 721.19 1061.77 724.49 1056.1 730.96 1044.73 730.98 1044.7 741.27 1026.63 741.28 1026.6 750.48 1010.45 748.59 1007.9 743.32 1000.65 743.22 1000.51 740.37 996.61 735.1 988.51 731.09 982.35 723.29 968.5 722.67 967.23 715.07 951.9 713.47 947.84 713.46 947.82 708.75 935.92 708.79 935.84 960 496.01 960 496.02 960 348.03 960 348.02"/><polygon class="cls-4" points="663.64 1133.95 662.45 1132.67 662.44 1132.66 660.97 1131.08 657.11 1127.13 654.57 1124.22 654.47 1124.11 654.29 1123.9 653.53 1123.09 651.04 1120.2 643.13 1111.16 641.1 1108.83 634.91 1100.8 634.9 1100.79 634.35 1100.1 633 1098.31 632.83 1098.09 626.34 1089.65 625.7 1089.02 612.64 1069.65 610.32 1066.02 599.99 1048.99 596.49 1042.39 596.48 1042.37 588.61 1027.49 584.39 1018.12 578.7 1005.34 576.68 1000.22 575.33 997.04 573.98 993.41 573.96 993.4 572.98 990.75 569.85 982.76 565.11 968.29 565.11 968.28 562.26 959.56 557.87 942.74 557.87 942.73 556.15 936.13 554.04 925.49 552.36 916.97 551.51 912.07 548.35 890.99 548.14 888.01 547.57 881.75 547.5 881.2 547.46 880.61 546.04 865.01 546.04 863.74 545.4 839.46 545.4 838.62 546.24 815.19 546.45 812.42 548.35 790.91 548.98 786.44 551.93 766.85 553.2 760.47 556.99 743.01 559.1 734.71 559.27 734.07 559.52 733 560.68 729.02 563.32 719.59 565.81 711.96 566.62 709.36 566.63 709.35 568.17 704.47 569.19 701.64 570.91 696.37 572.93 691.2 573.22 690.41 573.77 689.07 575.66 684.24 575.67 684.23 579.76 673.8 584.13 664.52 584.81 662.94 586.48 659.53 586.55 659.37 590.08 651.88 591.35 649.53 591.67 648.93 598.31 636.33 598.81 635.47 598.81 635.46 600.29 632.93 600.37 632.8 601.67 630.37 604.29 626.07 605.89 623.33 609.92 616.85 612.85 612.05 614.33 609.72 617.55 605.12 622.12 598.43 628.19 589.9 628.34 589.7 628.66 589.06 629.92 587.47 630.76 586.29 640.04 574.58 641.51 572.87 643.2 570.74 646.57 566.91 648.52 564.71 649.74 563.29 654.1 558.42 654.86 557.57 659.22 552.64 659.64 552.22 659.86 552 666.04 545.62 666.05 545.61 669.97 541.58 673.47 538.25 673.49 538.22 676.29 535.4 679.49 532.51 679.75 532.27 680.71 531.35 682.49 529.8 687.84 524.97 687.85 524.97 694.21 519.21 701.09 513.81 703.27 511.97 707.68 508.64 711.83 505.38 713.18 504.31 718.81 500.31 727.09 494.3 729.45 492.76 732.99 490.26 738.87 486.64 738.9 486.62 739.53 486.21 752.17 478.33 753.32 477.69 753.33 477.68 765.03 471.09 769.18 468.97 769.19 468.96 774.57 466.2 774.59 466.19 778.3 464.28 791.58 458.1 793.4 457.31 796.64 455.76 799.66 454.58 804.78 452.36 804.86 452.32 805.29 452.14 818.43 447.03 818.51 447 818.98 447.03 824.82 436.81 824.84 436.8 833.11 422.34 840.64 409.13 840.66 409.12 842.36 406.14 847.44 396.99 853.55 386.35 859.04 376.77 863.68 368.67 867.67 361.86 870.84 356.32 855.03 359.51 847.58 361.38 845.63 361.86 845.46 361.9 842.4 362.66 821.73 368.32 820.61 368.67 820.55 368.69 818.16 369.43 800.69 375.16 796.11 376.77 796.01 376.8 793.7 377.61 792.55 378.06 772.42 386 771.61 386.35 771.6 386.35 770.94 386.63 751.22 395.51 749.43 396.36 748.17 396.99 748.13 397.02 743.3 399.46 724.98 409.13 710.38 417.68 707.27 419.56 702.81 422.34 702.75 422.37 697.82 425.44 680.93 436.81 667.23 447.03 661.82 451.04 661.76 451.1 660.16 452.36 657.95 454.11 655.95 455.76 655.92 455.79 644.23 465.49 643.41 466.2 641.82 467.51 640.2 468.97 640.18 468.98 631.68 476.67 630.58 477.69 630 478.23 621.19 486.64 621.18 486.65 618.96 488.77 617.48 490.26 617.46 490.28 612.12 495.68 606.72 501.25 606.13 501.86 606.07 501.95 603.93 504.31 602.97 505.38 602.94 505.41 596.83 512.19 590.73 519.21 590.72 519.23 586.29 524.33 585.77 524.97 585.76 524.98 582.43 529.12 577.57 535.4 577.56 535.41 570.29 544.78 569.66 545.62 569.1 546.36 568.93 546.59 564.63 552.64 564.63 552.65 558.15 561.73 557.2 563.08 554.77 566.91 554.77 566.92 552.34 570.74 552.31 570.79 548.56 576.7 540.92 589.06 540.39 589.9 540.38 589.92 540.13 590.33 532.35 604.35 532.33 604.39 529.54 609.72 528.32 612.05 528.3 612.09 525.5 617.43 519.64 629.5 519.23 630.37 519.22 630.37 519.22 630.38 517.79 633.35 516.86 635.47 516.85 635.5 513.33 643.5 510.29 650.68 509.81 651.88 506.79 659.53 506.76 659.6 505.36 663.16 501.35 673.8 501.31 673.89 499.3 679.45 497.8 684.24 497.78 684.28 494.81 693.82 494.05 696.37 494.04 696.38 490.18 709.16 490.13 709.36 490.13 709.39 487.53 719.59 487.52 719.61 486.17 724.91 483.95 734.71 483.94 734.74 482.59 740.67 482.54 740.91 482.17 743.01 481.81 744.91 479.64 756.63 479.04 760.47 479.03 760.49 478.02 766.85 478.02 766.88 477.45 770.49 476.89 774.47 475.46 786.44 475.46 786.45 475.21 788.57 474.99 790.91 474.99 790.98 473.73 804.75 473.34 812.42 473.33 812.43 473.19 815.19 473.19 815.23 472.89 820.85 472.89 821.07 472.47 837.12 472.5 838.62 472.51 839.46 472.51 839.55 472.68 853.3 473.09 863.74 473.14 865.01 473.14 865.09 473.32 869.48 474.58 885.66 474.83 888.01 474.83 888.02 475.14 890.99 475.15 891.09 476.26 901.64 477.63 912.07 477.63 912.08 478.28 916.97 478.29 917 478.37 917.61 480.27 928.74 481.38 934.85 481.64 936.13 481.64 936.14 483.05 942.74 483.06 942.79 484.48 949.55 486.89 959.56 486.89 959.57 488.27 965.31 489.08 968.29 489.11 968.37 492.49 980.86 493.09 982.76 493.11 982.78 496.47 993.41 496.49 993.47 496.49 993.48 497.35 996.18 500.49 1005.34 500.5 1005.38 502.62 1011.51 505.1 1018.12 505.11 1018.16 507.82 1025.37 507.85 1025.45 508.73 1027.49 510.43 1031.64 510.54 1031.89 514.62 1041.53 515.02 1042.39 515.02 1042.4 518.05 1048.99 518.05 1049.01 520.26 1053.78 520.44 1054.19 521.91 1057.32 521.92 1057.33 526.22 1066.02 526.23 1066.03 527.43 1068.48 527.44 1068.5 528.11 1069.65 531.98 1076.9 532.13 1077.17 536.34 1084.77 538.83 1089.02 539.2 1089.65 539.24 1089.72 544.56 1098.81 550.75 1108.83 552.19 1111.16 552.22 1111.2 552.98 1112.44 558.55 1120.68 563.05 1127.13 563.05 1127.15 564.25 1128.86 567.03 1132.67 567.04 1132.68 570.34 1137.2 570.47 1137.39 572.81 1140.49 572.91 1140.62 573.45 1141.32 575.83 1144.38 575.84 1144.39 581.45 1151.62 583.05 1153.54 583.15 1153.65 583.15 1153.66 591.77 1163.97 600.05 1173.34 600.32 1173.63 602.31 1175.89 613.48 1187.6 617.9 1192.07 618.13 1192.31 621.41 1195.61 629.97 1203.79 630.64 1204.42 636.67 1210.17 659.39 1170.11 659.68 1169.6 668.78 1153.54 668.79 1153.53 673.98 1144.38 667.76 1138.03 663.64 1133.95"/><path class="cls-6" d="M780.37,1632.78a23.92,23.92,0,0,0-3.36-2.5,41.24,41.24,0,0,0-5.92-3.09,51.93,51.93,0,0,0-7.56-2.56,33.17,33.17,0,0,0-8.29-1.05q-7.5,0-11.18,2.76a9.13,9.13,0,0,0-3.69,7.76,8,8,0,0,0,1.38,4.8,12,12,0,0,0,4,3.36,33.82,33.82,0,0,0,6.64,2.63c2.67.79,5.77,1.62,9.27,2.49q6.84,1.84,12.44,3.95a34.11,34.11,0,0,1,9.47,5.26,21.81,21.81,0,0,1,6,7.57,25,25,0,0,1,2.11,10.85,27.1,27.1,0,0,1-2.83,12.83,23.9,23.9,0,0,1-7.63,8.62,33.28,33.28,0,0,1-11.05,4.8,55.93,55.93,0,0,1-13.09,1.51,70.2,70.2,0,0,1-20.79-3.16,63.88,63.88,0,0,1-18.41-8.94l8-15.66a25.38,25.38,0,0,0,4.28,3.09,63.29,63.29,0,0,0,7.3,3.82,56.11,56.11,0,0,0,9.34,3.22,42.07,42.07,0,0,0,10.52,1.32q15,0,15-9.61a7.9,7.9,0,0,0-1.71-5.13,14.47,14.47,0,0,0-4.87-3.68,46.09,46.09,0,0,0-7.63-2.89q-4.47-1.32-10-2.9a85.06,85.06,0,0,1-11.64-4,30.69,30.69,0,0,1-8.22-5.13,19.12,19.12,0,0,1-4.93-6.84,23.65,23.65,0,0,1-1.65-9.28,29.14,29.14,0,0,1,2.63-12.63,25.69,25.69,0,0,1,7.3-9.21,33.36,33.36,0,0,1,10.86-5.59,44.88,44.88,0,0,1,13.28-1.9,51.63,51.63,0,0,1,18.16,3.09,67.47,67.47,0,0,1,14.47,7.3Z"/><path class="cls-6" d="M874.56,1624.23H844.69v77.49h-18v-77.49H796.81v-15.92h77.75Z"/><path class="cls-6" d="M925.6,1686.33a20.79,20.79,0,0,0,10.85-2.64,21.17,21.17,0,0,0,7.11-6.84,28.36,28.36,0,0,0,3.81-9.67,55.44,55.44,0,0,0,1.12-11.24v-47.63h18v47.63a68.26,68.26,0,0,1-2.3,18,41.43,41.43,0,0,1-7.24,14.73,34.64,34.64,0,0,1-12.69,10q-7.77,3.69-18.55,3.69-11.19,0-19-3.89A35.26,35.26,0,0,1,894,1688.23a40.68,40.68,0,0,1-7-14.8,69.61,69.61,0,0,1-2.17-17.49v-47.63H903v47.63a56.32,56.32,0,0,0,1.12,11.38,28.19,28.19,0,0,0,3.81,9.66,19.8,19.8,0,0,0,17.7,9.35Z"/><path class="cls-6" d="M984.8,1701.72v-93.41h33.94a50.6,50.6,0,0,1,20.06,3.69,40.32,40.32,0,0,1,23.09,24.8,55.57,55.57,0,0,1,2.89,18.08,54.68,54.68,0,0,1-3.22,19.28,41.24,41.24,0,0,1-9.27,14.73,41.77,41.77,0,0,1-14.54,9.47,51.29,51.29,0,0,1-19,3.36Zm61.7-46.84a39.65,39.65,0,0,0-1.85-12.36,27.54,27.54,0,0,0-5.39-9.74,24.06,24.06,0,0,0-8.75-6.31,29.52,29.52,0,0,0-11.77-2.24H1003v61.57h15.79a28.37,28.37,0,0,0,11.9-2.37,24.44,24.44,0,0,0,8.69-6.51,28.87,28.87,0,0,0,5.32-9.8A39.25,39.25,0,0,0,1046.5,1654.88Z"/><path class="cls-6" d="M1079,1701.72v-93.41h18.15v93.41Z"/><path class="cls-6" d="M1156.47,1702.38a42.36,42.36,0,0,1-18.61-4,45.6,45.6,0,0,1-14.34-10.65A49.48,49.48,0,0,1,1111,1655a47,47,0,0,1,3.48-17.89,49.3,49.3,0,0,1,9.61-15.13,45.7,45.7,0,0,1,14.53-10.46,43.11,43.11,0,0,1,18.29-3.88,41,41,0,0,1,18.48,4.14,46.22,46.22,0,0,1,14.28,10.85,50.12,50.12,0,0,1,9.2,15.26,47.91,47.91,0,0,1,3.29,17.37,47.17,47.17,0,0,1-3.42,17.82,48.43,48.43,0,0,1-9.47,15,45.43,45.43,0,0,1-14.47,10.39A43.11,43.11,0,0,1,1156.47,1702.38Zm-27.1-47.36a37.49,37.49,0,0,0,1.85,11.7,31,31,0,0,0,5.32,10,26.48,26.48,0,0,0,8.55,7,26.45,26.45,0,0,0,23.16-.06,26.69,26.69,0,0,0,8.55-7.17,32,32,0,0,0,5.26-10.06,37.21,37.21,0,0,0,1.78-11.38,36.42,36.42,0,0,0-1.91-11.71,32.3,32.3,0,0,0-5.39-10,25.74,25.74,0,0,0-8.56-6.91,26.68,26.68,0,0,0-23.08.13,26,26,0,0,0-8.55,7.11,31.63,31.63,0,0,0-5.2,10A37.51,37.51,0,0,0,1129.37,1655Z"/></g></svg>