<svg xmlns="http://www.w3.org/2000/svg" viewBox="0 0 1920 1920"><defs><style>.cls-1{fill:#9a7a69;}.cls-2{fill:#8b0013;}.cls-3{fill:#322b29;}.cls-4{fill:#333;}.cls-5{fill:#890000;}.cls-6{fill:#510303;}</style></defs><title>iconCuadrado copy 6</title><g id="Layer_3" data-name="Layer 3"><polygon class="cls-1" points="959.64 932.15 960.36 932.15 959.68 932.13 959.64 932.15"/><polygon class="cls-2" points="959.62 932.15 960.38 932.15 959.67 932.13 959.62 932.15"/><polygon class="cls-3" points="959.45 932.16 960.55 932.16 959.59 932.13 959.45 932.16"/><polygon class="cls-3" points="956.85 932.2 963.15 932.2 959.43 932.1 956.85 932.2"/><polygon class="cls-3" points="959.18 932.16 960.82 932.16 959.4 932.13 959.18 932.16"/><polygon class="cls-4" points="961.91 930.99 961.68 930.99 958.67 932.93 958.09 933.3 958.83 932.93 961.91 930.99"/><polygon class="cls-2" points="960.76 932.12 958.94 932.12 961.06 932.17 960.76 932.12"/><path class="cls-5" d="M466.45,923.79H411.51v142.57H378.34V923.79H323.4V894.5H466.45Z"/><path class="cls-5" d="M487.75,1066.36V894.5h76a48.73,48.73,0,0,1,21.9,5A56.44,56.44,0,0,1,603,912.54a61.85,61.85,0,0,1,11.38,18.39,55.41,55.41,0,0,1,4.11,20.7A57.15,57.15,0,0,1,610.11,982a48,48,0,0,1-22.63,19.72l39.21,64.63H589.17l-35.09-57.61H521.16v57.61Zm33.41-86.9H563a17.55,17.55,0,0,0,8.59-2.18,21.78,21.78,0,0,0,6.9-5.92,29.61,29.61,0,0,0,4.6-8.84,34.22,34.22,0,0,0,1.7-10.89,31.11,31.11,0,0,0-1.94-11.14,29.14,29.14,0,0,0-5.2-8.83,23.62,23.62,0,0,0-7.51-5.81,19.5,19.5,0,0,0-8.59-2.06H521.16Z"/><path class="cls-5" d="M648.72,1066.36V894.5h33.4v171.86Z"/><path class="cls-4" d="M858.1,1066.36V952.6l-44.3,84.72H795.64L751.35,952.6v113.76H718V894.5h35.82l50.83,97.79,51.32-97.79H891.5v171.86Z"/><path class="cls-4" d="M1046.66,1037.07v29.29H927.32V894.5h117.16v29.29H960.73v41.39h72.37v27.11H960.73v44.78Z"/><path class="cls-4" d="M1201.33,923.79h-54.95v142.57h-33.16V923.79h-55V894.5h143.06Z"/><path class="cls-4" d="M1222.63,1066.36V894.5h76a48.78,48.78,0,0,1,21.91,5,56.56,56.56,0,0,1,17.31,13.07,61.61,61.61,0,0,1,11.37,18.39,55.23,55.23,0,0,1,4.12,20.7A57.24,57.24,0,0,1,1345,982a48,48,0,0,1-22.63,19.72l39.21,64.63h-37.52l-35.1-57.61H1256v57.61Zm33.4-86.9h41.88a17.58,17.58,0,0,0,8.59-2.18,22,22,0,0,0,6.9-5.92,29.85,29.85,0,0,0,4.6-8.84,34.22,34.22,0,0,0,1.69-10.89,31.1,31.1,0,0,0-1.93-11.14,29.16,29.16,0,0,0-5.21-8.83,23.58,23.58,0,0,0-7.5-5.81,19.53,19.53,0,0,0-8.59-2.06H1256Z"/><path class="cls-4" d="M1383.59,1066.36V894.5H1417v171.86ZM1408.53,880l-20.82-6.29,13.07-28.81H1431Z"/><path class="cls-4" d="M1501.72,894.5h29.53l65.35,171.86h-34.37l-16-42.84h-60l-15.74,42.84h-34.37ZM1540.2,1000l-23.72-67.54L1491.79,1000Z"/><path class="cls-6" d="M786.37,1127.11a23.92,23.92,0,0,0-3.36-2.5,41.24,41.24,0,0,0-5.92-3.09,51.93,51.93,0,0,0-7.56-2.57,33.17,33.17,0,0,0-8.29-1q-7.5,0-11.18,2.77a9.12,9.12,0,0,0-3.69,7.76,8,8,0,0,0,1.38,4.8,11.86,11.86,0,0,0,4,3.35,33.79,33.79,0,0,0,6.64,2.64c2.67.78,5.77,1.62,9.27,2.49q6.84,1.85,12.44,4a33.85,33.85,0,0,1,9.47,5.26,21.81,21.81,0,0,1,6,7.57,25,25,0,0,1,2.11,10.85,27.13,27.13,0,0,1-2.83,12.83,23.79,23.79,0,0,1-7.63,8.61,33.09,33.09,0,0,1-11.05,4.81,55.93,55.93,0,0,1-13.09,1.51,70.2,70.2,0,0,1-20.79-3.16,64.14,64.14,0,0,1-18.41-8.94l8-15.66a25.38,25.38,0,0,0,4.28,3.09,64.9,64.9,0,0,0,7.3,3.82,56.11,56.11,0,0,0,9.34,3.22,42.07,42.07,0,0,0,10.52,1.32q15,0,15-9.61a7.9,7.9,0,0,0-1.71-5.13,14.47,14.47,0,0,0-4.87-3.68,47,47,0,0,0-7.63-2.9q-4.47-1.31-10-2.89a86.43,86.43,0,0,1-11.64-4,30.69,30.69,0,0,1-8.22-5.13,19.29,19.29,0,0,1-4.93-6.84,23.65,23.65,0,0,1-1.65-9.28,29.1,29.1,0,0,1,2.63-12.63,25.69,25.69,0,0,1,7.3-9.21,33.36,33.36,0,0,1,10.86-5.59,44.87,44.87,0,0,1,13.28-1.91,51.63,51.63,0,0,1,18.16,3.1,67.47,67.47,0,0,1,14.47,7.3Z"/><path class="cls-6" d="M880.56,1118.56H850.69v77.49h-18v-77.49H802.81v-15.92h77.75Z"/><path class="cls-6" d="M931.6,1180.65a20.79,20.79,0,0,0,10.85-2.63,21.17,21.17,0,0,0,7.11-6.84,28.45,28.45,0,0,0,3.81-9.67,55.51,55.51,0,0,0,1.12-11.24v-47.63h18v47.63a68.26,68.26,0,0,1-2.3,18A41.43,41.43,0,0,1,963,1183a34.64,34.64,0,0,1-12.69,10q-7.77,3.69-18.55,3.68-11.19,0-19-3.88A35.26,35.26,0,0,1,900,1182.56a40.68,40.68,0,0,1-7-14.8,69.61,69.61,0,0,1-2.17-17.49v-47.63H909v47.63a56.15,56.15,0,0,0,1.12,11.37,28.24,28.24,0,0,0,3.81,9.67,19.76,19.76,0,0,0,17.7,9.34Z"/><path class="cls-6" d="M990.8,1196.05v-93.41h33.94a50.6,50.6,0,0,1,20.06,3.69,40.27,40.27,0,0,1,23.09,24.79,55.67,55.67,0,0,1,2.89,18.09,54.68,54.68,0,0,1-3.22,19.28,41.24,41.24,0,0,1-9.27,14.73,41.77,41.77,0,0,1-14.54,9.47,51.29,51.29,0,0,1-19,3.36Zm61.7-46.84a39.65,39.65,0,0,0-1.85-12.36,27.54,27.54,0,0,0-5.39-9.74,23.94,23.94,0,0,0-8.75-6.31,29.52,29.52,0,0,0-11.77-2.24H1009v61.57h15.79a28.37,28.37,0,0,0,11.9-2.37,24.44,24.44,0,0,0,8.69-6.51,28.87,28.87,0,0,0,5.32-9.8A39.25,39.25,0,0,0,1052.5,1149.21Z"/><path class="cls-6" d="M1085,1196.05v-93.41h18.15v93.41Z"/><path class="cls-6" d="M1162.47,1196.7a42.35,42.35,0,0,1-18.61-4,45.6,45.6,0,0,1-14.34-10.65,49.48,49.48,0,0,1-12.56-32.7,47,47,0,0,1,3.48-17.89,49.54,49.54,0,0,1,9.61-15.13,45.86,45.86,0,0,1,14.53-10.46,43.26,43.26,0,0,1,18.29-3.88,41,41,0,0,1,18.48,4.15,46.22,46.22,0,0,1,14.28,10.85,50,50,0,0,1,9.2,15.26,47.87,47.87,0,0,1,3.29,17.37,47.17,47.17,0,0,1-3.42,17.82,48.43,48.43,0,0,1-9.47,15,45.43,45.43,0,0,1-14.47,10.39A43.11,43.11,0,0,1,1162.47,1196.7Zm-27.1-47.36a37.5,37.5,0,0,0,1.85,11.71,31.14,31.14,0,0,0,5.32,10,26.48,26.48,0,0,0,8.55,7,26.54,26.54,0,0,0,23.16-.06,26.69,26.69,0,0,0,8.55-7.17,31.94,31.94,0,0,0,5.26-10.07,37.16,37.16,0,0,0,1.78-11.38,36.41,36.41,0,0,0-1.91-11.7,32.3,32.3,0,0,0-5.39-10,25.74,25.74,0,0,0-8.56-6.91,26.68,26.68,0,0,0-23.08.13,26,26,0,0,0-8.55,7.11,31.69,31.69,0,0,0-5.2,10A37.56,37.56,0,0,0,1135.37,1149.34Z"/></g></svg>