<svg xmlns="http://www.w3.org/2000/svg" viewBox="0 0 68 68"><defs><style>.cls-1{fill:#333;}.cls-2{fill:#510303;}.cls-3{fill:#890000;}</style></defs><title>iconArtboard 13 copy 14</title><g id="Layer_3" data-name="Layer 3"><polygon class="cls-1" points="47.83 57.41 47.8 57.43 47.61 57.54 47.83 57.41"/><polygon class="cls-1" points="65.97 32.78 65.97 32.77 65.97 32.66 65.97 32.64 65.95 32.32 65.94 32.14 65.94 32.14 65.92 31.74 65.92 31.74 65.83 30.75 65.83 30.74 65.82 30.59 65.8 30.45 65.8 30.45 65.71 29.68 65.71 29.67 65.68 29.43 65.67 29.42 65.64 29.18 65.64 29.18 65.57 28.77 65.57 28.77 65.53 28.52 65.44 28.03 65.36 27.64 65.36 27.64 65.29 27.27 65.25 27.1 65.25 27.1 65.16 26.7 65.04 26.21 65.01 26.12 65.01 26.11 64.84 25.45 64.84 25.45 64.84 25.44 64.58 24.61 64.58 24.61 64.53 24.44 64.34 23.82 64.34 23.82 64.24 23.5 64.23 23.5 64.12 23.19 64.12 23.18 64.1 23.14 63.84 22.45 63.75 22.22 63.75 22.22 63.55 21.72 63.55 21.72 63.51 21.62 63.51 21.62 63.5 21.61 63.35 21.24 63.34 21.23 63.33 21.21 63.09 20.66 63.09 20.66 63.03 20.52 63.03 20.52 62.93 20.32 62.5 19.45 62.5 19.45 62.33 19.14 62.26 18.98 62.25 18.98 62.08 18.65 62.07 18.64 61.98 18.48 61.94 18.4 61.93 18.39 61.56 17.73 61.54 17.7 61.51 17.64 61.51 17.64 61.01 16.84 60.76 16.45 60.76 16.45 60.6 16.21 60.6 16.21 60.54 16.12 59.95 15.28 59.95 15.28 59.65 14.86 59.58 14.77 59.1 14.16 59.1 14.16 58.77 13.73 58.56 13.48 58.56 13.48 58.53 13.44 58.24 13.11 58.24 13.11 57.84 12.65 57.44 12.21 57.43 12.21 57.37 12.14 57.37 12.14 57.37 12.14 57.23 11.99 57.23 11.99 57.23 11.98 57.19 11.95 57.14 11.89 56.83 11.58 56.48 11.23 56.48 11.23 56.38 11.13 56.24 11 56.24 11 55.86 10.64 55.85 10.63 55.85 10.63 55.61 10.42 55.27 10.1 55.26 10.1 54.99 9.85 54.88 9.75 54.88 9.75 54.78 9.67 54.71 9.61 54.7 9.61 53.96 8.99 53.96 8.99 53.83 8.89 53.68 8.77 53.59 8.7 53.58 8.69 53.57 8.69 53.56 8.68 53.22 8.43 52.32 7.76 51.06 6.94 51.06 6.93 51.05 6.93 50.88 6.82 50.88 6.82 50.66 6.68 50.65 6.68 50.65 6.68 49.43 5.97 48.22 5.34 48.21 5.33 47.9 5.18 47.9 5.18 47.9 5.18 47.82 5.14 47.74 5.1 47.74 5.1 47.72 5.09 46.43 4.51 46.41 4.51 46.37 4.49 46.36 4.49 46.33 4.47 46.32 4.47 46.31 4.46 45.9 4.29 45.03 3.97 45.8 4.26 45.02 3.96 44.99 3.95 44.92 3.92 44.76 3.87 44.75 3.86 44.48 3.77 44.46 3.76 43.92 3.58 43.31 3.39 43.31 3.39 43.31 3.39 43.15 3.34 43.14 3.34 43.14 3.34 43.08 3.32 43.08 3.32 42.92 3.27 41.9 3 41.57 2.91 41.56 2.91 41.51 2.9 41.48 2.89 41.48 2.89 41.47 2.89 40.89 2.75 39.85 2.54 40.06 2.9 40.06 2.9 40.06 2.9 40.07 2.91 40.08 2.92 40.82 4.22 40.98 4.49 40.98 4.49 40.97 4.49 41.13 4.75 41.13 4.75 41.53 5.45 41.73 5.79 41.75 5.82 41.83 5.97 41.83 5.97 42.33 6.82 42.33 6.82 42.87 7.76 43.26 8.43 43.29 8.43 43.3 8.43 44.16 8.76 44.19 8.77 44.19 8.77 44.52 8.92 44.72 8.99 44.94 9.09 44.94 9.1 45.05 9.14 45.92 9.55 46.17 9.67 46.17 9.67 46.52 9.85 46.53 9.85 46.8 9.99 47.57 10.42 47.57 10.42 47.57 10.42 47.64 10.46 48.47 10.97 48.51 11 48.52 11 48.58 11.04 48.9 11.23 49.13 11.39 49.13 11.39 49.29 11.49 49.82 11.88 49.84 11.89 49.84 11.89 50.2 12.14 50.29 12.21 50.29 12.21 50.48 12.36 50.85 12.64 51.14 12.88 51.43 13.11 51.86 13.48 52.16 13.75 52.16 13.75 52.17 13.76 52.33 13.9 52.4 13.96 52.4 13.97 52.41 13.97 52.62 14.16 52.81 14.35 52.81 14.35 52.81 14.35 52.81 14.35 52.81 14.35 53.04 14.56 53.29 14.82 53.3 14.83 53.66 15.19 53.68 15.22 53.7 15.24 53.74 15.28 54.03 15.6 54.08 15.65 54.09 15.66 54.37 15.97 54.45 16.06 54.45 16.07 54.45 16.07 54.57 16.21 54.79 16.45 54.91 16.59 55 16.7 55.61 17.46 55.66 17.54 55.66 17.54 55.75 17.64 55.77 17.68 55.77 17.68 55.77 17.69 55.78 17.7 55.78 17.7 56.18 18.25 56.46 18.66 56.47 18.67 56.47 18.68 56.69 18.98 56.79 19.14 56.95 19.4 56.97 19.43 57.24 19.87 57.35 20.06 57.36 20.07 57.52 20.32 57.6 20.48 57.6 20.48 57.71 20.66 57.71 20.66 57.74 20.71 58.2 21.57 58.2 21.57 58.28 21.72 58.49 22.16 58.49 22.16 58.52 22.22 58.63 22.44 58.76 22.73 58.76 22.75 58.94 23.14 59.22 23.82 59.25 23.9 59.26 23.92 59.39 24.22 59.42 24.32 59.42 24.32 59.43 24.33 59.54 24.61 59.65 24.93 59.65 24.94 59.65 24.95 59.72 25.14 59.82 25.45 59.82 25.45 59.87 25.62 60.04 26.12 60.2 26.7 60.21 26.72 60.29 26.99 60.31 27.07 60.31 27.07 60.31 27.1 60.45 27.64 60.7 28.77 60.7 28.77 60.78 29.18 60.98 30.45 61.02 30.75 61.14 32.14 61.16 32.32 61.21 33.84 61.21 33.9 61.17 35.47 61.16 35.55 61.16 35.56 61.09 36.46 61.07 36.6 61.06 36.69 61.03 37.05 61.01 37.24 60.99 37.38 60.96 37.57 60.92 37.88 60.91 37.9 60.81 38.61 60.76 38.93 60.65 39.48 60.51 40.17 60.39 40.6 60.39 40.6 60.09 41.69 59.91 42.26 59.61 43.2 59.42 43.67 59.34 43.89 59.34 43.89 59.25 44.12 59.15 44.34 59.03 44.66 58.65 45.49 58.36 46.1 58.1 46.6 58.02 46.76 57.97 46.85 57.85 47.07 57.85 47.07 57.91 46.95 57.55 47.61 57.07 48.41 57.63 47.49 56.95 48.6 56.8 48.84 55.94 50.09 55.9 50.13 55.47 50.68 55.38 50.81 55.34 50.86 54.93 51.38 54.8 51.53 54.8 51.53 54.28 52.12 54.12 52.3 54.07 52.36 54.05 52.37 54.05 52.38 53.88 52.57 53.63 52.82 53.53 52.93 53.53 52.93 53.45 53.01 53.18 53.27 52.77 53.69 53.12 54.28 53.12 54.28 53.78 55.44 53.81 55.49 53.85 55.57 54.56 56.78 54.99 57.54 55.22 57.96 55.67 57.54 55.66 57.54 55.62 57.58 55.66 57.54 55.66 57.54 56.23 57.01 56.45 56.78 56.46 56.78 56.74 56.49 57.48 55.73 57.63 55.57 57.63 55.56 58.17 54.96 58.74 54.28 58.74 54.28 58.85 54.16 59.22 53.69 59.22 53.69 59.4 53.46 59.43 53.41 59.44 53.4 59.53 53.28 59.54 53.26 59.56 53.24 59.79 52.93 59.79 52.93 59.94 52.73 59.94 52.73 60.05 52.57 60.74 51.58 60.74 51.58 60.77 51.53 60.86 51.38 60.86 51.38 60.87 51.38 61.26 50.75 61.67 50.09 61.64 50.13 61.62 50.13 61.65 50.09 61.65 50.09 61.81 49.82 62.07 49.34 62.35 48.84 62.4 48.76 62.47 48.6 62.47 48.6 62.75 48.04 62.86 47.81 63.01 47.49 63.21 47.07 63.21 47.06 63.23 47.01 63.46 46.49 63.62 46.1 63.73 45.82 63.86 45.49 63.86 45.49 64.01 45.09 64.06 44.94 64.16 44.66 64.16 44.66 64.37 44.07 64.42 43.89 64.43 43.89 64.58 43.39 64.64 43.2 64.64 43.2 64.77 42.76 64.91 42.26 64.91 42.26 64.96 42.06 65.05 41.69 65.05 41.69 65.21 41.04 65.31 40.6 65.31 40.6 65.4 40.17 65.4 40.17 65.42 40.08 65.48 39.73 65.61 38.97 65.62 38.93 65.62 38.93 65.66 38.61 65.66 38.61 65.75 37.93 65.83 37.24 65.83 37.24 65.84 37.05 65.85 37.04 65.86 36.9 65.94 35.84 65.96 35.55 65.96 35.47 65.96 35.47 65.99 34.79 66 33.9 66 33.84 66 33.84 66 33.74 65.97 32.78"/><polygon class="cls-1" points="34.93 56.38 36.3 56.28 36.04 56.28 36.08 56.28 36.49 56.24 36.99 56.17 37 56.17 37.39 56.12 37.55 56.09 37.56 56.09 38.27 55.97 38.47 55.92 38.47 55.92 38.91 55.83 38.92 55.83 39.16 55.77 39.82 55.61 39.82 55.61 40.03 55.55 40.26 55.48 40.26 55.48 40.89 55.29 41.13 55.21 41.13 55.21 41.62 55.04 41.63 55.04 41.75 55 42.45 54.72 42.45 54.72 42.59 54.67 42.91 54.53 42.91 54.53 43.3 54.36 43.54 54.25 43.73 54.16 43.73 54.16 44.14 53.95 44.14 53.95 44.22 53.91 44.95 53.52 44.95 53.52 45.03 53.48 45.36 53.28 45.36 53.28 45.8 53.02 46.13 52.82 46.54 52.55 46.55 52.54 46.56 52.54 34.77 32.14 34 30.8 34 56.39 34.93 56.38"/><polygon class="cls-1" points="35.67 65.96 35.22 65.96 35.41 65.95 35.67 65.96 37.33 65.82 37.22 65.82 37.24 65.82 37.65 65.78 37.73 65.77 38.98 65.61 38.86 65.61 38.88 65.61 38.98 65.61 40.63 65.31 40.55 65.31 40.56 65.31 40.63 65.31 42.24 64.92 42.77 64.76 43.83 64.45 43.85 64.44 43.85 64.44 45.43 63.89 45.37 63.89 45.38 63.88 45.43 63.89 46.98 63.25 46.93 63.25 46.93 63.25 46.98 63.25 47.67 62.91 47.7 62.91 47.74 62.88 48.44 62.53 48.45 62.53 48.64 62.43 49.41 62.03 49.6 61.93 49.92 61.74 49.92 61.74 50.27 61.55 50.84 61.19 50.87 61.18 50.91 61.15 51.13 61.01 51.14 61.01 50.92 61.15 50.87 61.18 50.59 61.36 51.38 60.87 51.32 60.78 51.31 60.76 49.62 57.83 49.45 57.54 49.44 57.52 49.01 56.78 49.01 56.78 48.97 56.71 48.86 56.77 48.85 56.78 48.86 56.78 48.85 56.79 48.55 56.97 48.84 56.78 48.84 56.78 47.8 57.43 47.83 57.41 47.61 57.54 47.8 57.43 47.38 57.67 47.27 57.73 46.93 57.91 46.4 58.21 45.53 58.63 45.49 58.64 44.6 59.03 43.69 59.41 42.76 59.74 41.8 60.04 40.86 60.31 39.98 60.52 39.89 60.54 39.25 60.67 38.92 60.73 38.27 60.85 38.22 60.85 38.11 60.87 38.11 60.87 37.94 60.9 37.72 60.93 37.17 61.01 36.62 61.06 35.98 61.12 35.75 61.13 35.58 61.15 35.4 61.15 35 61.18 34 61.19 34 66 35.67 65.96"/><polygon class="cls-2" points="52.87 46.04 53.13 45.63 53.5 44.99 53.5 44.99 53.6 44.83 53.6 44.83 53.6 44.81 53.99 44.1 53.99 44.09 54.05 43.98 54.24 43.57 54.24 43.57 54.43 43.17 54.43 43.17 54.45 43.13 54.82 42.27 54.82 42.26 54.85 42.19 54.85 42.19 54.9 42.04 55.21 41.19 55.23 41.13 55.3 40.93 55.3 40.93 55.37 40.7 55.53 40.16 55.56 40.05 55.69 39.58 55.71 39.58 39.55 11.61 34 2 34 11.61 50.49 40.15 50.49 40.16 50.18 40.93 50.18 40.93 50.08 41.19 49.58 42.19 49.54 42.27 49.02 43.17 48.76 43.57 48.42 44.1 48.22 44.36 47.88 44.83 47.74 44.99 48.35 46.04 48.5 46.3 49.03 47.22 49.03 47.22 49.18 47.48 49.67 48.33 49.97 48.84 50.27 49.37 50.28 49.39 51.22 48.33 50.77 48.84 50.76 48.84 50.76 48.83 50.91 48.67 51.2 48.33 51.21 48.31 51.52 47.95 52.07 47.22 52.08 47.21 52.08 47.2 52.62 46.43 52.87 46.04 52.87 46.04"/><polygon class="cls-1" points="20.37 57.54 20.03 57.33 19.98 57.3 20.37 57.54"/><polygon class="cls-1" points="32.53 56.33 32.01 56.29 31.98 56.28 31.8 56.28 32.17 56.33 32.65 56.34 32.53 56.33"/><polygon class="cls-1" points="33.25 32.14 33.26 32.14 33.26 32.15 28.09 41.51 21.99 52.55 21.84 52.8 21.86 52.82 21.86 52.82 22.61 53.27 22.64 53.28 22.64 53.28 23.06 53.52 23.06 53.52 23.4 53.71 23.86 53.95 24.2 54.13 24.27 54.16 24.27 54.16 25.02 54.5 25.09 54.53 25.55 54.72 25.55 54.72 25.85 54.85 26.37 55.04 26.71 55.17 26.84 55.21 26.84 55.21 27.57 55.44 27.72 55.48 27.72 55.48 28.18 55.61 28.19 55.61 28.44 55.68 29.08 55.83 29.08 55.83 29.31 55.88 29.53 55.92 29.54 55.93 30.2 56.05 30.47 56.09 30.47 56.09 31 56.17 31.03 56.18 30.8 56.17 31.8 56.28 31.79 56.28 32.17 56.33 31.8 56.28 31.98 56.28 32.01 56.29 32.53 56.33 32.65 56.34 32.17 56.33 33.25 56.38 33.27 56.38 33.54 56.4 34 56.39 34 30.8 34 30.8 33.25 32.14"/><polygon class="cls-1" points="33 61.18 32.62 61.15 32.41 61.15 32.22 61.13 32.02 61.12 31.42 61.06 30.83 61.01 30.29 60.93 30.06 60.9 29.89 60.87 29.78 60.85 29.27 60.78 28.74 60.67 28.11 60.54 28.03 60.52 27.14 60.31 26.2 60.04 25.24 59.74 24.32 59.41 23.4 59.03 22.5 58.64 22.48 58.63 21.6 58.21 20.73 57.73 20.03 57.33 20.37 57.54 19.98 57.3 20.03 57.33 19.16 56.78 19.15 56.78 19.14 56.77 19.03 56.71 18.99 56.78 18.99 56.78 18.99 56.78 18.55 57.54 18.55 57.54 18.55 57.54 18.39 57.83 16.69 60.76 16.68 60.78 16.62 60.87 16.66 60.87 16.88 61.01 16.84 61.01 16.97 61.08 17.08 61.15 17.09 61.15 17.16 61.19 17.16 61.19 17.32 61.29 17.66 61.5 18.07 61.74 18.08 61.74 18.44 61.95 19.52 62.53 19.56 62.53 19.56 62.53 20.3 62.91 21.07 63.25 21.08 63.25 21.26 63.33 22.23 63.73 22.63 63.89 22.63 63.89 22.57 63.89 24.15 64.44 24.15 64.44 24.17 64.45 24.52 64.55 25.2 64.76 25.84 64.92 25.85 64.92 26.21 65.02 27.23 65.27 27.45 65.31 27.46 65.31 27.37 65.31 29.01 65.61 29.14 65.61 29.16 65.62 29.01 65.61 30.31 65.78 30.34 65.78 30.78 65.82 30.83 65.82 30.67 65.82 32.33 65.96 34 66 34 66 34 61.19 34 61.19 33 61.18"/><polygon class="cls-3" points="34 2 33.68 2.54 33.69 2.54 33.69 2.54 29.34 10.07 29.14 10.41 28.45 11.61 28.15 12.14 12.29 39.58 12.31 39.58 12.31 39.58 12.47 40.16 12.47 40.16 12.52 40.35 12.59 40.59 12.7 40.93 12.7 40.93 12.79 41.19 12.79 41.2 12.81 41.27 12.89 41.48 13.15 42.19 13.18 42.26 13.18 42.27 13.19 42.27 13.55 43.13 13.57 43.17 13.57 43.17 13.76 43.57 13.76 43.57 13.95 43.98 14.01 44.1 14.01 44.1 14.4 44.81 14.4 44.83 14.4 44.83 14.5 44.99 14.5 45 14.87 45.63 15.13 46.04 15.14 46.05 15.38 46.43 15.92 47.2 15.93 47.22 15.94 47.24 16.48 47.95 16.8 48.33 16.82 48.34 16.77 48.33 17.72 49.39 17.73 49.37 18.03 48.84 18.32 48.33 18.54 47.96 18.97 47.22 18.97 47.22 19.64 46.04 19.64 46.04 20.25 44.99 20.12 44.83 19.78 44.36 19.77 44.35 19.58 44.1 19.24 43.57 18.98 43.17 18.46 42.27 18.42 42.19 17.92 41.19 17.82 40.93 17.82 40.93 17.51 40.16 17.51 40.15 34 11.61 34 11.61 34 2 34 2"/><polygon class="cls-1" points="14.55 53.01 14.47 52.93 14.47 52.93 14.37 52.82 14.12 52.57 13.95 52.38 13.95 52.37 13.93 52.36 13.88 52.3 13.72 52.12 13.2 51.53 13.07 51.38 12.66 50.86 12.66 50.86 12.63 50.81 12.54 50.7 12.53 50.68 12.1 50.13 12.06 50.09 11.2 48.84 11.05 48.6 10.37 47.49 10.14 47.07 10.14 47.06 9.62 46.1 9.35 45.49 8.97 44.66 8.84 44.33 8.75 44.12 8.66 43.89 8.66 43.89 8.6 43.72 8.39 43.2 8.08 42.26 8.08 42.26 7.89 41.69 7.61 40.6 7.61 40.6 7.49 40.17 7.35 39.48 7.24 38.93 7.19 38.61 6.98 37.24 6.97 37.05 6.93 36.64 6.92 36.6 6.92 36.57 6.83 35.55 6.83 35.47 6.79 33.9 6.79 33.84 6.84 32.32 6.86 32.14 6.98 30.75 7.02 30.45 7.21 29.18 7.3 28.77 7.55 27.64 7.69 27.1 7.7 27.06 7.71 26.99 7.79 26.73 7.96 26.12 8.13 25.62 8.18 25.45 8.18 25.45 8.28 25.14 8.35 24.95 8.46 24.61 8.59 24.27 8.61 24.22 8.65 24.14 8.77 23.82 8.77 23.82 9.04 23.14 9.33 22.54 9.37 22.44 9.48 22.22 9.49 22.21 9.72 21.72 9.8 21.57 9.82 21.53 10.26 20.71 10.29 20.66 10.29 20.66 10.39 20.49 10.39 20.48 10.48 20.32 10.65 20.05 10.76 19.87 11.02 19.45 11.21 19.14 11.31 18.98 11.52 18.69 11.82 18.25 12.22 17.7 12.23 17.69 12.25 17.64 12.33 17.54 12.39 17.46 13 16.7 13.1 16.59 13.21 16.45 13.43 16.21 13.55 16.06 13.63 15.97 13.92 15.65 13.97 15.6 14.26 15.28 14.29 15.25 14.3 15.24 14.71 14.82 14.71 14.82 14.96 14.56 15.19 14.35 15.19 14.35 15.38 14.16 15.59 13.97 15.61 13.96 15.67 13.9 15.79 13.8 16.14 13.48 16.14 13.48 16.55 13.11 17.01 12.76 17.15 12.64 17.44 12.43 17.71 12.21 17.8 12.14 18.17 11.88 18.71 11.49 18.87 11.39 19.1 11.23 19.49 11 19.49 11 19.53 10.97 20.36 10.46 20.43 10.42 20.43 10.41 21.2 9.99 21.48 9.85 21.48 9.85 21.83 9.67 21.83 9.67 22.07 9.55 22.95 9.14 23.07 9.09 23.28 8.99 23.48 8.92 23.81 8.77 23.82 8.77 23.84 8.76 24.71 8.43 24.71 8.42 24.74 8.43 25.13 7.76 25.13 7.76 25.67 6.82 26.17 5.97 26.17 5.97 26.28 5.77 26.61 5.18 27.01 4.49 27.37 3.87 27.68 3.34 27.94 2.9 28.15 2.54 27.11 2.75 26.62 2.87 26.49 2.9 26.48 2.9 26.28 2.95 24.93 3.32 24.85 3.34 24.85 3.34 24.69 3.39 23.54 3.76 23.24 3.87 23.24 3.87 23.08 3.92 23.01 3.95 21.69 4.46 21.63 4.49 21.63 4.49 21.59 4.51 20.3 5.08 20.18 5.14 20.1 5.18 20.09 5.18 19.78 5.34 18.57 5.97 17.62 6.52 17.41 6.64 17.12 6.82 17.11 6.83 16.79 7.03 15.68 7.76 14.78 8.43 14.43 8.69 14.42 8.69 14.32 8.77 14.17 8.89 14.04 8.99 14.04 8.99 13.27 9.63 13.22 9.67 13.12 9.76 13.01 9.85 13.01 9.85 12.45 10.35 12.38 10.42 12.34 10.45 11.76 11 11.76 11 11.62 11.13 11.52 11.23 11.52 11.23 11.17 11.58 10.81 11.95 10.77 11.98 10.77 11.99 10.63 12.14 10.56 12.21 10.56 12.21 10.16 12.65 9.76 13.11 9.76 13.11 9.47 13.44 9.44 13.48 9.44 13.48 9.22 13.75 8.9 14.16 8.9 14.16 8.42 14.77 8.38 14.82 8.34 14.87 8.33 14.89 8.05 15.28 8.05 15.28 7.62 15.87 7.56 15.96 7.4 16.21 7.4 16.21 7.24 16.45 7.24 16.46 6.99 16.84 6.49 17.64 6.46 17.7 6.46 17.7 6.44 17.73 5.93 18.64 5.93 18.64 5.75 18.98 5.67 19.14 5.66 19.14 5.48 19.49 5.1 20.27 5.07 20.32 5.07 20.32 5.07 20.33 4.97 20.52 4.91 20.66 4.91 20.66 4.68 21.18 4.48 21.64 4.45 21.72 4.25 22.22 4.25 22.22 4.16 22.45 3.9 23.14 3.89 23.15 3.76 23.51 3.66 23.82 3.66 23.82 3.47 24.44 3.42 24.61 3.42 24.61 3.16 25.44 3.16 25.45 3.16 25.45 2.99 26.12 2.99 26.12 2.9 26.46 2.75 27.1 2.75 27.1 2.66 27.48 2.66 27.5 2.64 27.64 2.61 27.76 2.47 28.52 2.43 28.77 2.43 28.77 2.36 29.18 2.36 29.18 2.33 29.42 2.29 29.68 2.2 30.45 2.2 30.46 2.18 30.59 2.17 30.75 2.17 30.75 2.08 31.64 2.06 32.14 2.06 32.14 2.05 32.32 2.05 32.32 2.03 32.69 2.03 32.7 2 33.74 2 33.84 2 33.9 2 33.9 2.01 34.79 2.04 35.47 2.04 35.55 2.04 35.56 2.06 35.84 2.14 36.9 2.15 37.05 2.15 37.05 2.17 37.24 2.17 37.25 2.25 37.93 2.34 38.61 2.34 38.61 2.38 38.93 2.38 38.93 2.39 38.97 2.51 39.69 2.58 40.09 2.6 40.17 2.6 40.17 2.69 40.6 2.69 40.6 2.79 41.04 2.95 41.69 2.95 41.69 3.04 42.06 3.09 42.26 3.09 42.26 3.31 43.07 3.35 43.2 3.35 43.2 3.58 43.89 3.58 43.89 3.58 43.89 3.63 44.07 3.84 44.66 3.84 44.66 3.98 45.06 4.14 45.49 4.14 45.49 4.32 45.96 4.32 45.97 4.38 46.1 4.49 46.37 4.5 46.38 4.77 47.01 4.79 47.07 4.79 47.07 4.99 47.49 4.99 47.5 5.14 47.81 5.15 47.83 5.25 48.04 5.25 48.04 5.53 48.6 5.53 48.6 5.61 48.76 5.61 48.76 5.65 48.84 5.91 49.31 5.92 49.32 6.19 49.82 6.36 50.09 6.38 50.13 6.38 50.14 6.73 50.73 7.14 51.38 7.23 51.53 7.23 51.53 7.28 51.61 7.65 52.15 7.95 52.57 7.95 52.57 8.02 52.68 8.21 52.93 8.21 52.93 8.42 53.22 8.43 53.23 8.59 53.43 8.59 53.44 8.63 53.49 8.78 53.69 8.79 53.69 9.15 54.16 9.26 54.28 9.26 54.29 9.26 54.29 9.83 54.96 10.37 55.57 10.39 55.59 10.52 55.73 11.26 56.49 11.54 56.78 11.56 56.8 11.78 57.01 12.34 57.54 12.38 57.58 12.78 57.96 14.27 55.36 14.29 55.32 14.88 54.28 14.89 54.28 15.23 53.69 14.82 53.27 14.55 53.01"/></g></svg>