<svg xmlns="http://www.w3.org/2000/svg" viewBox="0 0 1920 1920"><defs><style>.cls-1{fill:#9a7a69;}.cls-2{fill:#8b0013;}.cls-3{fill:#322b29;}.cls-4{fill:#333;}.cls-5{fill:#510303;}.cls-6{fill:#890000;}</style></defs><title>iconCuadrado copy</title><g id="Layer_3" data-name="Layer 3"><polygon class="cls-1" points="959.64 960.01 960.36 960.01 959.68 959.99 959.64 960.01"/><polygon class="cls-2" points="959.62 960.01 960.38 960.01 959.67 959.99 959.62 960.01"/><polygon class="cls-3" points="959.45 960.01 960.55 960.01 959.59 959.99 959.45 960.01"/><polygon class="cls-3" points="956.85 960.05 963.15 960.05 959.43 959.95 956.85 960.05"/><polygon class="cls-3" points="959.18 960.02 960.82 960.02 959.4 959.98 959.18 960.02"/><polygon class="cls-4" points="961.91 958.84 961.68 958.84 958.67 960.79 958.09 961.16 958.83 960.79 961.91 958.84"/><polygon class="cls-2" points="960.76 959.98 958.94 959.98 961.06 960.02 960.76 959.98"/><polygon class="cls-4" points="1170.73 1320.67 1170.19 1320.98 1167.4 1322.73 1170.73 1320.67"/><polygon class="cls-4" points="1447.14 941.25 1447.14 941.08 1447.08 939.29 1447.07 939.11 1446.81 934.13 1446.66 931.36 1446.66 931.29 1446.34 925.18 1446.34 925.11 1444.99 909.85 1444.98 909.72 1444.79 907.51 1444.54 905.38 1444.52 905.32 1443.11 893.41 1443.1 893.31 1442.58 889.63 1442.55 889.43 1441.98 885.79 1441.98 885.78 1440.96 879.4 1440.96 879.35 1440.36 875.57 1438.96 867.99 1437.77 861.95 1437.77 861.94 1436.68 856.37 1436.05 853.64 1436.05 853.62 1434.67 847.55 1432.84 839.99 1432.47 838.52 1432.47 838.51 1429.88 828.3 1429.86 828.28 1429.82 828.1 1425.95 815.31 1425.95 815.3 1425.18 812.76 1422.19 803.18 1422.18 803.15 1420.65 798.24 1420.64 798.19 1418.91 793.43 1418.87 793.35 1418.64 792.74 1414.64 782.1 1413.21 778.47 1413.2 778.44 1410.17 770.81 1410.17 770.8 1409.57 769.29 1409.56 769.28 1409.47 769.06 1407.09 763.42 1406.98 763.18 1406.89 762.97 1403.14 754.41 1403.14 754.4 1402.22 752.32 1402.21 752.29 1400.73 749.31 1394.22 735.83 1394.2 735.8 1391.68 730.99 1390.46 728.65 1390.44 728.62 1387.78 723.53 1387.67 723.33 1386.32 720.9 1385.6 719.58 1385.53 719.47 1379.87 709.27 1379.61 708.84 1379.08 708 1379.06 707.97 1371.43 695.64 1367.65 689.68 1367.65 689.67 1365.22 685.85 1365.21 685.84 1364.33 684.44 1355.29 671.58 1355.29 671.57 1350.77 665.13 1349.72 663.73 1342.43 654.34 1342.42 654.33 1337.33 647.75 1334.22 643.9 1334.21 643.89 1333.71 643.27 1329.27 638.15 1329.26 638.15 1323.17 631.13 1317.03 624.32 1317.02 624.32 1316.07 623.25 1316.06 623.24 1316.06 623.23 1313.93 620.88 1313.9 620.84 1313.87 620.8 1313.28 620.18 1312.51 619.39 1307.88 614.62 1302.52 609.2 1302.51 609.18 1301.04 607.71 1298.81 605.58 1298.79 605.56 1293.07 600.1 1292.93 599.97 1292.84 599.88 1289.24 596.63 1284.08 591.77 1283.97 591.67 1279.79 587.91 1278.13 586.4 1278.11 586.38 1276.58 585.13 1275.57 584.27 1275.41 584.14 1264.05 574.7 1264.04 574.69 1262.11 573.09 1259.83 571.3 1258.39 570.15 1258.25 570.04 1258.19 569.99 1258.07 569.9 1252.76 565.97 1239.07 555.75 1219.97 543.02 1219.9 542.97 1219.84 542.93 1217.18 541.28 1217.14 541.25 1213.74 539.13 1213.69 539.11 1213.64 539.07 1195.01 528.07 1176.7 518.4 1176.46 518.28 1171.83 515.93 1171.77 515.91 1171.76 515.9 1170.57 515.3 1169.41 514.75 1169.27 514.68 1168.99 514.55 1149.31 505.68 1149.13 505.6 1148.38 505.28 1148.36 505.27 1147.78 505.02 1147.67 504.98 1147.5 504.91 1141.27 502.3 1128.09 497.24 1139.69 501.83 1127.9 497.18 1127.45 497 1126.3 496.55 1123.89 495.71 1123.74 495.65 1119.59 494.2 1119.31 494.1 1111.13 491.24 1101.91 488.39 1101.87 488.38 1101.84 488.37 1099.39 487.61 1099.28 487.58 1099.26 487.57 1098.35 487.29 1098.26 487.26 1095.95 486.55 1080.35 482.29 1075.33 481.04 1075.25 481.01 1074.37 480.8 1073.97 480.7 1073.91 480.68 1073.85 480.66 1064.97 478.45 1049.16 475.26 1052.31 480.8 1052.33 480.8 1052.37 480.88 1052.43 481 1052.56 481.21 1063.93 501.11 1066.32 505.28 1066.33 505.29 1066.23 505.28 1068.62 509.3 1068.66 509.37 1074.8 520.11 1077.76 525.3 1078.03 525.78 1079.34 528.07 1079.3 528.07 1086.88 541.28 1086.89 541.28 1095.16 555.75 1101.01 565.97 1101.56 565.97 1101.62 565.99 1114.71 571.08 1115.21 571.3 1115.27 571.32 1120.31 573.51 1123.36 574.7 1126.62 576.26 1126.68 576.28 1128.41 577.04 1141.69 583.22 1145.42 585.13 1145.45 585.13 1150.82 587.91 1150.89 587.94 1154.96 590.03 1166.68 596.63 1166.72 596.65 1166.74 596.65 1167.83 597.27 1180.47 605.15 1181.13 605.58 1181.14 605.59 1182.14 606.24 1187 609.2 1190.44 611.64 1190.5 611.67 1192.91 613.24 1201.03 619.14 1201.3 619.34 1201.32 619.35 1206.82 623.25 1208.16 624.32 1208.17 624.33 1211.02 626.58 1216.73 630.91 1221.12 634.6 1225.58 638.15 1232.11 643.9 1236.6 647.95 1236.63 647.98 1236.81 648.13 1239.28 650.29 1240.26 651.24 1240.39 651.37 1240.45 651.41 1243.7 654.34 1246.51 657.16 1246.55 657.21 1246.55 657.22 1246.58 657.25 1246.64 657.29 1250.02 660.51 1253.95 664.56 1253.96 664.57 1259.46 670.24 1259.85 670.65 1260.15 670.95 1260.78 671.58 1265.14 676.51 1265.9 677.36 1266.02 677.49 1270.26 682.23 1271.48 683.64 1271.5 683.68 1271.53 683.71 1273.43 685.85 1276.8 689.68 1278.49 691.81 1279.96 693.52 1289.24 705.23 1290.06 706.38 1290.07 706.4 1291.34 708 1291.64 708.6 1291.64 708.61 1291.66 708.64 1291.81 708.84 1291.81 708.86 1297.87 717.37 1302.21 723.72 1302.25 723.79 1302.35 723.93 1305.67 728.65 1307.15 730.99 1309.66 735.11 1309.93 735.54 1314.11 742.27 1315.81 745.19 1315.89 745.34 1318.32 749.31 1319.55 751.61 1319.57 751.62 1321.19 754.41 1321.21 754.43 1321.69 755.27 1328.65 768.47 1328.68 768.55 1329.91 770.81 1333.04 777.5 1333.1 777.6 1333.52 778.47 1335.18 781.88 1337.15 786.44 1337.24 786.65 1340.03 792.74 1344.25 803.18 1344.75 804.45 1344.87 804.74 1346.77 809.35 1347.3 810.8 1347.31 810.84 1347.38 811.05 1349.09 815.31 1350.72 820.34 1350.75 820.39 1350.84 820.64 1351.83 823.4 1353.38 828.3 1353.38 828.31 1354.19 830.9 1356.68 838.52 1359.16 847.44 1359.27 847.83 1360.48 851.94 1360.78 853.24 1360.79 853.31 1360.89 853.64 1363.01 861.95 1366.7 879.4 1366.71 879.41 1368.06 885.79 1371.02 905.38 1371.65 909.85 1373.55 931.36 1373.76 934.13 1374.6 957.56 1374.6 958.4 1373.96 982.68 1373.85 983.95 1373.85 983.98 1372.64 997.93 1372.48 1000.13 1372.34 1001.45 1371.86 1006.95 1371.44 1009.93 1371.15 1012.03 1370.81 1015.04 1370.06 1019.75 1370.02 1020.02 1368.48 1031.01 1367.64 1035.91 1365.95 1044.43 1363.85 1055.07 1362.07 1061.68 1362.07 1061.7 1357.53 1078.49 1354.79 1087.23 1350.14 1101.7 1347.26 1109.05 1346.03 1112.35 1346.03 1112.36 1344.67 1115.98 1343.21 1119.39 1341.29 1124.28 1335.61 1137.06 1331.18 1146.42 1327.16 1154.16 1325.91 1156.65 1325.2 1157.94 1323.43 1161.33 1323.38 1161.33 1324.32 1159.53 1318.74 1169.63 1311.41 1181.97 1320 1167.93 1309.68 1184.96 1307.36 1188.59 1294.29 1207.96 1293.66 1208.59 1287.17 1217.03 1285.65 1219.03 1285.1 1219.72 1278.9 1227.77 1276.87 1230.1 1276.86 1230.11 1268.96 1239.14 1266.47 1242.03 1265.71 1242.84 1265.53 1243.05 1265.43 1243.16 1262.89 1246.07 1259.03 1250.02 1257.55 1251.61 1257.54 1251.63 1256.36 1252.89 1252.24 1256.96 1246.03 1263.32 1251.22 1272.48 1251.24 1272.52 1261.32 1290.28 1261.77 1291.07 1262.46 1292.28 1273.22 1311.01 1279.75 1322.73 1283.33 1329.11 1290.08 1322.73 1290.05 1322.73 1289.41 1323.31 1290.03 1322.73 1290.05 1322.7 1298.61 1314.53 1302.09 1311.01 1302.15 1310.95 1306.52 1306.54 1317.69 1294.83 1319.95 1292.28 1320 1292.21 1328.23 1282.91 1336.95 1272.48 1336.97 1272.45 1338.55 1270.56 1344.16 1263.32 1344.17 1263.31 1346.92 1259.77 1347.45 1259.08 1347.63 1258.84 1348.99 1257.04 1349.17 1256.8 1349.4 1256.49 1352.97 1251.61 1352.97 1251.6 1355.13 1248.65 1355.16 1248.61 1356.89 1246.07 1367.34 1230.86 1367.34 1230.85 1367.8 1230.1 1369.24 1227.77 1369.25 1227.74 1369.3 1227.76 1375.28 1218.09 1381.56 1207.96 1381.13 1208.59 1380.8 1208.59 1381.17 1207.96 1381.23 1207.87 1383.66 1203.7 1387.7 1196.42 1391.88 1188.59 1392.6 1187.35 1393.78 1184.96 1393.81 1184.91 1398.08 1176.27 1399.74 1172.72 1401.95 1167.93 1404.98 1161.33 1405 1161.29 1405.38 1160.47 1408.78 1152.44 1411.24 1146.42 1413 1142.11 1414.9 1137.06 1414.91 1137.04 1417.22 1130.88 1418.02 1128.62 1419.51 1124.28 1419.52 1124.25 1422.65 1115.12 1423.53 1112.35 1423.54 1112.33 1425.96 1104.69 1426.84 1101.7 1426.84 1101.69 1428.8 1095.03 1430.9 1087.23 1430.92 1087.2 1431.71 1084.25 1433.11 1078.49 1433.11 1078.47 1435.52 1068.49 1436.95 1061.68 1436.95 1061.65 1438.34 1055.07 1438.36 1055.04 1438.63 1053.71 1439.59 1048.36 1441.62 1036.55 1441.71 1035.91 1441.71 1035.9 1442.35 1031.01 1442.35 1030.98 1443.73 1020.58 1444.86 1009.93 1444.86 1009.92 1445.17 1006.95 1445.18 1006.87 1445.42 1004.6 1446.68 988.42 1446.86 983.95 1446.91 982.68 1446.91 982.61 1447.32 972.24 1447.49 958.4 1447.5 957.56 1447.5 957.48 1447.53 956.06 1447.14 941.25"/><polygon class="cls-4" points="974.12 1304.85 994.99 1303.36 991.03 1303.36 991.74 1303.29 997.94 1302.71 1005.57 1301.64 1005.75 1301.62 1011.64 1300.8 1014.1 1300.37 1014.28 1300.34 1025.13 1298.46 1028.06 1297.81 1028.08 1297.81 1034.81 1296.32 1034.95 1296.29 1038.62 1295.48 1048.61 1292.91 1048.63 1292.91 1051.9 1292.07 1055.33 1291.01 1055.41 1290.97 1064.97 1288.02 1068.68 1286.74 1068.7 1286.73 1076.14 1284.19 1076.18 1284.18 1078.03 1283.55 1088.73 1279.29 1088.74 1279.29 1090.89 1278.44 1095.74 1276.31 1095.77 1276.3 1101.66 1273.73 1105.29 1272.02 1108.17 1270.56 1108.18 1270.56 1114.5 1267.36 1114.54 1267.34 1115.76 1266.73 1126.81 1260.77 1126.82 1260.77 1127.99 1260.13 1133.01 1257.14 1133.03 1257.13 1139.79 1253.1 1144.75 1249.91 1151.05 1245.86 1151.28 1245.71 1151.3 1245.7 971.78 931.36 960 910.72 960 1304.98 974.12 1304.85"/><polygon class="cls-4" points="985.5 1452.41 978.59 1452.41 981.42 1452.3 985.5 1452.41 1010.8 1450.27 1009.02 1450.27 1009.4 1450.24 1015.65 1449.66 1016.76 1449.51 1035.88 1447.08 1034.09 1447.08 1034.33 1447.04 1035.88 1447.08 1060.96 1442.39 1059.74 1442.39 1059.9 1442.36 1060.96 1442.39 1085.62 1436.43 1093.64 1433.99 1109.73 1429.09 1110.03 1428.98 1110.08 1428.98 1134.1 1420.47 1133.27 1420.47 1133.33 1420.45 1134.1 1420.47 1157.7 1410.67 1156.93 1410.67 1156.97 1410.65 1157.7 1410.67 1168.34 1405.5 1168.67 1405.35 1169.26 1405.05 1180.06 1399.6 1180.08 1399.59 1183 1398.11 1194.76 1391.9 1197.71 1390.32 1202.62 1387.46 1202.63 1387.45 1207.85 1384.41 1216.52 1378.94 1216.97 1378.71 1217.6 1378.31 1220.9 1376.17 1221.15 1376.17 1217.78 1378.31 1216.97 1378.71 1212.68 1381.48 1224.74 1374.05 1223.88 1372.56 1223.72 1372.26 1197.9 1327.14 1195.37 1322.73 1195.21 1322.43 1188.67 1311.01 1188.69 1311.01 1188.07 1309.95 1186.38 1310.89 1186.19 1311.01 1186.35 1311.01 1186.22 1311.09 1181.73 1313.87 1186.17 1311.02 1186.16 1311.01 1170.19 1320.98 1170.73 1320.67 1167.4 1322.73 1170.19 1320.98 1163.85 1324.7 1162.13 1325.71 1157.05 1328.48 1148.85 1332.95 1135.59 1339.44 1135.12 1339.66 1121.45 1345.72 1107.55 1351.48 1093.42 1356.58 1078.87 1361.27 1064.54 1365.31 1051.07 1368.62 1049.79 1368.93 1039.95 1370.92 1035.04 1371.92 1025.02 1373.63 1024.23 1373.76 1022.58 1374.05 1022.57 1374.05 1020.07 1374.47 1016.6 1374.92 1008.27 1376.17 999.87 1376.92 990.14 1377.88 986.63 1378.08 984.02 1378.31 981.26 1378.38 975.17 1378.72 960 1378.94 960 1453.04 985.5 1452.41"/><polygon class="cls-5" points="1247.52 1145.48 1251.5 1139.18 1257.09 1129.39 1257.09 1129.38 1258.55 1126.84 1258.57 1126.79 1258.67 1126.62 1264.52 1115.55 1264.52 1115.54 1265.42 1113.84 1268.38 1107.45 1268.39 1107.42 1271.24 1101.28 1271.24 1101.27 1271.53 1100.64 1277.13 1087.43 1277.22 1087.23 1277.61 1086.16 1277.61 1086.15 1278.48 1083.83 1283.12 1070.84 1283.46 1069.9 1284.46 1066.78 1284.47 1066.76 1285.61 1063.2 1287.97 1054.86 1288.47 1053.21 1290.44 1045.92 1290.7 1045.92 1044.52 614.95 960 466.97 960 614.96 1211.2 1054.77 1211.25 1054.86 1206.53 1066.78 1206.53 1066.79 1204.93 1070.84 1197.33 1086.16 1196.7 1087.43 1188.9 1101.28 1184.9 1107.45 1179.63 1115.55 1176.68 1119.59 1171.41 1126.84 1169.3 1129.39 1178.58 1145.57 1180.87 1149.58 1188.93 1163.67 1188.95 1163.69 1191.22 1167.66 1198.81 1180.71 1203.24 1188.59 1207.93 1196.83 1208.08 1197.1 1222.41 1180.71 1215.46 1188.59 1215.28 1188.59 1215.34 1188.53 1217.57 1186.02 1222.02 1180.71 1222.14 1180.57 1226.84 1174.95 1235.32 1163.67 1235.4 1163.57 1235.48 1163.45 1243.7 1151.53 1247.47 1145.57 1247.52 1145.48"/><polygon class="cls-4" points="752.38 1322.73 747.22 1319.47 746.34 1318.95 752.38 1322.73"/><polygon class="cls-4" points="937.54 1303.99 929.71 1303.39 929.23 1303.36 926.54 1303.36 932.18 1303.99 939.5 1304.14 937.54 1303.99"/><polygon class="cls-4" points="948.62 931.36 948.71 931.36 948.68 931.44 869.88 1075.7 777.04 1245.86 774.81 1249.74 775.08 1249.91 775.09 1249.92 786.53 1256.93 786.89 1257.14 786.9 1257.14 793.29 1260.77 793.31 1260.78 798.54 1263.75 805.46 1267.36 810.77 1270.13 811.69 1270.56 811.71 1270.57 823.2 1275.89 824.22 1276.31 831.29 1279.29 831.33 1279.31 835.85 1281.21 843.8 1284.19 848.92 1286.11 850.87 1286.74 850.92 1286.76 861.99 1290.36 864.36 1291.01 864.38 1291.02 871.34 1292.91 871.43 1292.93 875.27 1293.99 884.99 1296.32 885.03 1296.33 888.55 1297.17 891.9 1297.81 892.05 1297.84 902.03 1299.73 906.18 1300.37 906.29 1300.38 914.33 1301.64 914.78 1301.71 911.3 1301.64 926.52 1303.36 926.27 1303.36 932.18 1303.99 926.54 1303.36 929.23 1303.36 929.71 1303.39 937.54 1303.99 939.5 1304.14 932.18 1303.99 948.62 1304.85 948.96 1304.85 953.05 1305.05 960 1304.98 960 910.72 960 910.71 948.62 931.36"/><polygon class="cls-4" points="944.82 1378.72 938.89 1378.38 935.76 1378.31 932.86 1378.05 929.85 1377.88 920.73 1376.97 911.73 1376.17 903.4 1374.92 899.93 1374.47 897.42 1374.05 895.77 1373.76 887.91 1372.56 879.88 1370.89 870.21 1368.93 868.98 1368.63 855.45 1365.31 841.12 1361.27 826.58 1356.58 812.45 1351.48 798.54 1345.72 784.77 1339.61 784.5 1339.49 771.14 1332.95 757.86 1325.71 747.22 1319.47 752.38 1322.73 746.34 1318.95 747.22 1319.47 733.83 1311.01 733.81 1311.01 733.62 1310.89 731.93 1309.95 731.33 1311.01 731.32 1311.02 731.3 1311.01 724.56 1322.73 724.63 1322.73 724.62 1322.74 722.1 1327.14 696.28 1372.26 696.12 1372.56 695.26 1374.05 695.82 1374.05 699.1 1376.17 698.64 1376.17 700.52 1377.29 702.22 1378.31 702.4 1378.31 703.37 1378.94 703.38 1378.94 705.83 1380.53 711 1383.74 717.37 1387.46 717.4 1387.47 722.87 1390.66 739.32 1399.6 739.94 1399.6 739.98 1399.62 751.33 1405.35 763.06 1410.67 763.12 1410.69 765.87 1411.94 780.63 1418.12 786.73 1420.47 786.78 1420.49 785.9 1420.47 809.92 1428.98 809.98 1428.98 810.28 1429.09 815.54 1430.71 825.94 1433.88 835.66 1436.43 835.83 1436.48 841.34 1437.92 856.93 1441.76 860.26 1442.39 860.44 1442.42 859.04 1442.39 883.91 1447.08 885.91 1447.08 886.24 1447.14 883.91 1447.08 903.81 1449.59 904.23 1449.65 910.98 1450.27 911.73 1450.34 909.2 1450.27 934.5 1452.41 960 1453.04 960 1453.04 960 1378.94 960 1378.94 944.82 1378.72"/><polygon class="cls-6" points="960 466.96 955.15 475.26 955.25 475.26 955.21 475.34 889.01 591.24 885.94 596.6 875.48 614.95 870.84 623.25 629.28 1045.92 629.56 1045.92 629.57 1045.95 631.97 1054.86 631.98 1054.88 632.77 1057.82 633.83 1061.46 635.54 1066.78 635.54 1066.79 636.83 1070.84 636.84 1070.87 637.23 1072.06 638.36 1075.31 642.39 1086.16 642.78 1087.23 642.87 1087.43 642.89 1087.49 648.47 1100.64 648.76 1101.28 648.77 1101.3 651.62 1107.45 651.65 1107.5 654.58 1113.84 655.48 1115.55 655.49 1115.56 661.33 1126.62 661.45 1126.84 661.46 1126.85 662.91 1129.39 662.95 1129.46 668.5 1139.18 672.53 1145.57 672.64 1145.74 676.29 1151.53 684.51 1163.45 684.68 1163.67 684.89 1163.94 693.15 1174.95 697.97 1180.71 698.18 1180.96 697.58 1180.71 711.92 1197.1 712.07 1196.83 716.76 1188.59 721.19 1180.71 724.49 1175.04 730.96 1163.67 730.98 1163.64 741.27 1145.57 741.28 1145.54 750.48 1129.39 748.59 1126.84 743.32 1119.59 743.22 1119.45 740.37 1115.55 735.1 1107.45 731.09 1101.28 723.29 1087.43 722.67 1086.16 715.07 1070.84 713.47 1066.78 713.46 1066.76 708.75 1054.86 708.79 1054.77 960 614.95 960 614.96 960 466.97 960 466.96"/><polygon class="cls-4" points="663.64 1252.89 662.45 1251.61 662.44 1251.6 660.97 1250.02 657.11 1246.07 654.57 1243.16 654.47 1243.05 654.29 1242.84 653.53 1242.03 651.04 1239.14 643.13 1230.1 641.1 1227.77 634.91 1219.73 634.9 1219.72 634.35 1219.03 633 1217.25 632.83 1217.03 626.34 1208.59 625.7 1207.96 612.64 1188.59 610.32 1184.96 599.99 1167.93 596.49 1161.33 596.48 1161.3 588.61 1146.42 584.39 1137.06 578.7 1124.28 576.68 1119.15 575.33 1115.98 573.98 1112.35 573.96 1112.34 572.98 1109.69 569.85 1101.7 565.11 1087.23 565.11 1087.22 562.26 1078.49 557.87 1061.68 557.87 1061.66 556.15 1055.07 554.04 1044.43 552.36 1035.91 551.51 1031.01 548.35 1009.93 548.14 1006.95 547.57 1000.69 547.5 1000.13 547.46 999.55 546.04 983.95 546.04 982.68 545.4 958.4 545.4 957.56 546.24 934.13 546.45 931.36 548.35 909.85 548.98 905.38 551.93 885.79 553.2 879.4 556.99 861.95 559.1 853.64 559.27 853.01 559.52 851.94 560.68 847.96 563.32 838.52 565.81 830.9 566.62 828.3 566.63 828.29 568.17 823.4 569.19 820.58 570.91 815.31 572.93 810.14 573.22 809.35 573.77 808.01 575.66 803.18 575.67 803.17 579.76 792.74 584.13 783.46 584.81 781.88 586.48 778.47 586.55 778.31 590.08 770.81 591.35 768.47 591.67 767.87 598.31 755.27 598.81 754.41 598.81 754.4 600.29 751.87 600.37 751.74 601.67 749.31 604.29 745.01 605.89 742.27 609.92 735.79 612.85 730.99 614.33 728.65 617.55 724.06 622.12 717.37 628.19 708.84 628.34 708.64 628.66 708 629.92 706.41 630.76 705.23 640.04 693.52 641.51 691.81 643.2 689.68 646.57 685.85 648.52 683.64 649.74 682.23 654.1 677.36 654.86 676.51 659.22 671.58 659.64 671.15 659.86 670.93 666.04 664.56 666.05 664.55 669.97 660.51 673.47 657.18 673.49 657.16 676.29 654.34 679.49 651.45 679.75 651.21 680.71 650.29 682.49 648.74 687.84 643.9 687.85 643.9 694.21 638.15 701.09 632.75 703.27 630.91 707.68 627.58 711.83 624.32 713.18 623.25 718.81 619.25 727.09 613.24 729.45 611.7 732.99 609.2 738.87 605.58 738.9 605.56 739.53 605.15 752.17 597.27 753.32 596.63 753.33 596.62 765.03 590.03 769.18 587.91 769.19 587.89 774.57 585.13 774.59 585.12 778.3 583.22 791.58 577.04 793.4 576.25 796.64 574.7 799.66 573.52 804.78 571.3 804.86 571.26 805.29 571.08 818.43 565.97 818.51 565.94 818.98 565.97 824.82 555.75 824.84 555.74 833.11 541.28 840.64 528.07 840.66 528.06 842.36 525.08 847.44 515.93 853.55 505.28 859.04 495.71 863.68 487.61 867.67 480.8 870.84 475.26 855.03 478.45 847.58 480.31 845.63 480.8 845.46 480.84 842.4 481.6 821.73 487.26 820.61 487.61 820.55 487.63 818.16 488.37 800.69 494.1 796.11 495.71 796.01 495.74 793.7 496.55 792.55 497 772.42 504.94 771.61 505.28 771.6 505.28 770.94 505.57 751.22 514.45 749.43 515.3 748.17 515.93 748.13 515.96 743.3 518.4 724.98 528.07 710.38 536.62 707.27 538.5 702.81 541.28 702.75 541.31 697.82 544.38 680.93 555.75 667.23 565.97 661.82 569.98 661.76 570.04 660.16 571.3 657.95 573.05 655.95 574.7 655.92 574.73 644.23 584.43 643.41 585.13 641.82 586.45 640.2 587.91 640.18 587.92 631.68 595.61 630.58 596.63 630 597.16 621.19 605.58 621.18 605.59 618.96 607.71 617.48 609.2 617.46 609.22 612.12 614.62 606.72 620.18 606.13 620.8 606.07 620.88 603.93 623.25 602.97 624.32 602.94 624.35 596.83 631.13 590.73 638.15 590.72 638.16 586.29 643.27 585.77 643.9 585.76 643.92 582.43 648.06 577.57 654.34 577.56 654.35 570.29 663.71 569.66 664.56 569.1 665.3 568.93 665.53 564.63 671.58 564.63 671.59 558.15 680.66 557.2 682.02 554.77 685.85 554.77 685.86 552.34 689.68 552.31 689.73 548.56 695.64 540.92 708 540.39 708.84 540.38 708.86 540.13 709.27 532.35 723.28 532.33 723.33 529.54 728.65 528.32 730.99 528.3 731.03 525.5 736.37 519.64 748.44 519.23 749.31 519.22 749.31 519.22 749.32 517.79 752.29 516.86 754.41 516.85 754.43 513.33 762.44 510.29 769.62 509.81 770.81 506.79 778.47 506.76 778.54 505.36 782.1 501.35 792.74 501.31 792.83 499.3 798.39 497.8 803.18 497.78 803.22 494.81 812.76 494.05 815.31 494.04 815.32 490.18 828.1 490.13 828.3 490.13 828.33 487.53 838.52 487.52 838.55 486.17 843.85 483.95 853.64 483.94 853.68 482.59 859.61 482.54 859.85 482.17 861.95 481.81 863.85 479.64 875.57 479.04 879.4 479.03 879.43 478.02 885.79 478.02 885.81 477.45 889.43 476.89 893.41 475.46 905.38 475.46 905.39 475.21 907.51 474.99 909.85 474.99 909.92 473.73 923.69 473.34 931.36 473.33 931.37 473.19 934.13 473.19 934.16 472.89 939.78 472.89 940 472.47 956.06 472.5 957.56 472.51 958.4 472.51 958.49 472.68 972.24 473.09 982.68 473.14 983.95 473.14 984.03 473.32 988.42 474.58 1004.6 474.83 1006.95 474.83 1006.96 475.14 1009.93 475.15 1010.03 476.26 1020.58 477.63 1031.01 477.63 1031.02 478.28 1035.91 478.29 1035.94 478.37 1036.55 480.27 1047.67 481.38 1053.79 481.64 1055.07 481.64 1055.08 483.05 1061.68 483.06 1061.73 484.48 1068.49 486.89 1078.49 486.89 1078.51 488.27 1084.25 489.08 1087.23 489.11 1087.3 492.49 1099.79 493.09 1101.7 493.11 1101.72 496.47 1112.35 496.49 1112.4 496.49 1112.42 497.35 1115.12 500.49 1124.28 500.5 1124.32 502.62 1130.45 505.1 1137.06 505.11 1137.1 507.82 1144.31 507.85 1144.39 508.73 1146.42 510.43 1150.58 510.54 1150.83 514.62 1160.47 515.02 1161.33 515.02 1161.34 518.05 1167.93 518.05 1167.94 520.26 1172.72 520.44 1173.13 521.91 1176.26 521.92 1176.27 526.22 1184.96 526.23 1184.97 527.43 1187.42 527.44 1187.43 528.11 1188.59 531.98 1195.84 532.13 1196.11 536.34 1203.7 538.83 1207.96 539.2 1208.59 539.24 1208.66 544.56 1217.75 550.75 1227.77 552.19 1230.1 552.22 1230.14 552.98 1231.38 558.55 1239.62 563.05 1246.07 563.05 1246.09 564.25 1247.79 567.03 1251.61 567.04 1251.62 570.34 1256.14 570.47 1256.33 572.81 1259.43 572.91 1259.56 573.45 1260.26 575.83 1263.32 575.84 1263.33 581.45 1270.56 583.05 1272.48 583.15 1272.59 583.15 1272.6 591.77 1282.91 600.05 1292.28 600.32 1292.57 602.31 1294.83 613.48 1306.54 617.9 1311.01 618.13 1311.24 621.41 1314.55 629.97 1322.73 630.64 1323.36 636.67 1329.11 659.39 1289.05 659.68 1288.54 668.78 1272.48 668.79 1272.47 673.98 1263.32 667.76 1256.96 663.64 1252.89"/></g></svg>