<svg xmlns="http://www.w3.org/2000/svg" viewBox="0 0 1920 1920"><defs><style>.cls-1{fill:#9a7a69;}.cls-2{fill:#8b0013;}.cls-3{fill:#322b29;}.cls-4{fill:#333;}.cls-5{fill:#890000;}.cls-6{fill:#510303;}</style></defs><title>iconCuadrado copy 2</title><g id="Layer_3" data-name="Layer 3"><polygon class="cls-1" points="1139.73 1305.93 1140.44 1305.93 1139.78 1305.91 1139.73 1305.93"/><polygon class="cls-2" points="1118.14 1314.88 1118.9 1314.88 1118.19 1314.86 1118.14 1314.88"/><polygon class="cls-3" points="1051.04 1334.88 1052.14 1334.88 1051.17 1334.86 1051.04 1334.88"/><polygon class="cls-3" points="976.97 1344.03 983.27 1344.03 979.55 1343.93 976.97 1344.03"/><polygon class="cls-3" points="1027.63 1339.16 1029.26 1339.16 1027.85 1339.13 1027.63 1339.16"/><polygon class="cls-4" points="1198.36 1274.44 1198.13 1274.44 1195.12 1276.39 1194.54 1276.77 1195.28 1276.39 1198.36 1274.44"/><polygon class="cls-2" points="892.38 1339.16 890.55 1339.16 892.67 1339.21 892.38 1339.16"/><path class="cls-5" d="M466.45,1364H411.51v142.58H378.34V1364H323.4v-29.28H466.45Z"/><path class="cls-5" d="M487.75,1506.59V1334.73h76a48.73,48.73,0,0,1,21.9,5A56.75,56.75,0,0,1,603,1352.76a61.9,61.9,0,0,1,11.38,18.4,55.36,55.36,0,0,1,4.11,20.69,57.12,57.12,0,0,1-8.35,30.38A47.91,47.91,0,0,1,587.48,1442l39.21,64.63H589.17L554.08,1449H521.16v57.61Zm33.41-86.9H563a17.66,17.66,0,0,0,8.59-2.18,21.82,21.82,0,0,0,6.9-5.93,29.56,29.56,0,0,0,4.6-8.83,34.29,34.29,0,0,0,1.7-10.9,31.05,31.05,0,0,0-1.94-11.13,29.32,29.32,0,0,0-5.2-8.84,23.76,23.76,0,0,0-7.51-5.81,19.5,19.5,0,0,0-8.59-2.06H521.16Z"/><path class="cls-5" d="M648.72,1506.59V1334.73h33.4v171.86Z"/><path class="cls-4" d="M858.1,1506.59V1392.82l-44.3,84.72H795.64l-44.29-84.72v113.77H718V1334.73h35.82l50.83,97.79,51.32-97.79H891.5v171.86Z"/><path class="cls-4" d="M1046.66,1477.3v29.29H927.32V1334.73h117.16V1364H960.73v41.4h72.37v27.11H960.73v44.78Z"/><path class="cls-4" d="M1201.33,1364h-54.95v142.58h-33.16V1364h-55v-29.28h143.06Z"/><path class="cls-4" d="M1222.63,1506.59V1334.73h76a48.77,48.77,0,0,1,21.91,5,56.87,56.87,0,0,1,17.31,13.07,61.66,61.66,0,0,1,11.37,18.4,55.18,55.18,0,0,1,4.12,20.69,57.21,57.21,0,0,1-8.35,30.38,47.91,47.91,0,0,1-22.63,19.73l39.21,64.63h-37.52L1289,1449H1256v57.61Zm33.4-86.9h41.88a17.69,17.69,0,0,0,8.59-2.18,22,22,0,0,0,6.9-5.93,29.79,29.79,0,0,0,4.6-8.83,34.28,34.28,0,0,0,1.69-10.9,31,31,0,0,0-1.93-11.13,29.34,29.34,0,0,0-5.21-8.84,23.72,23.72,0,0,0-7.5-5.81,19.53,19.53,0,0,0-8.59-2.06H1256Z"/><path class="cls-4" d="M1383.59,1506.59V1334.73H1417v171.86Zm24.94-186.39-20.82-6.29,13.07-28.8H1431Z"/><path class="cls-4" d="M1501.72,1334.73h29.53l65.35,171.86h-34.37l-16-42.85h-60l-15.74,42.85h-34.37Zm38.48,105.53-23.72-67.53-24.69,67.53Z"/><polygon class="cls-4" points="1100.26 1172.6 1099.9 1172.82 1098.04 1173.97 1100.26 1172.6"/><polygon class="cls-4" points="1284.22 920.08 1284.22 919.96 1284.18 918.77 1284.17 918.65 1284.01 915.34 1283.9 913.5 1283.9 913.45 1283.69 909.38 1283.69 909.34 1282.8 899.18 1282.79 899.09 1282.66 897.62 1282.49 896.21 1282.48 896.16 1281.54 888.23 1281.54 888.17 1281.19 885.72 1281.17 885.59 1280.79 883.17 1280.79 883.16 1280.11 878.91 1280.11 878.88 1279.71 876.36 1278.78 871.32 1277.99 867.3 1277.99 867.29 1277.26 863.59 1276.85 861.77 1276.85 861.76 1275.93 857.72 1274.71 852.68 1274.46 851.71 1274.46 851.7 1272.73 844.9 1272.73 844.89 1272.7 844.76 1270.12 836.25 1270.12 836.25 1269.61 834.56 1267.62 828.18 1267.61 828.16 1266.59 824.89 1266.59 824.86 1265.43 821.69 1265.41 821.64 1265.26 821.23 1262.6 814.15 1261.64 811.74 1261.63 811.72 1259.62 806.64 1259.62 806.63 1259.22 805.63 1259.21 805.62 1259.15 805.47 1257.57 801.72 1257.49 801.56 1257.43 801.42 1254.94 795.72 1254.94 795.72 1254.33 794.33 1254.32 794.31 1253.34 792.33 1249 783.36 1248.99 783.34 1247.31 780.13 1246.5 778.58 1246.49 778.56 1244.72 775.17 1244.64 775.04 1243.75 773.42 1243.27 772.54 1243.22 772.47 1239.45 765.68 1239.28 765.4 1238.93 764.83 1238.91 764.81 1233.84 756.61 1231.32 752.64 1231.32 752.63 1229.7 750.09 1229.69 750.08 1229.11 749.16 1223.09 740.6 1223.09 740.59 1220.08 736.3 1219.38 735.37 1214.53 729.12 1214.53 729.11 1211.13 724.73 1209.07 722.17 1209.06 722.17 1208.73 721.75 1205.78 718.35 1205.77 718.35 1201.71 713.67 1197.63 709.14 1197.62 709.14 1196.99 708.43 1196.98 708.42 1196.98 708.41 1195.57 706.85 1195.54 706.82 1195.52 706.79 1195.13 706.39 1194.62 705.86 1191.54 702.68 1187.97 699.07 1187.96 699.07 1186.98 698.08 1185.5 696.67 1185.49 696.65 1181.68 693.02 1181.59 692.93 1181.53 692.87 1179.13 690.71 1175.69 687.48 1175.62 687.41 1172.84 684.9 1171.73 683.9 1171.72 683.89 1170.71 683.06 1170.04 682.48 1169.93 682.39 1162.36 676.12 1162.36 676.11 1161.07 675.04 1159.56 673.85 1158.6 673.08 1158.51 673.01 1158.46 672.98 1158.38 672.92 1154.85 670.3 1145.74 663.5 1133.03 655.03 1132.98 655 1132.94 654.97 1131.17 653.87 1131.15 653.85 1128.88 652.44 1128.85 652.42 1128.81 652.4 1116.42 645.08 1104.23 638.64 1104.07 638.56 1100.98 637 1100.95 636.99 1100.94 636.98 1100.15 636.58 1099.37 636.21 1099.29 636.17 1099.1 636.08 1086 630.17 1085.88 630.12 1085.38 629.91 1085.37 629.9 1084.98 629.74 1084.91 629.71 1084.8 629.66 1080.65 627.93 1071.87 624.56 1079.6 627.62 1071.75 624.52 1071.45 624.4 1070.69 624.1 1069.08 623.54 1068.98 623.5 1066.22 622.53 1066.03 622.47 1060.59 620.56 1054.45 618.67 1054.42 618.66 1054.4 618.65 1052.78 618.15 1052.7 618.13 1052.69 618.12 1052.08 617.94 1052.02 617.92 1050.49 617.44 1040.1 614.61 1036.76 613.77 1036.7 613.76 1036.12 613.61 1035.86 613.55 1035.81 613.53 1035.78 613.53 1029.86 612.05 1019.34 609.93 1021.44 613.61 1021.45 613.61 1021.48 613.67 1021.52 613.75 1021.6 613.89 1029.17 627.13 1030.76 629.91 1030.77 629.92 1030.7 629.91 1032.29 632.59 1032.32 632.63 1036.4 639.78 1038.37 643.24 1038.56 643.56 1039.43 645.08 1039.4 645.08 1044.45 653.87 1044.45 653.87 1049.96 663.5 1053.85 670.3 1054.22 670.3 1054.26 670.32 1062.97 673.7 1063.31 673.85 1063.34 673.86 1066.7 675.32 1068.72 676.12 1070.9 677.15 1070.93 677.17 1072.09 677.67 1080.92 681.78 1083.41 683.06 1083.43 683.06 1087.01 684.9 1087.05 684.92 1089.76 686.32 1097.56 690.71 1097.59 690.72 1097.6 690.72 1098.32 691.14 1106.74 696.38 1107.18 696.67 1107.18 696.67 1107.85 697.1 1111.09 699.07 1113.38 700.7 1113.41 700.72 1115.02 701.76 1120.42 705.69 1120.6 705.83 1120.62 705.83 1124.28 708.43 1125.17 709.14 1125.17 709.14 1127.07 710.64 1130.87 713.53 1133.79 715.98 1136.76 718.35 1141.11 722.17 1144.1 724.87 1144.12 724.89 1144.24 724.99 1145.88 726.43 1146.53 727.05 1146.62 727.14 1146.66 727.17 1148.82 729.12 1150.69 731 1150.72 731.03 1150.72 731.03 1150.74 731.06 1150.78 731.09 1153.03 733.23 1155.64 735.92 1155.65 735.93 1159.31 739.71 1159.57 739.98 1159.77 740.17 1160.19 740.6 1163.09 743.88 1163.6 744.44 1163.68 744.52 1166.5 747.68 1167.31 748.62 1167.32 748.64 1167.35 748.67 1168.61 750.09 1170.85 752.64 1171.98 754.06 1172.95 755.19 1179.13 762.99 1179.68 763.75 1179.68 763.77 1180.53 764.83 1180.73 765.24 1180.73 765.24 1180.74 765.26 1180.84 765.4 1180.84 765.4 1184.88 771.07 1187.76 775.3 1187.79 775.34 1187.86 775.44 1190.07 778.58 1191.05 780.13 1192.72 782.88 1192.9 783.17 1195.68 787.64 1196.81 789.58 1196.87 789.69 1198.48 792.33 1199.31 793.86 1199.31 793.87 1200.39 795.72 1200.41 795.74 1200.73 796.29 1205.36 805.08 1205.38 805.13 1206.2 806.64 1208.28 811.09 1208.32 811.15 1208.61 811.74 1209.71 814.01 1211.02 817.04 1211.08 817.18 1212.94 821.23 1215.74 828.18 1216.08 829.03 1216.16 829.22 1217.42 832.29 1217.77 833.26 1217.78 833.28 1217.83 833.42 1218.97 836.25 1220.05 839.6 1220.07 839.64 1220.13 839.81 1220.79 841.64 1221.82 844.9 1221.82 844.91 1222.36 846.63 1224.02 851.71 1225.67 857.64 1225.74 857.9 1226.54 860.63 1226.75 861.5 1226.76 861.54 1226.82 861.77 1228.23 867.3 1230.69 878.91 1230.69 878.92 1231.59 883.17 1233.56 896.21 1233.98 899.18 1235.24 913.5 1235.38 915.34 1235.94 930.93 1235.94 931.49 1235.52 947.65 1235.45 948.5 1235.45 948.52 1234.64 957.8 1234.54 959.27 1234.44 960.14 1234.12 963.8 1233.84 965.79 1233.65 967.19 1233.42 969.19 1232.92 972.32 1232.89 972.5 1231.87 979.82 1231.31 983.08 1230.19 988.75 1228.79 995.83 1227.6 1000.23 1227.6 1000.24 1224.58 1011.42 1222.76 1017.23 1219.67 1026.87 1217.75 1031.76 1216.92 1033.96 1216.92 1033.96 1216.02 1036.37 1215.05 1038.64 1213.78 1041.9 1209.99 1050.4 1207.04 1056.63 1204.37 1061.78 1203.54 1063.44 1203.06 1064.3 1201.89 1066.55 1201.85 1066.55 1202.48 1065.36 1198.77 1072.08 1193.89 1080.29 1199.61 1070.95 1192.74 1082.28 1191.19 1084.69 1182.49 1097.59 1182.08 1098.01 1177.75 1103.63 1176.74 1104.96 1176.37 1105.42 1172.25 1110.77 1170.9 1112.33 1170.89 1112.33 1165.63 1118.34 1163.98 1120.27 1163.47 1120.81 1163.35 1120.94 1163.28 1121.02 1161.59 1122.96 1159.02 1125.58 1158.04 1126.64 1158.03 1126.65 1157.24 1127.49 1154.5 1130.21 1150.37 1134.44 1153.83 1140.53 1153.84 1140.56 1160.55 1152.38 1160.85 1152.91 1161.31 1153.71 1168.47 1166.18 1172.81 1173.97 1175.2 1178.23 1179.69 1173.97 1179.67 1173.97 1179.25 1174.36 1179.65 1173.97 1179.67 1173.96 1185.36 1168.52 1187.68 1166.18 1187.73 1166.13 1190.63 1163.2 1198.07 1155.41 1199.57 1153.71 1199.61 1153.67 1205.08 1147.47 1210.89 1140.53 1210.9 1140.51 1211.95 1139.26 1215.68 1134.44 1215.69 1134.43 1217.52 1132.07 1217.87 1131.61 1218 1131.45 1218.9 1130.26 1219.02 1130.1 1219.17 1129.89 1221.55 1126.64 1221.55 1126.63 1222.98 1124.67 1223.01 1124.64 1224.16 1122.96 1231.11 1112.83 1231.11 1112.82 1231.41 1112.33 1232.38 1110.77 1232.38 1110.76 1232.41 1110.77 1236.39 1104.33 1240.57 1097.59 1240.29 1098.01 1240.07 1098.01 1240.32 1097.59 1240.36 1097.53 1241.97 1094.76 1244.66 1089.91 1247.44 1084.69 1247.92 1083.87 1248.71 1082.28 1248.73 1082.25 1251.57 1076.5 1252.68 1074.14 1254.14 1070.95 1256.16 1066.55 1256.18 1066.53 1256.43 1065.98 1258.69 1060.64 1260.33 1056.63 1261.5 1053.76 1262.76 1050.4 1262.77 1050.38 1264.31 1046.29 1264.84 1044.79 1265.83 1041.9 1265.84 1041.88 1267.93 1035.8 1268.51 1033.96 1268.52 1033.94 1270.13 1028.86 1270.71 1026.87 1270.71 1026.86 1272.02 1022.43 1273.42 1017.23 1273.43 1017.22 1273.96 1015.25 1274.88 1011.42 1274.88 1011.41 1276.49 1004.76 1277.44 1000.23 1277.44 1000.21 1278.37 995.83 1278.38 995.81 1278.56 994.93 1279.2 991.37 1280.55 983.51 1280.61 983.08 1280.61 983.07 1281.04 979.82 1281.04 979.8 1281.96 972.88 1282.71 965.79 1282.71 965.78 1282.91 963.8 1282.92 963.75 1283.08 962.24 1283.92 951.47 1284.04 948.5 1284.07 947.65 1284.07 947.61 1284.34 940.7 1284.46 931.49 1284.47 930.93 1284.47 930.88 1284.48 929.93 1284.22 920.08"/><polygon class="cls-6" points="1151.36 1056.01 1154.02 1051.81 1157.73 1045.3 1157.73 1045.29 1158.7 1043.6 1158.72 1043.57 1158.78 1043.45 1162.68 1036.09 1162.68 1036.08 1163.28 1034.95 1165.24 1030.7 1165.25 1030.67 1167.15 1026.59 1167.15 1026.58 1167.35 1026.16 1171.07 1017.37 1171.13 1017.23 1171.39 1016.53 1171.39 1016.52 1171.97 1014.97 1175.06 1006.33 1175.29 1005.71 1175.95 1003.63 1175.96 1003.61 1176.71 1001.24 1178.28 995.69 1178.62 994.59 1179.93 989.74 1180.11 989.74 1016.26 702.9 960 604.41 960 702.91 1127.19 995.63 1127.22 995.69 1124.08 1003.63 1124.08 1003.63 1123.02 1006.33 1117.96 1016.53 1117.54 1017.37 1112.35 1026.59 1109.68 1030.7 1106.18 1036.09 1104.22 1038.78 1100.71 1043.6 1099.3 1045.3 1105.48 1056.07 1107 1058.73 1112.37 1068.11 1112.38 1068.13 1113.89 1070.77 1118.95 1079.45 1121.89 1084.69 1125.01 1090.18 1125.12 1090.36 1134.65 1079.45 1130.02 1084.69 1129.91 1084.69 1129.94 1084.66 1131.43 1082.99 1134.39 1079.45 1134.47 1079.36 1137.6 1075.62 1143.24 1068.11 1143.3 1068.05 1143.35 1067.97 1148.82 1060.03 1151.33 1056.07 1151.36 1056.01"/><polygon class="cls-4" points="821.82 1173.97 818.38 1171.81 817.8 1171.46 821.82 1173.97"/><polygon class="cls-4" points="945.05 1161.51 939.84 1161.1 939.52 1161.08 937.73 1161.08 941.48 1161.51 946.35 1161.61 945.05 1161.51"/><polygon class="cls-4" points="967.84 913.5 960 899.75 960 899.75 952.43 913.5 952.49 913.5 952.46 913.55 900.02 1009.56 838.23 1122.81 836.74 1125.4 836.92 1125.51 836.93 1125.52 844.54 1130.18 844.79 1130.32 844.79 1130.32 849.04 1132.74 849.06 1132.74 852.54 1134.72 857.15 1137.13 860.68 1138.97 861.29 1139.26 861.3 1139.26 868.95 1142.8 869.63 1143.09 874.33 1145.07 874.36 1145.08 877.37 1146.34 882.66 1148.33 886.07 1149.6 887.37 1150.03 887.4 1150.03 894.77 1152.43 896.34 1152.86 896.36 1152.87 900.99 1154.13 901.05 1154.15 903.61 1154.85 910.07 1156.4 910.1 1156.41 912.44 1156.97 914.67 1157.39 914.78 1157.41 921.42 1158.67 924.18 1159.1 924.25 1159.11 929.6 1159.94 929.9 1159.99 927.59 1159.94 937.72 1161.08 937.55 1161.08 941.48 1161.51 937.73 1161.08 939.52 1161.08 939.84 1161.1 945.05 1161.51 946.35 1161.61 941.48 1161.51 952.43 1162.07 952.65 1162.07 955.37 1162.21 960 1162.17 969.4 1162.07 983.29 1161.08 980.65 1161.08 981.12 1161.04 985.25 1160.65 990.33 1159.94 990.45 1159.93 994.37 1159.38 996.01 1159.1 996.13 1159.08 1003.35 1157.82 1005.3 1157.39 1005.31 1157.39 1009.79 1156.4 1009.88 1156.38 1012.33 1155.84 1018.98 1154.13 1018.99 1154.13 1021.16 1153.57 1023.45 1152.86 1023.5 1152.84 1029.86 1150.87 1032.34 1150.03 1032.35 1150.02 1037.3 1148.33 1037.32 1148.32 1038.56 1147.9 1045.68 1145.07 1045.69 1145.07 1047.12 1144.5 1050.35 1143.09 1050.36 1143.08 1054.29 1141.36 1056.7 1140.23 1058.62 1139.26 1058.62 1139.26 1062.83 1137.13 1062.85 1137.11 1063.67 1136.7 1071.02 1132.74 1071.03 1132.74 1071.81 1132.31 1075.15 1130.32 1075.16 1130.32 1079.66 1127.63 1082.97 1125.51 1087.16 1122.81 1087.31 1122.72 1087.32 1122.71 967.84 913.5"/><polygon class="cls-4" points="1136.2 1208.13 1135.63 1207.14 1135.52 1206.94 1118.34 1176.91 1116.66 1173.97 1116.55 1173.78 1112.19 1166.18 1112.21 1166.18 1111.79 1165.47 1110.67 1166.1 1110.55 1166.18 1110.65 1166.18 1110.57 1166.23 1107.58 1168.08 1110.53 1166.19 1110.52 1166.18 1099.9 1172.82 1100.26 1172.6 1098.04 1173.97 1099.9 1172.82 1095.68 1175.29 1094.53 1175.96 1091.15 1177.8 1085.69 1180.78 1076.87 1185.1 1076.56 1185.25 1067.45 1189.28 1058.2 1193.11 1048.8 1196.51 1039.12 1199.63 1029.58 1202.32 1020.61 1204.52 1019.76 1204.73 1013.22 1206.05 1009.94 1206.72 1003.28 1207.86 1002.75 1207.94 1001.65 1208.13 1001.64 1208.13 999.98 1208.42 997.67 1208.71 992.13 1209.55 986.53 1210.04 980.06 1210.68 977.72 1210.82 975.99 1210.97 974.15 1211.02 970.1 1211.24 960 1211.39 960 1211.39 949.9 1211.24 945.95 1211.02 943.87 1210.97 941.93 1210.79 939.93 1210.68 933.86 1210.08 927.87 1209.55 922.33 1208.71 920.02 1208.42 918.35 1208.13 917.25 1207.94 912.02 1207.14 906.67 1206.03 900.24 1204.73 899.42 1204.53 890.41 1202.32 880.88 1199.63 871.2 1196.51 861.8 1193.11 852.54 1189.28 843.37 1185.21 843.2 1185.13 834.3 1180.78 825.46 1175.96 818.38 1171.81 821.82 1173.97 817.8 1171.46 818.38 1171.81 809.47 1166.18 809.46 1166.18 809.33 1166.1 808.21 1165.47 807.81 1166.18 807.8 1166.19 807.78 1166.18 803.3 1173.97 803.34 1173.97 803.34 1173.98 801.66 1176.91 784.48 1206.94 784.37 1207.14 783.8 1208.13 784.17 1208.13 786.35 1209.55 786.05 1209.55 787.3 1210.29 788.43 1210.97 788.55 1210.97 789.2 1211.39 789.2 1211.39 790.83 1212.45 794.27 1214.59 798.52 1217.06 798.53 1217.07 802.18 1219.19 813.12 1225.14 813.54 1225.14 813.56 1225.15 821.12 1228.97 828.92 1232.51 828.96 1232.52 830.79 1233.36 840.61 1237.47 844.68 1239.03 844.71 1239.04 844.12 1239.03 860.11 1244.69 860.15 1244.69 860.36 1244.77 863.86 1245.85 870.77 1247.95 877.24 1249.65 877.35 1249.68 881.02 1250.65 891.4 1253.2 893.62 1253.62 893.74 1253.64 892.8 1253.62 909.36 1256.74 910.69 1256.74 910.9 1256.78 909.36 1256.74 922.6 1258.41 922.88 1258.45 927.37 1258.86 927.87 1258.91 926.19 1258.86 943.03 1260.29 960 1260.71 960 1260.71 976.97 1260.29 972.37 1260.29 974.26 1260.21 976.97 1260.29 993.81 1258.86 992.63 1258.86 992.88 1258.84 997.04 1258.46 997.78 1258.36 1010.5 1256.74 1009.31 1256.74 1009.47 1256.71 1010.5 1256.74 1027.19 1253.62 1026.38 1253.62 1026.49 1253.6 1027.19 1253.62 1043.61 1249.65 1048.95 1248.03 1059.65 1244.77 1059.86 1244.69 1059.89 1244.69 1075.88 1239.03 1075.32 1239.03 1075.36 1239.01 1075.88 1239.03 1091.59 1232.51 1091.07 1232.51 1091.1 1232.49 1091.59 1232.51 1098.67 1229.07 1098.88 1228.97 1099.28 1228.77 1106.46 1225.14 1106.48 1225.13 1108.42 1224.15 1116.25 1220.02 1118.21 1218.96 1121.48 1217.06 1121.48 1217.05 1124.96 1215.03 1130.73 1211.39 1131.03 1211.24 1131.45 1210.97 1133.65 1209.55 1133.82 1209.55 1131.57 1210.97 1131.03 1211.24 1128.18 1213.08 1136.2 1208.13"/><polygon class="cls-5" points="960 604.4 956.77 609.93 956.84 609.93 956.81 609.98 912.75 687.12 910.71 690.69 903.74 702.9 900.66 708.43 739.89 989.74 740.07 989.74 740.08 989.76 741.67 995.69 741.68 995.71 742.21 997.66 742.91 1000.08 744.05 1003.63 744.05 1003.63 744.91 1006.33 744.92 1006.35 745.17 1007.14 745.92 1009.3 748.61 1016.53 748.87 1017.23 748.93 1017.37 748.94 1017.41 752.65 1026.16 752.85 1026.59 752.86 1026.6 754.75 1030.7 754.77 1030.72 756.72 1034.95 757.32 1036.09 757.33 1036.09 761.22 1043.45 761.3 1043.6 761.3 1043.6 762.27 1045.3 762.29 1045.35 765.99 1051.81 768.67 1056.07 768.74 1056.18 771.17 1060.03 776.65 1067.97 776.76 1068.11 776.89 1068.3 782.39 1075.62 785.6 1079.45 785.74 1079.62 785.34 1079.45 794.88 1090.36 794.99 1090.18 798.11 1084.69 801.05 1079.45 803.25 1075.68 807.56 1068.11 807.57 1068.09 814.42 1056.07 814.43 1056.04 820.55 1045.3 819.29 1043.6 815.78 1038.78 815.72 1038.68 813.82 1036.09 810.32 1030.7 807.65 1026.59 802.45 1017.37 802.04 1016.53 796.99 1006.33 795.92 1003.63 795.91 1003.61 792.78 995.69 792.81 995.63 960 702.9 960 702.91 960 604.41 960 604.4"/><polygon class="cls-4" points="762.75 1127.49 761.96 1126.64 761.95 1126.63 760.98 1125.58 758.41 1122.96 756.72 1121.02 756.65 1120.94 756.53 1120.81 756.02 1120.27 754.37 1118.34 749.1 1112.33 747.75 1110.77 743.63 1105.43 743.63 1105.42 743.25 1104.96 742.36 1103.77 742.25 1103.63 737.92 1098.01 737.5 1097.59 728.81 1084.69 727.26 1082.28 720.39 1070.95 718.06 1066.55 718.05 1066.54 712.82 1056.63 710.01 1050.4 706.22 1041.9 704.88 1038.48 703.98 1036.37 703.08 1033.96 703.07 1033.95 702.41 1032.18 700.33 1026.87 697.17 1017.23 697.17 1017.23 695.28 1011.42 692.36 1000.23 692.36 1000.22 691.21 995.83 689.81 988.75 688.69 983.08 688.13 979.82 686.02 965.79 685.88 963.8 685.5 959.64 685.46 959.27 685.43 958.88 684.48 948.5 684.48 947.65 684.06 931.49 684.06 930.93 684.62 915.34 684.76 913.5 686.02 899.18 686.44 896.21 688.4 883.17 689.25 878.91 691.77 867.3 693.17 861.77 693.29 861.35 693.46 860.63 694.23 857.99 695.98 851.71 697.64 846.63 698.18 844.9 698.19 844.9 699.21 841.64 699.89 839.76 701.03 836.25 702.38 832.81 702.57 832.29 702.94 831.4 704.2 828.18 704.21 828.17 706.92 821.23 709.84 815.06 710.29 814.01 711.39 811.74 711.45 811.63 713.79 806.64 714.64 805.08 714.85 804.68 719.27 796.29 719.61 795.72 719.61 795.72 720.59 794.03 720.64 793.95 721.51 792.33 723.25 789.47 724.32 787.64 727 783.33 728.95 780.13 729.93 778.58 732.08 775.52 735.12 771.07 739.16 765.4 739.26 765.26 739.47 764.83 740.31 763.78 740.87 762.99 747.05 755.19 748.02 754.06 749.15 752.64 751.39 750.09 752.69 748.62 753.5 747.68 756.4 744.44 756.91 743.88 759.81 740.6 760.09 740.31 760.24 740.16 764.35 735.92 764.36 735.91 766.96 733.23 769.3 731.01 769.31 731 771.17 729.12 773.3 727.2 773.48 727.04 774.12 726.43 775.3 725.39 778.86 722.17 778.86 722.17 783.1 718.35 787.68 714.75 789.13 713.53 792.06 711.31 794.83 709.14 795.72 708.43 799.47 705.77 804.98 701.76 806.55 700.74 808.91 699.07 812.82 696.67 812.85 696.65 813.26 696.38 821.68 691.14 822.44 690.71 822.45 690.7 830.24 686.32 832.99 684.9 833 684.9 836.58 683.06 836.6 683.05 839.07 681.78 847.91 677.67 849.12 677.14 851.28 676.12 853.28 675.33 856.69 673.85 856.75 673.83 857.03 673.7 865.77 670.3 865.83 670.28 866.14 670.3 870.03 663.5 870.04 663.49 875.54 653.87 880.56 645.08 880.57 645.07 881.7 643.09 885.08 637 889.15 629.91 892.8 623.54 895.89 618.15 898.55 613.61 900.66 609.93 890.14 612.05 885.18 613.29 883.88 613.61 883.76 613.64 881.73 614.15 867.98 617.92 867.22 618.15 867.19 618.16 865.6 618.65 853.97 622.47 850.92 623.54 850.85 623.56 849.31 624.1 848.55 624.4 835.15 629.69 834.61 629.91 834.61 629.91 834.17 630.1 821.04 636.02 819.85 636.58 819.01 637 818.99 637.01 815.77 638.64 803.58 645.08 793.86 650.77 791.79 652.02 788.83 653.87 788.78 653.89 785.5 655.93 774.26 663.5 765.14 670.3 761.54 672.97 761.5 673.01 760.44 673.85 758.96 675.01 757.64 676.12 757.61 676.13 749.83 682.59 749.29 683.06 748.23 683.93 747.15 684.9 747.14 684.91 741.48 690.03 740.75 690.71 740.36 691.07 734.5 696.67 734.49 696.67 733.02 698.08 732.03 699.07 732.02 699.09 728.46 702.68 724.87 706.39 724.48 706.79 724.43 706.85 723.01 708.43 722.37 709.14 722.36 709.16 718.29 713.67 714.23 718.35 714.22 718.35 711.27 721.75 710.93 722.17 710.92 722.18 708.71 724.94 705.47 729.12 705.46 729.12 700.63 735.36 700.2 735.92 699.83 736.42 699.72 736.57 696.86 740.6 696.86 740.6 692.54 746.64 691.91 747.54 690.29 750.09 690.29 750.1 688.67 752.64 688.66 752.67 686.16 756.61 681.07 764.83 680.72 765.4 680.72 765.4 680.55 765.68 675.37 775.01 675.36 775.04 673.5 778.58 672.69 780.13 672.67 780.16 670.81 783.71 666.91 791.75 666.63 792.33 666.63 792.33 666.63 792.33 665.68 794.31 665.06 795.72 665.05 795.74 662.71 801.07 660.68 805.85 660.37 806.64 658.36 811.74 658.34 811.78 657.4 814.15 654.73 821.23 654.71 821.29 653.37 825 652.37 828.18 652.36 828.21 650.39 834.56 649.88 836.25 649.87 836.26 647.3 844.76 647.27 844.9 647.27 844.92 645.54 851.71 645.53 851.72 644.63 855.25 643.15 861.77 643.15 861.79 642.25 865.74 642.22 865.9 641.97 867.3 641.73 868.56 640.29 876.36 639.89 878.91 639.88 878.93 639.21 883.17 639.21 883.18 638.83 885.59 638.46 888.23 637.51 896.21 637.51 896.21 637.34 897.62 637.2 899.18 637.2 899.22 636.36 908.39 636.1 913.5 636.09 913.5 635.99 915.34 635.99 915.36 635.8 919.1 635.8 919.25 635.52 929.93 635.53 930.93 635.54 931.49 635.54 931.55 635.66 940.7 635.93 947.65 635.96 948.5 635.96 948.55 636.08 951.47 636.92 962.24 637.09 963.8 637.09 963.81 637.29 965.79 637.3 965.85 638.04 972.88 638.95 979.82 638.95 979.83 639.38 983.08 639.39 983.1 639.44 983.51 640.71 990.91 641.45 994.98 641.62 995.83 641.62 995.84 642.56 1000.23 642.56 1000.26 643.51 1004.76 645.12 1011.42 645.12 1011.43 646.03 1015.25 646.57 1017.23 646.59 1017.29 648.84 1025.6 649.24 1026.87 649.25 1026.88 651.49 1033.96 651.5 1033.99 651.5 1034 652.07 1035.8 654.17 1041.9 654.17 1041.92 655.58 1046 657.24 1050.4 657.24 1050.43 659.04 1055.23 659.07 1055.28 659.65 1056.63 660.78 1059.4 660.85 1059.57 663.57 1065.98 663.84 1066.55 663.84 1066.56 665.86 1070.95 665.86 1070.96 667.32 1074.14 667.45 1074.41 668.42 1076.49 668.43 1076.5 671.29 1082.28 671.29 1082.29 672.1 1083.92 672.11 1083.93 672.55 1084.69 675.12 1089.52 675.23 1089.7 678.03 1094.76 679.68 1097.59 679.93 1098.01 679.96 1098.06 683.5 1104.11 687.62 1110.77 688.58 1112.33 688.59 1112.36 689.1 1113.18 692.81 1118.66 695.8 1122.96 695.8 1122.96 696.6 1124.1 698.45 1126.64 698.46 1126.65 700.65 1129.66 700.74 1129.78 702.3 1131.85 702.37 1131.93 702.73 1132.4 704.31 1134.44 704.32 1134.44 708.05 1139.26 709.11 1140.53 709.18 1140.61 709.18 1140.61 714.92 1147.47 720.43 1153.71 720.61 1153.91 721.93 1155.41 729.37 1163.2 732.31 1166.18 732.46 1166.33 734.64 1168.54 740.35 1173.97 740.79 1174.4 744.8 1178.23 759.92 1151.56 760.12 1151.22 766.17 1140.53 766.18 1140.53 769.63 1134.44 765.5 1130.21 762.75 1127.49"/><path class="cls-6" d="M780.37,1567.39a23.15,23.15,0,0,0-3.36-2.5,41.24,41.24,0,0,0-5.92-3.09,50.77,50.77,0,0,0-7.56-2.57,33.17,33.17,0,0,0-8.29-1q-7.5,0-11.18,2.76a9.13,9.13,0,0,0-3.69,7.76,8,8,0,0,0,1.38,4.81,11.86,11.86,0,0,0,4,3.35,33.21,33.21,0,0,0,6.64,2.63c2.67.79,5.77,1.63,9.27,2.5q6.84,1.85,12.44,4a33.85,33.85,0,0,1,9.47,5.26,21.77,21.77,0,0,1,6,7.56,25,25,0,0,1,2.11,10.86,27.06,27.06,0,0,1-2.83,12.82,23.74,23.74,0,0,1-7.63,8.62,33.28,33.28,0,0,1-11.05,4.8,55.41,55.41,0,0,1-13.09,1.52,70.53,70.53,0,0,1-20.79-3.16,64.16,64.16,0,0,1-18.41-9l8-15.65a25.38,25.38,0,0,0,4.28,3.09,65,65,0,0,0,7.3,3.81,56.11,56.11,0,0,0,9.34,3.23,42.53,42.53,0,0,0,10.52,1.31q15,0,15-9.6a7.86,7.86,0,0,0-1.71-5.13,14.47,14.47,0,0,0-4.87-3.68,46,46,0,0,0-7.63-2.9q-4.47-1.3-10-2.89a85,85,0,0,1-11.64-4,30.2,30.2,0,0,1-8.22-5.13,19.12,19.12,0,0,1-4.93-6.84,23.56,23.56,0,0,1-1.65-9.27,29.07,29.07,0,0,1,2.63-12.63,25.69,25.69,0,0,1,7.3-9.21,33.17,33.17,0,0,1,10.86-5.59,44.87,44.87,0,0,1,13.28-1.91,51.63,51.63,0,0,1,18.16,3.09,68.4,68.4,0,0,1,14.47,7.3Z"/><path class="cls-6" d="M874.56,1558.84H844.69v77.48h-18v-77.48H796.81v-15.92h77.75Z"/><path class="cls-6" d="M925.6,1620.93a20.79,20.79,0,0,0,10.85-2.63,21.17,21.17,0,0,0,7.11-6.84,28.53,28.53,0,0,0,3.81-9.67,55.61,55.61,0,0,0,1.12-11.25v-47.62h18v47.62a68.26,68.26,0,0,1-2.3,18A41.39,41.39,0,0,1,957,1623.3a34.75,34.75,0,0,1-12.69,10q-7.77,3.67-18.55,3.68-11.19,0-19-3.88A35.46,35.46,0,0,1,894,1622.84a40.83,40.83,0,0,1-7-14.8,69.69,69.69,0,0,1-2.17-17.5v-47.62H903v47.62a56.25,56.25,0,0,0,1.12,11.38,28.24,28.24,0,0,0,3.81,9.67,19.76,19.76,0,0,0,17.7,9.34Z"/><path class="cls-6" d="M984.8,1636.32v-93.4h33.94a50.78,50.78,0,0,1,20.06,3.68,40.32,40.32,0,0,1,23.09,24.8,55.67,55.67,0,0,1,2.89,18.09,54.63,54.63,0,0,1-3.22,19.27,41.2,41.2,0,0,1-9.27,14.74,42.05,42.05,0,0,1-14.54,9.47,51.49,51.49,0,0,1-19,3.35Zm61.7-46.83a39.72,39.72,0,0,0-1.85-12.37,27.49,27.49,0,0,0-5.39-9.73,24.08,24.08,0,0,0-8.75-6.32,29.52,29.52,0,0,0-11.77-2.23H1003v61.56h15.79a28.37,28.37,0,0,0,11.9-2.36,24.35,24.35,0,0,0,8.69-6.52,28.77,28.77,0,0,0,5.32-9.8A39.18,39.18,0,0,0,1046.5,1589.49Z"/><path class="cls-6" d="M1079,1636.32v-93.4h18.15v93.4Z"/><path class="cls-6" d="M1156.47,1637a42.49,42.49,0,0,1-18.61-4,45.78,45.78,0,0,1-14.34-10.66,49.43,49.43,0,0,1-12.56-32.69,47,47,0,0,1,3.48-17.89,49.54,49.54,0,0,1,9.61-15.13,45.86,45.86,0,0,1,14.53-10.46,43.26,43.26,0,0,1,18.29-3.88,40.92,40.92,0,0,1,18.48,4.15,46.22,46.22,0,0,1,14.28,10.85,50,50,0,0,1,9.2,15.26,47.86,47.86,0,0,1,3.29,17.36,47.26,47.26,0,0,1-3.42,17.83,48.43,48.43,0,0,1-9.47,15,45.58,45.58,0,0,1-14.47,10.39A43.11,43.11,0,0,1,1156.47,1637Zm-27.1-47.36a37.5,37.5,0,0,0,1.85,11.71,31.25,31.25,0,0,0,5.32,10,26.61,26.61,0,0,0,8.55,7,26.49,26.49,0,0,0,23.16-.07,26.44,26.44,0,0,0,8.55-7.17,31.89,31.89,0,0,0,5.26-10.06,37.21,37.21,0,0,0,1.78-11.38,36.51,36.51,0,0,0-1.91-11.71,32.41,32.41,0,0,0-5.39-10,25.84,25.84,0,0,0-8.56-6.9,26.59,26.59,0,0,0-23.08.13,26.07,26.07,0,0,0-8.55,7.1,31.74,31.74,0,0,0-5.2,10A37.51,37.51,0,0,0,1129.37,1589.62Z"/></g></svg>