<?xml version="1.0" encoding="utf-8"?>
<!-- Generator: Adobe Illustrator 24.0.0, SVG Export Plug-In . SVG Version: 6.00 Build 0)  -->
<svg version="1.1" id="Layer_1" xmlns="http://www.w3.org/2000/svg" xmlns:xlink="http://www.w3.org/1999/xlink" x="0px" y="0px"
	 viewBox="0 0 1920 1920" style="enable-background:new 0 0 1920 1920;" xml:space="preserve">
<style type="text/css">
	.st0{fill:#F2F2F2;}
</style>
<title>iconCuadrado</title>
<g id="Layer_3">
	<polygon class="st0" points="1139.7,1371.3 1140.4,1371.3 1139.8,1371.3 	"/>
	<polygon class="st0" points="1118.1,1380.3 1118.9,1380.3 1118.2,1380.3 	"/>
	<polygon class="st0" points="1051,1400.3 1052.1,1400.3 1051.2,1400.3 	"/>
	<polygon class="st0" points="977,1409.4 983.3,1409.4 979.5,1409.3 	"/>
	<polygon class="st0" points="1027.6,1404.6 1029.3,1404.6 1027.8,1404.5 	"/>
	<polygon class="st0" points="1198.4,1339.8 1198.1,1339.8 1195.1,1341.8 1194.5,1342.2 1195.3,1341.8 	"/>
	<polygon class="st0" points="892.4,1404.6 890.5,1404.6 892.7,1404.6 	"/>
	<path class="st0" d="M466.5,1429.4h-54.9V1572h-33.2v-142.6h-54.9v-29.3h143.1V1429.4z"/>
	<path class="st0" d="M487.8,1572v-171.9h76c7.6-0.1,15.1,1.7,21.9,5c6.6,3.2,12.5,7.6,17.3,13c4.8,5.4,8.7,11.6,11.4,18.4
		c2.7,6.6,4.1,13.6,4.1,20.7c0.1,10.7-2.8,21.2-8.3,30.4c-5.2,8.8-13.2,15.7-22.6,19.7l39.2,64.7h-37.5l-35.1-57.6h-32.9v57.6H487.8
		z M521.2,1485.1H563c3,0,6-0.7,8.6-2.2c2.7-1.5,5-3.5,6.9-5.9c2-2.7,3.6-5.6,4.6-8.8c1.2-3.5,1.7-7.2,1.7-10.9
		c0-3.8-0.6-7.6-1.9-11.1c-1.2-3.2-3-6.2-5.2-8.8c-2.1-2.4-4.6-4.4-7.5-5.8c-2.7-1.3-5.6-2-8.6-2.1h-40.4V1485.1z"/>
	<path class="st0" d="M648.7,1572v-171.9h33.4V1572H648.7z"/>
	<path class="st0" d="M858.1,1572v-113.8l-44.3,84.7h-18.2l-44.3-84.7V1572H718v-171.9h35.8l50.8,97.8l51.3-97.8h35.5V1572H858.1z"
		/>
	<path class="st0" d="M1046.7,1542.7v29.3H927.3v-171.9h117.2v29.3h-83.8v41.4h72.4v27.1h-72.4v44.8L1046.7,1542.7z"/>
	<path class="st0" d="M1201.3,1429.4h-54.9V1572h-33.2v-142.6h-55v-29.3h143.1L1201.3,1429.4z"/>
	<path class="st0" d="M1222.6,1572v-171.9h76c7.6-0.1,15.1,1.7,21.9,5c6.6,3.2,12.4,7.6,17.3,13.1c4.8,5.4,8.7,11.6,11.4,18.4
		c2.7,6.6,4.1,13.6,4.1,20.7c0.1,10.7-2.8,21.2-8.3,30.4c-5.2,8.8-13.2,15.7-22.6,19.7l39.2,64.6h-37.5l-35.1-57.6h-33v57.6H1222.6z
		 M1256,1485.1h41.9c3,0,6-0.7,8.6-2.2c2.7-1.5,5-3.5,6.9-5.9c2-2.7,3.6-5.6,4.6-8.8c1.1-3.5,1.7-7.2,1.7-10.9
		c0-3.8-0.6-7.6-1.9-11.1c-1.2-3.2-3-6.2-5.2-8.8c-2.1-2.4-4.6-4.4-7.5-5.8c-2.7-1.3-5.6-2-8.6-2.1H1256L1256,1485.1z"/>
	<path class="st0" d="M1383.6,1572v-171.9h33.4V1572H1383.6z M1408.5,1385.6l-20.8-6.3l13.1-28.8h30.2L1408.5,1385.6z"/>
	<path class="st0" d="M1501.7,1400.1h29.5l65.3,171.9h-34.4l-16-42.8h-60l-15.7,42.8h-34.4L1501.7,1400.1z M1540.2,1505.7
		l-23.7-67.5l-24.7,67.5H1540.2z"/>
	<polygon class="st0" points="1170.7,1201.7 1170.2,1202.1 1167.4,1203.8 	"/>
	<polygon class="st0" points="1447.1,822.3 1447.1,822.1 1447.1,820.3 1447.1,820.2 1446.8,815.2 1446.7,812.4 1446.7,812.4 
		1446.3,806.2 1446.3,806.2 1445,790.9 1445,790.8 1444.8,788.6 1444.5,786.4 1444.5,786.4 1443.1,774.5 1443.1,774.4 1442.6,770.7 
		1442.6,770.5 1442,766.8 1442,766.8 1441,760.5 1441,760.4 1440.4,756.6 1439,749 1437.8,743 1437.8,743 1436.7,737.4 
		1436.1,734.7 1436.1,734.7 1434.7,728.6 1432.8,721 1432.5,719.6 1432.5,719.6 1429.9,709.4 1429.9,709.3 1429.8,709.2 
		1425.9,696.4 1425.9,696.4 1425.2,693.8 1422.2,684.2 1422.2,684.2 1420.7,679.3 1420.6,679.3 1418.9,674.5 1418.9,674.4 
		1418.6,673.8 1414.6,663.2 1413.2,659.5 1413.2,659.5 1410.2,651.9 1410.2,651.9 1409.6,650.3 1409.6,650.3 1409.5,650.1 
		1407.1,644.5 1407,644.2 1406.9,644 1403.1,635.5 1403.1,635.5 1402.2,633.4 1402.2,633.3 1400.7,630.4 1394.2,616.9 1394.2,616.9 
		1391.7,612 1390.5,609.7 1390.4,609.7 1387.8,604.6 1387.7,604.4 1386.3,602 1385.6,600.6 1385.5,600.5 1379.9,590.3 1379.6,589.9 
		1379.1,589.1 1379.1,589 1371.4,576.7 1367.7,570.7 1367.7,570.7 1365.2,566.9 1365.2,566.9 1364.3,565.5 1355.3,552.6 
		1355.3,552.6 1350.8,546.2 1349.7,544.8 1342.4,535.4 1342.4,535.4 1337.3,528.8 1334.2,525 1334.2,525 1333.7,524.3 1329.3,519.2 
		1329.3,519.2 1323.2,512.2 1317,505.4 1317,505.4 1316.1,504.3 1316.1,504.3 1316.1,504.3 1313.9,502 1313.9,501.9 1313.9,501.9 
		1313.3,501.3 1312.5,500.5 1307.9,495.7 1302.5,490.3 1302.5,490.3 1301,488.8 1298.8,486.6 1298.8,486.6 1293.1,481.2 1292.9,481 
		1292.8,480.9 1289.2,477.7 1284.1,472.8 1284,472.7 1279.8,469 1278.1,467.5 1278.1,467.4 1276.6,466.2 1275.6,465.3 1275.4,465.2 
		1264.1,455.8 1264,455.8 1262.1,454.1 1259.8,452.4 1258.4,451.2 1258.3,451.1 1258.2,451 1258.1,451 1252.8,447 1239.1,436.8 
		1220,424.1 1219.9,424 1219.8,424 1217.2,422.3 1217.1,422.3 1213.7,420.2 1213.7,420.2 1213.6,420.1 1195,409.1 1176.7,399.5 
		1176.5,399.3 1171.8,397 1171.8,397 1171.8,397 1170.6,396.4 1169.4,395.8 1169.3,395.8 1169,395.6 1149.3,386.7 1149.1,386.7 
		1148.4,386.4 1148.4,386.3 1147.8,386.1 1147.7,386 1147.5,386 1141.3,383.4 1128.1,378.3 1139.7,382.9 1127.9,378.2 1127.4,378.1 
		1126.3,377.6 1123.9,376.8 1123.7,376.7 1119.6,375.3 1119.3,375.2 1111.1,372.3 1101.9,369.5 1101.9,369.4 1101.8,369.4 
		1099.4,368.7 1099.3,368.6 1099.3,368.6 1098.3,368.4 1098.3,368.3 1095.9,367.6 1080.3,363.4 1075.3,362.1 1075.3,362.1 
		1074.4,361.9 1074,361.8 1073.9,361.7 1073.8,361.7 1065,359.5 1049.2,356.3 1052.3,361.9 1052.3,361.9 1052.4,361.9 1052.4,362.1 
		1052.6,362.3 1063.9,382.2 1066.3,386.4 1066.3,386.4 1066.2,386.4 1068.6,390.4 1068.7,390.4 1074.8,401.2 1077.8,406.4 
		1078,406.8 1079.3,409.1 1079.3,409.1 1086.9,422.3 1086.9,422.3 1095.2,436.8 1101,447 1101.6,447 1101.6,447.1 1114.7,452.1 
		1115.2,452.4 1115.3,452.4 1120.3,454.6 1123.4,455.8 1126.6,457.3 1126.7,457.3 1128.4,458.1 1141.7,464.3 1145.4,466.2 
		1145.4,466.2 1150.8,469 1150.9,469 1155,471.1 1166.7,477.7 1166.7,477.7 1166.7,477.7 1167.8,478.3 1180.5,486.2 1181.1,486.6 
		1181.1,486.6 1182.1,487.3 1187,490.3 1190.4,492.7 1190.5,492.7 1192.9,494.3 1201,500.2 1201.3,500.4 1201.3,500.4 1206.8,504.3 
		1208.2,505.4 1208.2,505.4 1211,507.6 1216.7,512 1221.1,515.7 1225.6,519.2 1232.1,525 1236.6,529 1236.6,529 1236.8,529.2 
		1239.3,531.3 1240.3,532.3 1240.4,532.4 1240.4,532.5 1243.7,535.4 1246.5,538.2 1246.6,538.3 1246.6,538.3 1246.6,538.3 
		1246.6,538.4 1250,541.6 1253.9,545.6 1254,545.6 1259.5,551.3 1259.8,551.7 1260.2,552 1260.8,552.6 1265.1,557.6 1265.9,558.4 
		1266,558.5 1270.3,563.3 1271.5,564.7 1271.5,564.7 1271.5,564.8 1273.4,566.9 1276.8,570.7 1278.5,572.9 1280,574.6 1289.2,586.3 
		1290.1,587.4 1290.1,587.5 1291.3,589.1 1291.6,589.7 1291.6,589.7 1291.7,589.7 1291.8,589.9 1291.8,589.9 1297.9,598.4 
		1302.2,604.8 1302.3,604.8 1302.3,605 1305.7,609.7 1307.2,612 1309.7,616.2 1309.9,616.6 1314.1,623.3 1315.8,626.3 1315.9,626.4 
		1318.3,630.4 1319.6,632.7 1319.6,632.7 1321.2,635.5 1321.2,635.5 1321.7,636.3 1328.7,649.5 1328.7,649.6 1329.9,651.9 
		1333,658.6 1333.1,658.7 1333.5,659.5 1335.2,662.9 1337.2,667.5 1337.2,667.7 1340,673.8 1344.3,684.2 1344.8,685.5 1344.9,685.8 
		1346.8,690.4 1347.3,691.9 1347.3,691.9 1347.4,692.1 1349.1,696.4 1350.7,701.4 1350.8,701.5 1350.8,701.7 1351.8,704.5 
		1353.4,709.4 1353.4,709.4 1354.2,712 1356.7,719.6 1359.2,728.5 1359.3,728.9 1360.5,733 1360.8,734.3 1360.8,734.4 1360.9,734.7 
		1363,743 1366.7,760.5 1366.7,760.5 1368.1,766.8 1371,786.4 1371.7,790.9 1373.6,812.4 1373.8,815.2 1374.6,838.6 1374.6,839.5 
		1374,863.7 1373.8,865 1373.8,865 1372.6,879 1372.5,881.2 1372.3,882.5 1371.9,888 1371.4,891 1371.2,893.1 1370.8,896.1 
		1370.1,900.8 1370,901.1 1368.5,912.1 1367.6,917 1365.9,925.5 1363.8,936.1 1362.1,942.7 1362.1,942.8 1357.5,959.6 1354.8,968.3 
		1350.1,982.8 1347.3,990.1 1346,993.4 1346,993.4 1344.7,997 1343.2,1000.5 1341.3,1005.3 1335.6,1018.1 1331.2,1027.5 
		1327.2,1035.2 1325.9,1037.7 1325.2,1039 1323.4,1042.4 1323.4,1042.4 1324.3,1040.6 1318.7,1050.7 1311.4,1063 1320,1049 
		1309.7,1066 1307.4,1069.7 1294.3,1089 1293.7,1089.7 1287.2,1098.1 1285.7,1100.1 1285.1,1100.8 1278.9,1108.8 1276.9,1111.2 
		1276.9,1111.2 1269,1120.2 1266.5,1123.1 1265.7,1123.9 1265.5,1124.1 1265.4,1124.2 1262.9,1127.1 1259,1131.1 1257.6,1132.7 
		1257.5,1132.7 1256.4,1133.9 1252.2,1138 1246,1144.4 1251.2,1153.5 1251.2,1153.6 1261.3,1171.3 1261.8,1172.1 1262.5,1173.3 
		1273.2,1192.1 1279.8,1203.8 1283.3,1210.2 1290.1,1203.8 1290.1,1203.8 1289.4,1204.4 1290,1203.8 1290.1,1203.8 1298.6,1195.6 
		1302.1,1192.1 1302.2,1192 1306.5,1187.6 1317.7,1175.9 1319.9,1173.3 1320,1173.3 1328.2,1164 1336.9,1153.5 1337,1153.5 
		1338.6,1151.6 1344.2,1144.4 1344.2,1144.4 1346.9,1140.8 1347.4,1140.1 1347.6,1139.9 1349,1138.1 1349.2,1137.9 1349.4,1137.6 
		1353,1132.7 1353,1132.7 1355.1,1129.7 1355.2,1129.7 1356.9,1127.1 1367.3,1111.9 1367.3,1111.9 1367.8,1111.2 1369.2,1108.8 
		1369.3,1108.8 1369.3,1108.8 1375.3,1099.2 1381.6,1089 1381.1,1089.7 1380.8,1089.7 1381.2,1089 1381.2,1088.9 1383.7,1084.8 
		1387.7,1077.5 1391.9,1069.7 1392.6,1068.4 1393.8,1066 1393.8,1066 1398.1,1057.3 1399.7,1053.8 1401.9,1049 1405,1042.4 
		1405,1042.3 1405.4,1041.5 1408.8,1033.5 1411.2,1027.5 1413,1023.2 1414.9,1018.1 1414.9,1018.1 1417.2,1011.9 1418,1009.7 
		1419.5,1005.3 1419.5,1005.3 1422.7,996.2 1423.5,993.4 1423.5,993.4 1426,985.8 1426.8,982.8 1426.8,982.8 1428.8,976.1 
		1430.9,968.3 1430.9,968.3 1431.7,965.3 1433.1,959.6 1433.1,959.5 1435.5,949.5 1436.9,942.7 1436.9,942.7 1438.3,936.1 
		1438.4,936.1 1438.6,934.8 1439.6,929.4 1441.6,917.6 1441.7,917 1441.7,917 1442.3,912.1 1442.3,912 1443.7,901.6 1444.9,891 
		1444.9,891 1445.2,888 1445.2,887.9 1445.4,885.7 1446.7,869.5 1446.9,865 1446.9,863.7 1446.9,863.7 1447.3,853.3 1447.5,839.5 
		1447.5,838.6 1447.5,838.5 1447.5,837.1 	"/>
	<polygon class="st0" points="1247.5,1026.5 1251.5,1020.2 1257.1,1010.5 1257.1,1010.4 1258.6,1007.9 1258.6,1007.8 1258.7,1007.7 
		1264.5,996.6 1264.5,996.6 1265.4,994.9 1268.4,988.5 1268.4,988.5 1271.2,982.3 1271.2,982.3 1271.5,981.7 1277.1,968.5 
		1277.2,968.3 1277.6,967.2 1277.6,967.2 1278.5,964.9 1283.1,951.9 1283.5,951 1284.5,947.8 1284.5,947.8 1285.6,944.3 1288,935.9 
		1288.5,934.3 1290.4,927 1290.7,927 1044.5,496 960,348 960,496 1211.2,935.8 1211.3,935.9 1206.5,947.8 1206.5,947.8 
		1204.9,951.9 1197.3,967.2 1196.7,968.5 1188.9,982.3 1184.9,988.5 1179.6,996.6 1176.7,1000.7 1171.4,1007.9 1169.3,1010.5 
		1178.6,1026.6 1180.9,1030.6 1188.9,1044.7 1188.9,1044.8 1191.2,1048.7 1198.8,1061.8 1203.2,1069.7 1207.9,1077.9 1208.1,1078.2 
		1222.4,1061.8 1215.5,1069.7 1215.3,1069.7 1215.3,1069.6 1217.6,1067.1 1222,1061.8 1222.1,1061.6 1226.8,1056 1235.3,1044.7 
		1235.4,1044.6 1235.5,1044.5 1243.7,1032.6 1247.5,1026.6 	"/>
	<polygon class="st0" points="752.4,1203.8 747.2,1200.5 746.3,1200 	"/>
	<polygon class="st0" points="937.5,1185.1 929.7,1184.4 929.2,1184.4 926.5,1184.4 932.2,1185.1 939.5,1185.2 	"/>
	<polygon class="st0" points="971.8,812.4 960,791.8 960,791.8 948.6,812.4 948.7,812.4 948.7,812.5 869.9,956.8 777,1126.9 
		774.8,1130.8 775.1,1131 775.1,1131 786.5,1138 786.9,1138.2 786.9,1138.2 793.3,1141.8 793.3,1141.8 798.5,1144.8 805.5,1148.4 
		810.8,1151.2 811.7,1151.6 811.7,1151.6 823.2,1156.9 824.2,1157.4 831.3,1160.4 831.3,1160.4 835.8,1162.3 843.8,1165.3 
		848.9,1167.2 850.9,1167.8 850.9,1167.8 862,1171.4 864.4,1172.1 864.4,1172.1 871.3,1174 871.4,1174 875.3,1175.1 885,1177.4 
		885,1177.4 888.5,1178.2 891.9,1178.9 892,1178.9 902,1180.8 906.2,1181.4 906.3,1181.4 914.3,1182.7 914.8,1182.8 911.3,1182.7 
		926.5,1184.4 926.3,1184.4 932.2,1185.1 926.5,1184.4 929.2,1184.4 929.7,1184.4 937.5,1185.1 939.5,1185.2 932.2,1185.1 
		948.6,1185.9 949,1185.9 953,1186.1 960,1186.1 974.1,1185.9 995,1184.4 991,1184.4 991.7,1184.3 997.9,1183.8 1005.6,1182.7 
		1005.8,1182.7 1011.6,1181.9 1014.1,1181.4 1014.3,1181.4 1025.1,1179.5 1028.1,1178.9 1028.1,1178.9 1034.8,1177.4 1034.9,1177.3 
		1038.6,1176.5 1048.6,1174 1048.6,1174 1051.9,1173.1 1055.3,1172.1 1055.4,1172 1065,1169.1 1068.7,1167.8 1068.7,1167.8 
		1076.1,1165.3 1076.2,1165.2 1078,1164.6 1088.7,1160.4 1088.7,1160.4 1090.9,1159.5 1095.7,1157.4 1095.8,1157.4 1101.7,1154.8 
		1105.3,1153.1 1108.2,1151.6 1108.2,1151.6 1114.5,1148.4 1114.5,1148.4 1115.8,1147.8 1126.8,1141.8 1126.8,1141.8 1128,1141.2 
		1133,1138.2 1133,1138.2 1139.8,1134.2 1144.8,1131 1151.1,1126.9 1151.3,1126.8 1151.3,1126.8 	"/>
	<polygon class="st0" points="1224.7,1255.1 1223.9,1253.6 1223.7,1253.3 1197.9,1208.2 1195.4,1203.8 1195.2,1203.5 1188.7,1192.1 
		1188.7,1192.1 1188.1,1191 1186.4,1191.9 1186.2,1192.1 1186.3,1192.1 1186.2,1192.2 1181.7,1194.9 1186.2,1192.1 1186.2,1192.1 
		1170.2,1202.1 1170.7,1201.7 1167.4,1203.8 1170.2,1202.1 1163.8,1205.8 1162.1,1206.8 1157.1,1209.5 1148.8,1214 1135.6,1220.5 
		1135.1,1220.7 1121.4,1226.8 1107.6,1232.5 1093.4,1237.6 1078.9,1242.3 1064.5,1246.4 1051.1,1249.7 1049.8,1250 1039.9,1252 
		1035,1253 1025,1254.7 1024.2,1254.8 1022.6,1255.1 1022.6,1255.1 1020.1,1255.5 1016.6,1256 1008.3,1257.2 999.9,1258 
		990.1,1258.9 986.6,1259.1 984,1259.4 981.3,1259.4 975.2,1259.8 960,1260 960,1260 944.8,1259.8 938.9,1259.4 935.8,1259.4 
		932.9,1259.1 929.8,1258.9 920.7,1258 911.7,1257.2 903.4,1256 899.9,1255.5 897.4,1255.1 895.8,1254.8 887.9,1253.6 879.9,1251.9 
		870.2,1250 869,1249.7 855.5,1246.4 841.1,1242.3 826.6,1237.6 812.5,1232.5 798.5,1226.8 784.8,1220.7 784.5,1220.6 771.1,1214 
		757.9,1206.8 747.2,1200.5 752.4,1203.8 746.3,1200 747.2,1200.5 733.8,1192.1 733.8,1192.1 733.6,1191.9 731.9,1191 731.3,1192.1 
		731.3,1192.1 731.3,1192.1 724.6,1203.8 724.6,1203.8 724.6,1203.8 722.1,1208.2 696.3,1253.3 696.1,1253.6 695.3,1255.1 
		695.8,1255.1 699.1,1257.2 698.6,1257.2 700.5,1258.3 702.2,1259.4 702.4,1259.4 703.4,1260 703.4,1260 705.8,1261.6 711,1264.8 
		717.4,1268.5 717.4,1268.5 722.9,1271.7 739.3,1280.7 739.9,1280.7 740,1280.7 751.3,1286.4 763.1,1291.7 763.1,1291.8 765.9,1293 
		780.6,1299.2 786.7,1301.5 786.8,1301.6 785.9,1301.5 809.9,1310 810,1310 810.3,1310.2 815.5,1311.8 825.9,1314.9 835.7,1317.5 
		835.8,1317.5 841.3,1319 856.9,1322.8 860.3,1323.4 860.4,1323.5 859,1323.4 883.9,1328.1 885.9,1328.1 886.2,1328.2 883.9,1328.1 
		903.8,1330.7 904.2,1330.7 911,1331.3 911.7,1331.4 909.2,1331.3 934.5,1333.5 960,1334.1 960,1334.1 985.5,1333.5 978.6,1333.5 
		981.4,1333.4 985.5,1333.5 1010.8,1331.3 1009,1331.3 1009.4,1331.3 1015.7,1330.7 1016.8,1330.6 1035.9,1328.1 1034.1,1328.1 
		1034.3,1328.1 1035.9,1328.1 1061,1323.4 1059.7,1323.4 1059.9,1323.4 1061,1323.4 1085.6,1317.5 1093.6,1315.1 1109.7,1310.2 
		1110,1310 1110.1,1310 1134.1,1301.5 1133.3,1301.5 1133.3,1301.5 1134.1,1301.5 1157.7,1291.7 1156.9,1291.7 1157,1291.7 
		1157.7,1291.7 1168.3,1286.6 1168.7,1286.4 1169.3,1286.1 1180.1,1280.7 1180.1,1280.7 1183,1279.2 1194.8,1273 1197.7,1271.4 
		1202.6,1268.5 1202.6,1268.5 1207.8,1265.5 1216.5,1260 1217,1259.8 1217.6,1259.4 1220.9,1257.2 1221.2,1257.2 1217.8,1259.4 
		1217,1259.8 1212.7,1262.6 	"/>
	<polygon class="st0" points="960,348 955.2,356.3 955.3,356.3 955.2,356.4 889,472.3 885.9,477.7 875.5,496 870.8,504.3 629.3,927 
		629.6,927 629.6,927 632,935.9 632,935.9 632.8,938.9 633.8,942.5 635.5,947.8 635.5,947.8 636.8,951.9 636.8,951.9 637.2,953.1 
		638.4,956.4 642.4,967.2 642.8,968.3 642.9,968.5 642.9,968.5 648.5,981.7 648.8,982.3 648.8,982.4 651.6,988.5 651.7,988.6 
		654.6,994.9 655.5,996.6 655.5,996.6 661.3,1007.7 661.5,1007.9 661.5,1007.9 662.9,1010.5 663,1010.5 668.5,1020.2 672.5,1026.6 
		672.6,1026.8 676.3,1032.6 684.5,1044.5 684.7,1044.7 684.9,1045 693.2,1056 698,1061.8 698.2,1062 697.6,1061.8 711.9,1078.2 
		712.1,1077.9 716.8,1069.7 721.2,1061.8 724.5,1056.1 731,1044.7 731,1044.7 741.3,1026.6 741.3,1026.6 750.5,1010.5 748.6,1007.9 
		743.3,1000.7 743.2,1000.5 740.4,996.6 735.1,988.5 731.1,982.3 723.3,968.5 722.7,967.2 715.1,951.9 713.5,947.8 713.5,947.8 
		708.8,935.9 708.8,935.8 960,496 960,496 960,348 	"/>
	<polygon class="st0" points="663.6,1133.9 662.5,1132.7 662.4,1132.7 661,1131.1 657.1,1127.1 654.6,1124.2 654.5,1124.1 
		654.3,1123.9 653.5,1123.1 651,1120.2 643.1,1111.2 641.1,1108.8 634.9,1100.8 634.9,1100.8 634.3,1100.1 633,1098.3 632.8,1098.1 
		626.3,1089.7 625.7,1089 612.6,1069.7 610.3,1066 600,1049 596.5,1042.4 596.5,1042.4 588.6,1027.5 584.4,1018.1 578.7,1005.3 
		576.7,1000.2 575.3,997 574,993.4 574,993.4 573,990.8 569.8,982.8 565.1,968.3 565.1,968.3 562.3,959.6 557.9,942.7 557.9,942.7 
		556.2,936.1 554,925.5 552.4,917 551.5,912.1 548.3,891 548.1,888 547.6,881.8 547.5,881.2 547.5,880.6 546,865 546,863.7 
		545.4,839.5 545.4,838.6 546.2,815.2 546.5,812.4 548.3,790.9 549,786.4 551.9,766.8 553.2,760.5 557,743 559.1,734.7 559.3,734.1 
		559.5,733 560.7,729 563.3,719.6 565.8,712 566.6,709.4 566.6,709.3 568.2,704.5 569.2,701.6 570.9,696.4 572.9,691.2 573.2,690.4 
		573.8,689.1 575.7,684.2 575.7,684.2 579.8,673.8 584.1,664.5 584.8,662.9 586.5,659.5 586.5,659.4 590.1,651.9 591.3,649.5 
		591.7,648.9 598.3,636.3 598.8,635.5 598.8,635.5 600.3,632.9 600.4,632.8 601.7,630.4 604.3,626.1 605.9,623.3 609.9,616.8 
		612.8,612 614.3,609.7 617.5,605.1 622.1,598.4 628.2,589.9 628.3,589.7 628.7,589.1 629.9,587.5 630.8,586.3 640,574.6 
		641.5,572.9 643.2,570.7 646.6,566.9 648.5,564.7 649.7,563.3 654.1,558.4 654.9,557.6 659.2,552.6 659.6,552.2 659.9,552 
		666,545.6 666,545.6 670,541.6 673.5,538.3 673.5,538.2 676.3,535.4 679.5,532.5 679.8,532.3 680.7,531.3 682.5,529.8 687.8,525 
		687.8,525 694.2,519.2 701.1,513.8 703.3,512 707.7,508.6 711.8,505.4 713.2,504.3 718.8,500.3 727.1,494.3 729.5,492.8 733,490.3 
		738.9,486.6 738.9,486.6 739.5,486.2 752.2,478.3 753.3,477.7 753.3,477.7 765,471.1 769.2,469 769.2,469 774.6,466.2 774.6,466.2 
		778.3,464.3 791.6,458.1 793.4,457.3 796.6,455.8 799.7,454.6 804.8,452.4 804.9,452.3 805.3,452.1 818.4,447 818.5,447 819,447 
		824.8,436.8 824.8,436.8 833.1,422.3 840.6,409.1 840.7,409.1 842.4,406.1 847.4,397 853.5,386.4 859,376.8 863.7,368.7 
		867.7,361.9 870.8,356.3 855,359.5 847.6,361.4 845.6,361.9 845.5,361.9 842.4,362.7 821.7,368.3 820.6,368.7 820.5,368.7 
		818.2,369.4 800.7,375.2 796.1,376.8 796,376.8 793.7,377.6 792.5,378.1 772.4,386 771.6,386.4 771.6,386.4 770.9,386.6 
		751.2,395.5 749.4,396.4 748.2,397 748.1,397 743.3,399.5 725,409.1 710.4,417.7 707.3,419.6 702.8,422.3 702.8,422.4 697.8,425.4 
		680.9,436.8 667.2,447 661.8,451 661.8,451.1 660.2,452.4 658,454.1 656,455.8 655.9,455.8 644.2,465.5 643.4,466.2 641.8,467.5 
		640.2,469 640.2,469 631.7,476.7 630.6,477.7 630,478.2 621.2,486.6 621.2,486.6 619,488.8 617.5,490.3 617.5,490.3 612.1,495.7 
		606.7,501.3 606.1,501.9 606.1,502 603.9,504.3 603,505.4 602.9,505.4 596.8,512.2 590.7,519.2 590.7,519.2 586.3,524.3 585.8,525 
		585.8,525 582.4,529.1 577.6,535.4 577.6,535.4 570.3,544.8 569.7,545.6 569.1,546.4 568.9,546.6 564.6,552.6 564.6,552.7 
		558.2,561.7 557.2,563.1 554.8,566.9 554.8,566.9 552.3,570.7 552.3,570.8 548.6,576.7 540.9,589.1 540.4,589.9 540.4,589.9 
		540.1,590.3 532.3,604.3 532.3,604.4 529.5,609.7 528.3,612 528.3,612.1 525.5,617.4 519.6,629.5 519.2,630.4 519.2,630.4 
		519.2,630.4 517.8,633.3 516.9,635.5 516.8,635.5 513.3,643.5 510.3,650.7 509.8,651.9 506.8,659.5 506.8,659.6 505.4,663.2 
		501.4,673.8 501.3,673.9 499.3,679.5 497.8,684.2 497.8,684.3 494.8,693.8 494,696.4 494,696.4 490.2,709.2 490.1,709.4 
		490.1,709.4 487.5,719.6 487.5,719.6 486.2,724.9 484,734.7 483.9,734.7 482.6,740.7 482.5,740.9 482.2,743 481.8,744.9 
		479.6,756.6 479,760.5 479,760.5 478,766.8 478,766.9 477.5,770.5 476.9,774.5 475.5,786.4 475.5,786.5 475.2,788.6 475,790.9 
		475,791 473.7,804.8 473.3,812.4 473.3,812.4 473.2,815.2 473.2,815.2 472.9,820.8 472.9,821.1 472.5,837.1 472.5,838.6 
		472.5,839.5 472.5,839.5 472.7,853.3 473.1,863.7 473.1,865 473.1,865.1 473.3,869.5 474.6,885.7 474.8,888 474.8,888 475.1,891 
		475.1,891.1 476.3,901.6 477.6,912.1 477.6,912.1 478.3,917 478.3,917 478.4,917.6 480.3,928.7 481.4,934.8 481.6,936.1 
		481.6,936.1 483,942.7 483.1,942.8 484.5,949.5 486.9,959.6 486.9,959.6 488.3,965.3 489.1,968.3 489.1,968.4 492.5,980.9 
		493.1,982.8 493.1,982.8 496.5,993.4 496.5,993.5 496.5,993.5 497.4,996.2 500.5,1005.3 500.5,1005.4 502.6,1011.5 505.1,1018.1 
		505.1,1018.2 507.8,1025.4 507.9,1025.4 508.7,1027.5 510.4,1031.6 510.5,1031.9 514.6,1041.5 515,1042.4 515,1042.4 518,1049 
		518,1049 520.3,1053.8 520.4,1054.2 521.9,1057.3 521.9,1057.3 526.2,1066 526.2,1066 527.4,1068.5 527.4,1068.5 528.1,1069.7 
		532,1076.9 532.1,1077.2 536.3,1084.8 538.8,1089 539.2,1089.7 539.2,1089.7 544.6,1098.8 550.8,1108.8 552.2,1111.2 552.2,1111.2 
		553,1112.4 558.5,1120.7 563,1127.1 563,1127.2 564.3,1128.9 567,1132.7 567,1132.7 570.3,1137.2 570.5,1137.4 572.8,1140.5 
		572.9,1140.6 573.5,1141.3 575.8,1144.4 575.8,1144.4 581.5,1151.6 583,1153.5 583.2,1153.7 583.2,1153.7 591.8,1164 600,1173.3 
		600.3,1173.6 602.3,1175.9 613.5,1187.6 617.9,1192.1 618.1,1192.3 621.4,1195.6 630,1203.8 630.6,1204.4 636.7,1210.2 
		659.4,1170.1 659.7,1169.6 668.8,1153.5 668.8,1153.5 674,1144.4 667.8,1138 	"/>
	<path class="st0" d="M780.4,1632.8c-1-0.9-2.2-1.8-3.4-2.5c-1.9-1.2-3.9-2.2-5.9-3.1c-2.5-1-5-1.9-7.6-2.6
		c-2.7-0.7-5.5-1.1-8.3-1.1c-5,0-8.7,0.9-11.2,2.8c-2.4,1.8-3.8,4.7-3.7,7.8c-0.1,1.7,0.4,3.4,1.4,4.8c1.1,1.4,2.4,2.5,4,3.4
		c2.1,1.1,4.3,2,6.6,2.6c2.7,0.8,5.8,1.6,9.3,2.5c4.6,1.2,8.7,2.5,12.4,3.9c3.4,1.2,6.6,3,9.5,5.3c2.5,2,4.6,4.6,6,7.6
		c1.5,3.4,2.2,7.1,2.1,10.8c0.1,4.4-0.8,8.9-2.8,12.8c-1.8,3.5-4.4,6.4-7.6,8.6c-3.4,2.3-7.1,3.9-11,4.8c-4.3,1-8.7,1.5-13.1,1.5
		c-7,0-14.1-1.1-20.8-3.2c-6.6-2-12.8-5-18.4-8.9l8-15.7c1.3,1.2,2.7,2.2,4.3,3.1c2.3,1.4,4.8,2.7,7.3,3.8c3,1.3,6.1,2.4,9.3,3.2
		c3.4,0.9,7,1.3,10.5,1.3c10,0,15-3.2,15-9.6c0.1-1.9-0.6-3.7-1.7-5.1c-1.3-1.6-3-2.8-4.9-3.7c-2.5-1.2-5-2.2-7.6-2.9
		c-3-0.9-6.3-1.8-10-2.9c-4-1.1-7.9-2.4-11.6-4c-3-1.3-5.8-3-8.2-5.1c-2.1-1.9-3.8-4.2-4.9-6.8c-1.2-3-1.7-6.1-1.7-9.3
		c-0.1-4.4,0.8-8.7,2.6-12.6c1.7-3.6,4.2-6.7,7.3-9.2c3.2-2.5,6.9-4.4,10.9-5.6c4.3-1.3,8.8-1.9,13.3-1.9c6.2-0.1,12.3,1,18.2,3.1
		c5.1,1.8,10,4.3,14.5,7.3L780.4,1632.8z"/>
	<path class="st0" d="M874.6,1624.2h-29.9v77.5h-18v-77.5h-29.9v-15.9h77.8V1624.2z"/>
	<path class="st0" d="M925.6,1686.3c3.8,0.1,7.5-0.8,10.8-2.6c2.9-1.7,5.3-4,7.1-6.8c1.9-3,3.1-6.2,3.8-9.7
		c0.8-3.7,1.1-7.5,1.1-11.2v-47.6h18v47.6c0,6.1-0.7,12.1-2.3,18c-1.4,5.3-3.9,10.4-7.2,14.7c-3.4,4.3-7.7,7.7-12.7,10
		c-5.2,2.5-11.4,3.7-18.5,3.7c-7.5,0-13.8-1.3-19-3.9c-5-2.4-9.3-5.9-12.7-10.2c-3.3-4.4-5.7-9.4-7-14.8c-1.5-5.7-2.2-11.6-2.2-17.5
		v-47.6H903v47.6c0,3.8,0.4,7.6,1.1,11.4c0.7,3.4,2,6.7,3.8,9.7C911.7,1683.1,918.5,1686.6,925.6,1686.3L925.6,1686.3z"/>
	<path class="st0" d="M984.8,1701.7v-93.4h33.9c6.9-0.1,13.7,1.1,20.1,3.7c11,4.5,19.4,13.5,23.1,24.8c2,5.8,2.9,11.9,2.9,18.1
		c0.1,6.6-1,13.1-3.2,19.3c-2,5.5-5.2,10.5-9.3,14.7c-4.1,4.1-9.1,7.4-14.5,9.5c-6.1,2.3-12.5,3.5-19,3.4L984.8,1701.7z
		 M1046.5,1654.9c0-4.2-0.6-8.4-1.8-12.4c-1.1-3.6-2.9-6.9-5.4-9.7c-2.4-2.7-5.4-4.9-8.8-6.3c-3.7-1.5-7.7-2.3-11.8-2.2H1003v61.6
		h15.8c4.1,0.1,8.2-0.7,11.9-2.4c3.3-1.5,6.3-3.7,8.7-6.5c2.4-2.9,4.2-6.2,5.3-9.8C1045.9,1663.2,1046.6,1659,1046.5,1654.9z"/>
	<path class="st0" d="M1079,1701.7v-93.4h18.2v93.4H1079z"/>
	<path class="st0" d="M1156.5,1702.4c-6.4,0.1-12.8-1.3-18.6-4c-5.4-2.6-10.3-6.2-14.3-10.7c-8-9-12.5-20.7-12.5-32.7
		c0-6.1,1.2-12.2,3.5-17.9c2.3-5.6,5.5-10.7,9.6-15.1c4.1-4.4,9-8,14.5-10.5c5.7-2.6,12-3.9,18.3-3.9c6.4-0.1,12.7,1.3,18.5,4.1
		c5.4,2.6,10.3,6.3,14.3,10.8c4,4.5,7.1,9.7,9.2,15.3c2.2,5.5,3.3,11.4,3.3,17.4c0,6.1-1.1,12.2-3.4,17.8c-2.2,5.5-5.4,10.6-9.5,15
		c-4.1,4.4-9,7.9-14.5,10.4C1169.1,1701.1,1162.8,1702.4,1156.5,1702.4z M1129.4,1655c0,4,0.6,7.9,1.8,11.7c1.1,3.6,2.9,7,5.3,10
		c2.3,2.9,5.2,5.3,8.6,7c7.3,3.5,15.9,3.5,23.2-0.1c3.3-1.8,6.2-4.2,8.6-7.2c2.3-3,4.1-6.4,5.3-10.1c1.2-3.7,1.8-7.5,1.8-11.4
		c0-4-0.6-7.9-1.9-11.7c-1.2-3.6-3-7-5.4-10c-2.3-2.9-5.2-5.3-8.6-6.9c-7.3-3.5-15.8-3.4-23.1,0.1c-3.3,1.7-6.2,4.2-8.6,7.1
		c-2.3,3-4.1,6.4-5.2,10C1130,1647.3,1129.4,1651.2,1129.4,1655L1129.4,1655z"/>
</g>
</svg>
