<svg xmlns="http://www.w3.org/2000/svg" viewBox="0 0 192 192"><defs><style>.cls-1{fill:#e6e6e6;}.cls-2{fill:#510303;}.cls-3{fill:#f1f1f1;}</style></defs><title>iconArtboard 13 copy 5</title><g id="Layer_3" data-name="Layer 3"><path class="cls-1" d="M152.2,150.28l-55.42,0q-28.52,0-57,0v-83c.86.45,1.38.7,1.87,1Q68,83.51,94.32,98.76a2.84,2.84,0,0,0,3.32,0Q124,83.48,150.33,68.31c.53-.3,1-.84,1.84-.69v2.07Z"/><path class="cls-2" d="M152.2,150.28l0-80.59V67.62c-.84-.15-1.31.39-1.84.69Q124,83.51,97.64,98.76a2.84,2.84,0,0,1-3.32,0Q68,83.48,41.64,68.29c-.49-.29-1-.54-1.87-1v83a57,57,0,0,1-8.37,0l-.93,0a11.52,11.52,0,0,1-9.3-9.94c-.07-.88-.06-1.76-.06-2.63q0-41.75,0-83.49c0-1.22-.18-2.46-.06-3.67.55-5.93,5.08-9.53,11.11-8.91A9.7,9.7,0,0,1,35.35,43Q64.94,60.07,94.5,77.22a2.51,2.51,0,0,0,3,0Q127,60.06,156.62,43a9.91,9.91,0,0,1,3.2-1.33c.92.08,1.84.18,2.76.24a9.08,9.08,0,0,1,8.4,9.74c-.06.93-.11,1.86-.11,2.8,0,27.82-.07,55.65,0,83.47,0,5.92-2.72,9.67-7.79,12.1a3.51,3.51,0,0,1-1.48.39C158.5,150.38,155.35,150.32,152.2,150.28Z"/><path class="cls-1" d="M159.82,41.64a9.91,9.91,0,0,0-3.2,1.33Q127,60.07,97.47,77.22a2.51,2.51,0,0,1-3,0Q64.95,60.06,35.35,43a9.7,9.7,0,0,0-3.2-1.33l23.85,0H157.54Z"/><path class="cls-3" d="M30.47,150.28l.93,0Z"/></g></svg>