<svg xmlns="http://www.w3.org/2000/svg" viewBox="0 0 192 192"><defs><style>.cls-1{fill:#510303;}</style></defs><title>iconArtboard 13</title><g id="Layer_3" data-name="Layer 3"><path class="cls-1" d="M163.7,135.11V156.6A14.35,14.35,0,0,1,149.42,171c-.45,0-.9,0-1.34-.05a142.3,142.3,0,0,1-61.86-22,140,140,0,0,1-43-43,142,142,0,0,1-22-62.13,14.36,14.36,0,0,1,13-15.57c.42,0,.84-.05,1.29-.05H57A14.36,14.36,0,0,1,71.32,40.49a91,91,0,0,0,5,20.16,14.29,14.29,0,0,1-3.24,15.1L64,84.87a114.62,114.62,0,0,0,43,43l9.09-9.09a14.35,14.35,0,0,1,15.13-3.24,92,92,0,0,0,20.14,5A14.35,14.35,0,0,1,163.7,135.11Z"/></g></svg>