<?xml version="1.0" encoding="utf-8"?>
<!-- Generator: Adobe Illustrator 24.0.0, SVG Export Plug-In . SVG Version: 6.00 Build 0)  -->
<svg version="1.1" id="Layer_1" xmlns="http://www.w3.org/2000/svg" xmlns:xlink="http://www.w3.org/1999/xlink" x="0px" y="0px"
	 viewBox="0 0 192 192" style="enable-background:new 0 0 192 192;" xml:space="preserve">
<style type="text/css">
	.st0{fill:#F2F2F2;}
</style>
<title>iconArtboard 13 copy 6</title>
<g id="Layer_3">
	<path class="st0" d="M124,38.7V26H97.4v96.1c0,9.6-7.7,17.3-17.3,17.3s-17.3-7.7-17.3-17.3c0-9.6,7.7-17.3,17.3-17.3c0,0,0,0,0,0
		c1.8,0,3.6,0.3,5.4,0.9V78.6c-1.8-0.2-3.6-0.4-5.4-0.4c-24.2,0-43.9,19.7-43.8,43.9c0,24.2,19.7,43.9,43.9,43.8
		c24.2,0,43.8-19.7,43.9-43.9V78c8.8,5.6,19.4,8.8,31.8,9.1V58.9C142.4,58.3,130.2,50.6,124,38.7z"/>
</g>
</svg>
