<svg xmlns="http://www.w3.org/2000/svg" viewBox="0 0 192 192"><defs><style>.cls-1{fill:#510303;}</style></defs><title>iconArtboard 13 copy 3</title><g id="Layer_3" data-name="Layer 3"><path class="cls-1" d="M97.78,21c-.59,0-1.19,0-1.78.05A73.19,73.19,0,0,0,34.05,130.26L21,171l40.76-13A73,73,0,0,0,96,167.38c.6,0,1.19.06,1.78.06A73.22,73.22,0,0,0,97.78,21Zm36.33,102.7a4.49,4.49,0,0,1-.35,1.81c-3.94,9.19-15.3,8.61-15.3,8.61-8.07,0-15.83-3.2-22.46-7.27a89.1,89.1,0,0,1-17.44-14.38C71.87,106,57.9,90.39,57.9,73.52c0,0-.58-11.36,8.61-15.31a4.71,4.71,0,0,1,1.82-.34h4.91a4.89,4.89,0,0,1,4.45,2.85l6.83,14.85a4,4,0,0,1-.39,4.05l-4.2,5.85a5.72,5.72,0,0,0-.41,6C80.46,93.27,90,103.08,96,108.67a37,37,0,0,0,4.48,3.83,5.72,5.72,0,0,0,6-.41l5.85-4.2a4.06,4.06,0,0,1,4-.39l14.84,6.83a4.9,4.9,0,0,1,2.86,4.45Z"/></g></svg>